<?xml version="1.0" encoding="UTF-8" standalone="no"?>
<!DOCTYPE svg PUBLIC "-//W3C//DTD SVG 1.1//EN"
 "http://www.w3.org/Graphics/SVG/1.1/DTD/svg11.dtd">
<!-- Generated by graphviz version 16.1.0 (20260904.0139)
 -->
<!-- Title: G Pages: 1 -->
<svg width="1474pt" height="2487pt"
 viewBox="0.00 0.00 1474.00 2487.00" xmlns="http://www.w3.org/2000/svg" xmlns:xlink="http://www.w3.org/1999/xlink">
<g id="graph0" class="graph" transform="scale(1 1) rotate(0) translate(4 2483.25)">
<title>G</title>
<polygon fill="white" stroke="none" points="-4,4 -4,-2483.25 1470.12,-2483.25 1470.12,4 -4,4"/>
<text xml:space="preserve" text-anchor="middle" x="733.06" y="-2461.95" font-family="sans" font-size="14.00">pp8192&#45;fa&#45;off prefill: layer 0 (plus direct boundary inputs)</text>
<!-- n0 -->
<g id="node1" class="node">
<title>n0</title>
<path fill="#e2e8f0" stroke="black" d="M155.5,-2454C155.5,-2454 12,-2454 12,-2454 6,-2454 0,-2448 0,-2442 0,-2442 0,-2430 0,-2430 0,-2424 6,-2418 12,-2418 12,-2418 155.5,-2418 155.5,-2418 161.5,-2418 167.5,-2424 167.5,-2430 167.5,-2430 167.5,-2442 167.5,-2442 167.5,-2448 161.5,-2454 155.5,-2454"/>
<text xml:space="preserve" text-anchor="middle" x="83.75" y="-2439.25" font-family="sans" font-size="10.00">0: model.input_embed</text>
<text xml:space="preserve" text-anchor="middle" x="83.75" y="-2426.5" font-family="sans" font-size="10.00">GET_ROWS | f32 | 2048x8192x1x1</text>
</g>
<!-- n3 -->
<g id="node2" class="node">
<title>n3</title>
<path fill="#fef3c7" stroke="black" d="M1128.88,-2365.5C1128.88,-2365.5 984.62,-2365.5 984.62,-2365.5 978.62,-2365.5 972.62,-2359.5 972.62,-2353.5 972.62,-2353.5 972.62,-2341.5 972.62,-2341.5 972.62,-2335.5 978.62,-2329.5 984.62,-2329.5 984.62,-2329.5 1128.88,-2329.5 1128.88,-2329.5 1134.88,-2329.5 1140.88,-2335.5 1140.88,-2341.5 1140.88,-2341.5 1140.88,-2353.5 1140.88,-2353.5 1140.88,-2359.5 1134.88,-2365.5 1128.88,-2365.5"/>
<text xml:space="preserve" text-anchor="middle" x="1056.75" y="-2350.75" font-family="sans" font-size="10.00">3: norm&#45;0</text>
<text xml:space="preserve" text-anchor="middle" x="1056.75" y="-2338" font-family="sans" font-size="10.00">RMS_NORM | f32 | 2048x8192x1x1</text>
</g>
<!-- n0&#45;&gt;n3 -->
<g id="edge1" class="edge">
<title>n0&#45;&gt;n3</title>
<path fill="none" stroke="#94a3b8" d="M167.77,-2431.22C322.77,-2423.63 664.27,-2403.98 961.17,-2365.77"/>
<polygon fill="#94a3b8" stroke="#94a3b8" points="961.19,-2369.29 970.66,-2364.54 960.29,-2362.35 961.19,-2369.29"/>
<text xml:space="preserve" text-anchor="middle" x="799.37" y="-2386.7" font-family="Times New Roman,serif" font-size="14.00">0</text>
</g>
<!-- n75 -->
<g id="node60" class="node">
<title>n75</title>
<path fill="#fef3c7" stroke="black" d="M140.12,-567C140.12,-567 27.37,-567 27.37,-567 21.38,-567 15.38,-561 15.38,-555 15.38,-555 15.38,-543 15.38,-543 15.38,-537 21.38,-531 27.38,-531 27.38,-531 140.12,-531 140.12,-531 146.12,-531 152.12,-537 152.12,-543 152.12,-543 152.12,-555 152.12,-555 152.12,-561 146.12,-567 140.12,-567"/>
<text xml:space="preserve" text-anchor="middle" x="83.75" y="-552.25" font-family="sans" font-size="10.00">75: attn_residual&#45;0</text>
<text xml:space="preserve" text-anchor="middle" x="83.75" y="-539.5" font-family="sans" font-size="10.00">ADD | f32 | 2048x8192x1x1</text>
</g>
<!-- n0&#45;&gt;n75 -->
<g id="edge69" class="edge">
<title>n0&#45;&gt;n75</title>
<path fill="none" stroke="#94a3b8" d="M78.6,-2417.61C73.92,-2400.27 67.75,-2372.78 67.75,-2348.5 67.75,-2348.5 67.75,-2348.5 67.75,-636.5 67.75,-616.77 71.82,-594.93 75.86,-578.12"/>
<polygon fill="#94a3b8" stroke="#94a3b8" points="79.15,-579.41 78.23,-568.85 72.36,-577.68 79.15,-579.41"/>
<text xml:space="preserve" text-anchor="middle" x="71.12" y="-1428.95" font-family="Times New Roman,serif" font-size="14.00">1</text>
</g>
<!-- n4 -->
<g id="node3" class="node">
<title>n4</title>
<path fill="#fef3c7" stroke="black" d="M1113.12,-2277C1113.12,-2277 1000.38,-2277 1000.38,-2277 994.38,-2277 988.38,-2271 988.38,-2265 988.38,-2265 988.38,-2253 988.38,-2253 988.38,-2247 994.38,-2241 1000.38,-2241 1000.38,-2241 1113.12,-2241 1113.12,-2241 1119.12,-2241 1125.12,-2247 1125.12,-2253 1125.12,-2253 1125.12,-2265 1125.12,-2265 1125.12,-2271 1119.12,-2277 1113.12,-2277"/>
<text xml:space="preserve" text-anchor="middle" x="1056.75" y="-2262.25" font-family="sans" font-size="10.00">4: attn_norm&#45;0</text>
<text xml:space="preserve" text-anchor="middle" x="1056.75" y="-2249.5" font-family="sans" font-size="10.00">MUL | f32 | 2048x8192x1x1</text>
</g>
<!-- n3&#45;&gt;n4 -->
<g id="edge2" class="edge">
<title>n3&#45;&gt;n4</title>
<path fill="none" stroke="#94a3b8" d="M1056.75,-2329.41C1056.75,-2317.76 1056.75,-2302.05 1056.75,-2288.52"/>
<polygon fill="#94a3b8" stroke="#94a3b8" points="1060.25,-2288.86 1056.75,-2278.86 1053.25,-2288.86 1060.25,-2288.86"/>
<text xml:space="preserve" text-anchor="middle" x="1060.12" y="-2298.2" font-family="Times New Roman,serif" font-size="14.00">0</text>
</g>
<!-- n18 -->
<g id="node10" class="node">
<title>n18</title>
<path fill="#dbeafe" stroke="black" d="M808.12,-2188.5C808.12,-2188.5 671.38,-2188.5 671.38,-2188.5 665.38,-2188.5 659.38,-2182.5 659.38,-2176.5 659.38,-2176.5 659.38,-2164.5 659.38,-2164.5 659.38,-2158.5 665.38,-2152.5 671.38,-2152.5 671.38,-2152.5 808.12,-2152.5 808.12,-2152.5 814.12,-2152.5 820.12,-2158.5 820.12,-2164.5 820.12,-2164.5 820.12,-2176.5 820.12,-2176.5 820.12,-2182.5 814.12,-2188.5 808.12,-2188.5"/>
<text xml:space="preserve" text-anchor="middle" x="739.75" y="-2173.75" font-family="sans" font-size="10.00">18: node_13</text>
<text xml:space="preserve" text-anchor="middle" x="739.75" y="-2161" font-family="sans" font-size="10.00">MUL_MAT | f32 | 6144x8192x1x1</text>
</g>
<!-- n4&#45;&gt;n18 -->
<g id="edge9" class="edge">
<title>n4&#45;&gt;n18</title>
<path fill="none" stroke="#94a3b8" d="M1016.3,-2240.6C989.57,-2229.62 953.54,-2215.8 920.75,-2206.5 911.57,-2203.89 871.64,-2196.12 831.62,-2188.56"/>
<polygon fill="#94a3b8" stroke="#94a3b8" points="832.32,-2185.12 821.84,-2186.71 831.02,-2192 832.32,-2185.12"/>
<text xml:space="preserve" text-anchor="middle" x="973.48" y="-2209.7" font-family="Times New Roman,serif" font-size="14.00">1</text>
</g>
<!-- n44 -->
<g id="node29" class="node">
<title>n44</title>
<path fill="#dbeafe" stroke="black" d="M1274.88,-2188.5C1274.88,-2188.5 1148.62,-2188.5 1148.62,-2188.5 1142.62,-2188.5 1136.62,-2182.5 1136.62,-2176.5 1136.62,-2176.5 1136.62,-2164.5 1136.62,-2164.5 1136.62,-2158.5 1142.62,-2152.5 1148.62,-2152.5 1148.62,-2152.5 1274.88,-2152.5 1274.88,-2152.5 1280.88,-2152.5 1286.88,-2158.5 1286.88,-2164.5 1286.88,-2164.5 1286.88,-2176.5 1286.88,-2176.5 1286.88,-2182.5 1280.88,-2188.5 1274.88,-2188.5"/>
<text xml:space="preserve" text-anchor="middle" x="1211.75" y="-2173.75" font-family="sans" font-size="10.00">44: node_36</text>
<text xml:space="preserve" text-anchor="middle" x="1211.75" y="-2161" font-family="sans" font-size="10.00">MUL_MAT | f32 | 16x8192x1x1</text>
</g>
<!-- n4&#45;&gt;n44 -->
<g id="edge32" class="edge">
<title>n4&#45;&gt;n44</title>
<path fill="none" stroke="#94a3b8" d="M1082.24,-2240.71C1098.02,-2230.3 1118.84,-2217.07 1138,-2206.5 1145.77,-2202.22 1154.14,-2197.94 1162.37,-2193.91"/>
<polygon fill="#94a3b8" stroke="#94a3b8" points="1163.78,-2197.12 1171.28,-2189.63 1160.75,-2190.81 1163.78,-2197.12"/>
<text xml:space="preserve" text-anchor="middle" x="1141.38" y="-2209.7" font-family="Times New Roman,serif" font-size="14.00">1</text>
</g>
<!-- n53 -->
<g id="node38" class="node">
<title>n53</title>
<path fill="#dbeafe" stroke="black" d="M978.88,-2188.5C978.88,-2188.5 852.62,-2188.5 852.62,-2188.5 846.62,-2188.5 840.62,-2182.5 840.62,-2176.5 840.62,-2176.5 840.62,-2164.5 840.62,-2164.5 840.62,-2158.5 846.62,-2152.5 852.62,-2152.5 852.62,-2152.5 978.88,-2152.5 978.88,-2152.5 984.88,-2152.5 990.88,-2158.5 990.88,-2164.5 990.88,-2164.5 990.88,-2176.5 990.88,-2176.5 990.88,-2182.5 984.88,-2188.5 978.88,-2188.5"/>
<text xml:space="preserve" text-anchor="middle" x="915.75" y="-2173.75" font-family="sans" font-size="10.00">53: node_42</text>
<text xml:space="preserve" text-anchor="middle" x="915.75" y="-2161" font-family="sans" font-size="10.00">MUL_MAT | f32 | 16x8192x1x1</text>
</g>
<!-- n4&#45;&gt;n53 -->
<g id="edge41" class="edge">
<title>n4&#45;&gt;n53</title>
<path fill="none" stroke="#94a3b8" d="M1036.45,-2240.56C1023.57,-2229.98 1006.27,-2216.6 989.75,-2206.5 982.5,-2202.07 974.6,-2197.8 966.75,-2193.85"/>
<polygon fill="#94a3b8" stroke="#94a3b8" points="968.39,-2190.76 957.87,-2189.53 965.33,-2197.06 968.39,-2190.76"/>
<text xml:space="preserve" text-anchor="middle" x="1016.18" y="-2209.7" font-family="Times New Roman,serif" font-size="14.00">1</text>
</g>
<!-- n66 -->
<g id="node51" class="node">
<title>n66</title>
<path fill="#dbeafe" stroke="black" d="M1454.12,-2188.5C1454.12,-2188.5 1317.38,-2188.5 1317.38,-2188.5 1311.38,-2188.5 1305.38,-2182.5 1305.38,-2176.5 1305.38,-2176.5 1305.38,-2164.5 1305.38,-2164.5 1305.38,-2158.5 1311.38,-2152.5 1317.38,-2152.5 1317.38,-2152.5 1454.12,-2152.5 1454.12,-2152.5 1460.12,-2152.5 1466.12,-2158.5 1466.12,-2164.5 1466.12,-2164.5 1466.12,-2176.5 1466.12,-2176.5 1466.12,-2182.5 1460.12,-2188.5 1454.12,-2188.5"/>
<text xml:space="preserve" text-anchor="middle" x="1385.75" y="-2173.75" font-family="sans" font-size="10.00">66: z&#45;0</text>
<text xml:space="preserve" text-anchor="middle" x="1385.75" y="-2161" font-family="sans" font-size="10.00">MUL_MAT | f32 | 2048x8192x1x1</text>
</g>
<!-- n4&#45;&gt;n66 -->
<g id="edge59" class="edge">
<title>n4&#45;&gt;n66</title>
<path fill="none" stroke="#94a3b8" d="M1100.06,-2240.54C1128.42,-2229.61 1166.48,-2215.87 1201,-2206.5 1201.63,-2206.33 1247.81,-2197.58 1293.84,-2188.87"/>
<polygon fill="#94a3b8" stroke="#94a3b8" points="1294.22,-2192.36 1303.39,-2187.07 1292.92,-2185.49 1294.22,-2192.36"/>
<text xml:space="preserve" text-anchor="middle" x="1204.38" y="-2209.7" font-family="Times New Roman,serif" font-size="14.00">1</text>
</g>
<!-- n5 -->
<g id="node4" class="node">
<title>n5</title>
<path fill="#f1f5f9" stroke="black" d="M942.62,-2365.5C942.62,-2365.5 838.88,-2365.5 838.88,-2365.5 832.88,-2365.5 826.88,-2359.5 826.88,-2353.5 826.88,-2353.5 826.88,-2341.5 826.88,-2341.5 826.88,-2335.5 832.88,-2329.5 838.88,-2329.5 838.88,-2329.5 942.62,-2329.5 942.62,-2329.5 948.62,-2329.5 954.62,-2335.5 954.62,-2341.5 954.62,-2341.5 954.62,-2353.5 954.62,-2353.5 954.62,-2359.5 948.62,-2365.5 942.62,-2365.5"/>
<text xml:space="preserve" text-anchor="middle" x="890.75" y="-2350.75" font-family="sans" font-size="10.00">5: blk.0.attn_norm.weight</text>
<text xml:space="preserve" text-anchor="middle" x="890.75" y="-2338" font-family="sans" font-size="10.00">NONE | f32 | 2048x1x1x1</text>
</g>
<!-- n5&#45;&gt;n4 -->
<g id="edge3" class="edge">
<title>n5&#45;&gt;n4</title>
<path fill="none" stroke="#94a3b8" d="M923.94,-2329.2C949.64,-2315.81 985.46,-2297.15 1013.42,-2282.58"/>
<polygon fill="#94a3b8" stroke="#94a3b8" points="1014.74,-2285.84 1021.99,-2278.11 1011.5,-2279.63 1014.74,-2285.84"/>
<text xml:space="preserve" text-anchor="middle" x="991.99" y="-2298.2" font-family="Times New Roman,serif" font-size="14.00">1</text>
</g>
<!-- n6 -->
<g id="node5" class="node">
<title>n6</title>
<path fill="#f1f5f9" stroke="black" d="M390,-2188.5C390,-2188.5 267.5,-2188.5 267.5,-2188.5 261.5,-2188.5 255.5,-2182.5 255.5,-2176.5 255.5,-2176.5 255.5,-2164.5 255.5,-2164.5 255.5,-2158.5 261.5,-2152.5 267.5,-2152.5 267.5,-2152.5 390,-2152.5 390,-2152.5 396,-2152.5 402,-2158.5 402,-2164.5 402,-2164.5 402,-2176.5 402,-2176.5 402,-2182.5 396,-2188.5 390,-2188.5"/>
<text xml:space="preserve" text-anchor="middle" x="328.75" y="-2173.75" font-family="sans" font-size="10.00">6: cache_r_l0 (reshaped)</text>
<text xml:space="preserve" text-anchor="middle" x="328.75" y="-2161" font-family="sans" font-size="10.00">RESHAPE | f32 | 18432x1x1x1</text>
</g>
<!-- n12 -->
<g id="node8" class="node">
<title>n12</title>
<path fill="#e2e8f0" stroke="black" d="M395.25,-2080.5C395.25,-2080.5 262.25,-2080.5 262.25,-2080.5 256.25,-2080.5 250.25,-2074.5 250.25,-2068.5 250.25,-2068.5 250.25,-2056.5 250.25,-2056.5 250.25,-2050.5 256.25,-2044.5 262.25,-2044.5 262.25,-2044.5 395.25,-2044.5 395.25,-2044.5 401.25,-2044.5 407.25,-2050.5 407.25,-2056.5 407.25,-2056.5 407.25,-2068.5 407.25,-2068.5 407.25,-2074.5 401.25,-2080.5 395.25,-2080.5"/>
<text xml:space="preserve" text-anchor="middle" x="328.75" y="-2065.75" font-family="sans" font-size="10.00">12: conv_states&#45;0</text>
<text xml:space="preserve" text-anchor="middle" x="328.75" y="-2053" font-family="sans" font-size="10.00">GET_ROWS | f32 | 18432x1x1x1</text>
</g>
<!-- n6&#45;&gt;n12 -->
<g id="edge5" class="edge">
<title>n6&#45;&gt;n12</title>
<path fill="none" stroke="#94a3b8" d="M328.75,-2152.47C328.75,-2136.26 328.75,-2111.56 328.75,-2092.29"/>
<polygon fill="#94a3b8" stroke="#94a3b8" points="332.25,-2092.35 328.75,-2082.35 325.25,-2092.35 332.25,-2092.35"/>
<text xml:space="preserve" text-anchor="middle" x="332.12" y="-2111.45" font-family="Times New Roman,serif" font-size="14.00">0</text>
</g>
<!-- n7 -->
<g id="node6" class="node">
<title>n7</title>
<path fill="#f1f5f9" stroke="black" d="M281.88,-2277C281.88,-2277 173.62,-2277 173.62,-2277 167.62,-2277 161.62,-2271 161.62,-2265 161.62,-2265 161.62,-2253 161.62,-2253 161.62,-2247 167.62,-2241 173.62,-2241 173.62,-2241 281.88,-2241 281.88,-2241 287.88,-2241 293.88,-2247 293.88,-2253 293.88,-2253 293.88,-2265 293.88,-2265 293.88,-2271 287.88,-2277 281.88,-2277"/>
<text xml:space="preserve" text-anchor="middle" x="227.75" y="-2262.25" font-family="sans" font-size="10.00">7: cache_r_l0</text>
<text xml:space="preserve" text-anchor="middle" x="227.75" y="-2249.5" font-family="sans" font-size="10.00">NONE | f32 | 18432x1x1x1</text>
</g>
<!-- n7&#45;&gt;n6 -->
<g id="edge4" class="edge">
<title>n7&#45;&gt;n6</title>
<path fill="none" stroke="#94a3b8" d="M247.7,-2240.91C262.68,-2228.08 283.41,-2210.33 300.15,-2195.99"/>
<polygon fill="#94a3b8" stroke="#94a3b8" points="302.02,-2199 307.34,-2189.83 297.47,-2193.68 302.02,-2199"/>
<text xml:space="preserve" text-anchor="middle" x="290.67" y="-2209.7" font-family="Times New Roman,serif" font-size="14.00">0</text>
</g>
<!-- n24 -->
<g id="node16" class="node">
<title>n24</title>
<path fill="#f1f5f9" stroke="black" d="M201.12,-2134.5C201.12,-2134.5 94.38,-2134.5 94.38,-2134.5 88.38,-2134.5 82.38,-2128.5 82.38,-2122.5 82.38,-2122.5 82.38,-2110.5 82.38,-2110.5 82.38,-2104.5 88.38,-2098.5 94.38,-2098.5 94.38,-2098.5 201.12,-2098.5 201.12,-2098.5 207.12,-2098.5 213.12,-2104.5 213.12,-2110.5 213.12,-2110.5 213.12,-2122.5 213.12,-2122.5 213.12,-2128.5 207.12,-2134.5 201.12,-2134.5"/>
<text xml:space="preserve" text-anchor="middle" x="147.75" y="-2119.75" font-family="sans" font-size="10.00">24: conv_state_update&#45;0</text>
<text xml:space="preserve" text-anchor="middle" x="147.75" y="-2107" font-family="sans" font-size="10.00">VIEW | f32 | 18432x1x1x1</text>
</g>
<!-- n7&#45;&gt;n24 -->
<g id="edge16" class="edge">
<title>n7&#45;&gt;n24</title>
<path fill="none" stroke="#94a3b8" d="M217.33,-2240.6C214,-2235 210.32,-2228.75 207,-2223 191.73,-2196.54 174.69,-2166.1 162.82,-2144.73"/>
<polygon fill="#94a3b8" stroke="#94a3b8" points="165.92,-2143.12 158.01,-2136.07 159.8,-2146.51 165.92,-2143.12"/>
<text xml:space="preserve" text-anchor="middle" x="210.38" y="-2209.7" font-family="Times New Roman,serif" font-size="14.00">0</text>
</g>
<!-- n25 -->
<g id="node17" class="node">
<title>n25</title>
<path fill="#e2e8f0" stroke="black" d="M331.75,-1668C331.75,-1668 111.75,-1668 111.75,-1668 105.75,-1668 99.75,-1662 99.75,-1656 99.75,-1656 99.75,-1644 99.75,-1644 99.75,-1638 105.75,-1632 111.75,-1632 111.75,-1632 331.75,-1632 331.75,-1632 337.75,-1632 343.75,-1638 343.75,-1644 343.75,-1644 343.75,-1656 343.75,-1656 343.75,-1662 337.75,-1668 331.75,-1668"/>
<text xml:space="preserve" text-anchor="middle" x="221.75" y="-1653.25" font-family="sans" font-size="10.00">25: conv_state_update&#45;0 (copy of conv_state_last&#45;0)</text>
<text xml:space="preserve" text-anchor="middle" x="221.75" y="-1640.5" font-family="sans" font-size="10.00">CPY | f32 | 18432x1x1x1</text>
</g>
<!-- n7&#45;&gt;n25 -->
<g id="edge19" class="edge">
<title>n7&#45;&gt;n25</title>
<path fill="none" stroke="#94a3b8" stroke-dasharray="5,2" d="M227.01,-2240.63C225.41,-2201.25 221.75,-2102.18 221.75,-2019.25 221.75,-2019.25 221.75,-2019.25 221.75,-1757 221.75,-1730.85 221.75,-1701.07 221.75,-1679.74"/>
<polygon fill="#94a3b8" stroke="#94a3b8" points="225.25,-1679.77 221.75,-1669.77 218.25,-1679.77 225.25,-1679.77"/>
<text xml:space="preserve" text-anchor="middle" x="234.12" y="-1968.95" font-family="Times New Roman,serif" font-size="14.00">alias</text>
</g>
<!-- n10 -->
<g id="node7" class="node">
<title>n10</title>
<path fill="#f1f5f9" stroke="black" d="M541.25,-2188.5C541.25,-2188.5 456.25,-2188.5 456.25,-2188.5 450.25,-2188.5 444.25,-2182.5 444.25,-2176.5 444.25,-2176.5 444.25,-2164.5 444.25,-2164.5 444.25,-2158.5 450.25,-2152.5 456.25,-2152.5 456.25,-2152.5 541.25,-2152.5 541.25,-2152.5 547.25,-2152.5 553.25,-2158.5 553.25,-2164.5 553.25,-2164.5 553.25,-2176.5 553.25,-2176.5 553.25,-2182.5 547.25,-2188.5 541.25,-2188.5"/>
<text xml:space="preserve" text-anchor="middle" x="498.75" y="-2173.75" font-family="sans" font-size="10.00">10: rs_s_copy (view)</text>
<text xml:space="preserve" text-anchor="middle" x="498.75" y="-2161" font-family="sans" font-size="10.00">VIEW | i32 | 1x1x1x1</text>
</g>
<!-- n10&#45;&gt;n12 -->
<g id="edge6" class="edge">
<title>n10&#45;&gt;n12</title>
<path fill="none" stroke="#94a3b8" d="M457.05,-2152.16C445.75,-2146.95 433.69,-2140.9 423,-2134.5 400.1,-2120.79 376.09,-2102.65 358.04,-2088.13"/>
<polygon fill="#94a3b8" stroke="#94a3b8" points="360.32,-2085.47 350.36,-2081.87 355.9,-2090.9 360.32,-2085.47"/>
<text xml:space="preserve" text-anchor="middle" x="426.38" y="-2111.45" font-family="Times New Roman,serif" font-size="14.00">1</text>
</g>
<!-- n30 -->
<g id="node18" class="node">
<title>n30</title>
<path fill="#e2e8f0" stroke="black" d="M636.88,-2080.5C636.88,-2080.5 498.62,-2080.5 498.62,-2080.5 492.62,-2080.5 486.62,-2074.5 486.62,-2068.5 486.62,-2068.5 486.62,-2056.5 486.62,-2056.5 486.62,-2050.5 492.62,-2044.5 498.62,-2044.5 498.62,-2044.5 636.88,-2044.5 636.88,-2044.5 642.88,-2044.5 648.88,-2050.5 648.88,-2056.5 648.88,-2056.5 648.88,-2068.5 648.88,-2068.5 648.88,-2074.5 642.88,-2080.5 636.88,-2080.5"/>
<text xml:space="preserve" text-anchor="middle" x="567.75" y="-2065.75" font-family="sans" font-size="10.00">30: node_23</text>
<text xml:space="preserve" text-anchor="middle" x="567.75" y="-2053" font-family="sans" font-size="10.00">GET_ROWS | f32 | 262144x1x1x1</text>
</g>
<!-- n10&#45;&gt;n30 -->
<g id="edge20" class="edge">
<title>n10&#45;&gt;n30</title>
<path fill="none" stroke="#94a3b8" d="M509.84,-2152.47C520.74,-2135.72 537.54,-2109.91 550.24,-2090.39"/>
<polygon fill="#94a3b8" stroke="#94a3b8" points="553.11,-2092.4 555.64,-2082.11 547.25,-2088.58 553.11,-2092.4"/>
<text xml:space="preserve" text-anchor="middle" x="546.84" y="-2111.45" font-family="Times New Roman,serif" font-size="14.00">1</text>
</g>
<!-- n17 -->
<g id="node9" class="node">
<title>n17</title>
<path fill="#f1f5f9" stroke="black" d="M393.38,-1992C393.38,-1992 276.12,-1992 276.12,-1992 270.12,-1992 264.12,-1986 264.12,-1980 264.12,-1980 264.12,-1968 264.12,-1968 264.12,-1962 270.12,-1956 276.12,-1956 276.12,-1956 393.38,-1956 393.38,-1956 399.38,-1956 405.38,-1962 405.38,-1968 405.38,-1968 405.38,-1980 405.38,-1980 405.38,-1986 399.38,-1992 393.38,-1992"/>
<text xml:space="preserve" text-anchor="middle" x="334.75" y="-1977.25" font-family="sans" font-size="10.00">17: conv_states_reshaped&#45;0</text>
<text xml:space="preserve" text-anchor="middle" x="334.75" y="-1964.5" font-family="sans" font-size="10.00">RESHAPE | f32 | 3x6144x1x1</text>
</g>
<!-- n12&#45;&gt;n17 -->
<g id="edge7" class="edge">
<title>n12&#45;&gt;n17</title>
<path fill="none" stroke="#94a3b8" d="M329.94,-2044.41C330.74,-2032.76 331.83,-2017.05 332.77,-2003.52"/>
<polygon fill="#94a3b8" stroke="#94a3b8" points="336.24,-2004.08 333.44,-1993.86 329.26,-2003.59 336.24,-2004.08"/>
<text xml:space="preserve" text-anchor="middle" x="335.66" y="-2013.2" font-family="Times New Roman,serif" font-size="14.00">0</text>
</g>
<!-- n22 -->
<g id="node14" class="node">
<title>n22</title>
<path fill="#e2e8f0" stroke="black" d="M410.75,-1884C410.75,-1884 280.75,-1884 280.75,-1884 274.75,-1884 268.75,-1878 268.75,-1872 268.75,-1872 268.75,-1860 268.75,-1860 268.75,-1854 274.75,-1848 280.75,-1848 280.75,-1848 410.75,-1848 410.75,-1848 416.75,-1848 422.75,-1854 422.75,-1860 422.75,-1860 422.75,-1872 422.75,-1872 422.75,-1878 416.75,-1884 410.75,-1884"/>
<text xml:space="preserve" text-anchor="middle" x="345.75" y="-1869.25" font-family="sans" font-size="10.00">22: conv_input&#45;0</text>
<text xml:space="preserve" text-anchor="middle" x="345.75" y="-1856.5" font-family="sans" font-size="10.00">CONCAT | f32 | 8195x6144x1x1</text>
</g>
<!-- n17&#45;&gt;n22 -->
<g id="edge13" class="edge">
<title>n17&#45;&gt;n22</title>
<path fill="none" stroke="#94a3b8" d="M336.52,-1955.97C338.2,-1939.76 340.76,-1915.06 342.76,-1895.79"/>
<polygon fill="#94a3b8" stroke="#94a3b8" points="346.24,-1896.15 343.79,-1885.85 339.28,-1895.43 346.24,-1896.15"/>
<text xml:space="preserve" text-anchor="middle" x="345.25" y="-1914.95" font-family="Times New Roman,serif" font-size="14.00">0</text>
</g>
<!-- n20 -->
<g id="node12" class="node">
<title>n20</title>
<path fill="#f1f5f9" stroke="black" d="M812.25,-2080.5C812.25,-2080.5 679.25,-2080.5 679.25,-2080.5 673.25,-2080.5 667.25,-2074.5 667.25,-2068.5 667.25,-2068.5 667.25,-2056.5 667.25,-2056.5 667.25,-2050.5 673.25,-2044.5 679.25,-2044.5 679.25,-2044.5 812.25,-2044.5 812.25,-2044.5 818.25,-2044.5 824.25,-2050.5 824.25,-2056.5 824.25,-2056.5 824.25,-2068.5 824.25,-2068.5 824.25,-2074.5 818.25,-2080.5 812.25,-2080.5"/>
<text xml:space="preserve" text-anchor="middle" x="745.75" y="-2065.75" font-family="sans" font-size="10.00">20: linear_attn_qkv_mixed&#45;0</text>
<text xml:space="preserve" text-anchor="middle" x="745.75" y="-2053" font-family="sans" font-size="10.00">RESHAPE | f32 | 6144x8192x1x1</text>
</g>
<!-- n18&#45;&gt;n20 -->
<g id="edge10" class="edge">
<title>n18&#45;&gt;n20</title>
<path fill="none" stroke="#94a3b8" d="M740.71,-2152.47C741.63,-2136.26 743.03,-2111.56 744.12,-2092.29"/>
<polygon fill="#94a3b8" stroke="#94a3b8" points="747.61,-2092.53 744.68,-2082.35 740.62,-2092.14 747.61,-2092.53"/>
<text xml:space="preserve" text-anchor="middle" x="747.01" y="-2111.45" font-family="Times New Roman,serif" font-size="14.00">0</text>
</g>
<!-- n21 -->
<g id="node13" class="node">
<title>n21</title>
<path fill="#f1f5f9" stroke="black" d="M581.62,-1992C581.62,-1992 435.88,-1992 435.88,-1992 429.88,-1992 423.88,-1986 423.88,-1980 423.88,-1980 423.88,-1968 423.88,-1968 423.88,-1962 429.88,-1956 435.88,-1956 435.88,-1956 581.62,-1956 581.62,-1956 587.62,-1956 593.62,-1962 593.62,-1968 593.62,-1968 593.62,-1980 593.62,-1980 593.62,-1986 587.62,-1992 581.62,-1992"/>
<text xml:space="preserve" text-anchor="middle" x="508.75" y="-1977.25" font-family="sans" font-size="10.00">21: qkv_mixed_transposed&#45;0</text>
<text xml:space="preserve" text-anchor="middle" x="508.75" y="-1964.5" font-family="sans" font-size="10.00">TRANSPOSE | f32 | 8192x6144x1x1</text>
</g>
<!-- n18&#45;&gt;n21 -->
<g id="edge12" class="edge">
<title>n18&#45;&gt;n21</title>
<path fill="none" stroke="#94a3b8" stroke-dasharray="5,2" d="M659.12,-2166.93C615.91,-2163.07 562.69,-2154.24 518.75,-2134.5 484.26,-2119 469.16,-2114.69 453,-2080.5 439.85,-2052.68 460.73,-2021.63 480.57,-2000.46"/>
<polygon fill="#94a3b8" stroke="#94a3b8" points="483.02,-2002.96 487.56,-1993.38 478.04,-1998.04 483.02,-2002.96"/>
<text xml:space="preserve" text-anchor="middle" x="465.38" y="-2057.45" font-family="Times New Roman,serif" font-size="14.00">alias</text>
</g>
<!-- n19 -->
<g id="node11" class="node">
<title>n19</title>
<path fill="#f1f5f9" stroke="black" d="M801.25,-2277C801.25,-2277 674.25,-2277 674.25,-2277 668.25,-2277 662.25,-2271 662.25,-2265 662.25,-2265 662.25,-2253 662.25,-2253 662.25,-2247 668.25,-2241 674.25,-2241 674.25,-2241 801.25,-2241 801.25,-2241 807.25,-2241 813.25,-2247 813.25,-2253 813.25,-2253 813.25,-2265 813.25,-2265 813.25,-2271 807.25,-2277 801.25,-2277"/>
<text xml:space="preserve" text-anchor="middle" x="737.75" y="-2262.25" font-family="sans" font-size="10.00">19: blk.0.attn_qkv.weight</text>
<text xml:space="preserve" text-anchor="middle" x="737.75" y="-2249.5" font-family="sans" font-size="10.00">NONE | q5_K | 2048x6144x1x1</text>
</g>
<!-- n19&#45;&gt;n18 -->
<g id="edge8" class="edge">
<title>n19&#45;&gt;n18</title>
<path fill="none" stroke="#94a3b8" d="M738.15,-2240.91C738.41,-2229.26 738.78,-2213.55 739.09,-2200.02"/>
<polygon fill="#94a3b8" stroke="#94a3b8" points="742.58,-2200.44 739.31,-2190.36 735.58,-2200.28 742.58,-2200.44"/>
<text xml:space="preserve" text-anchor="middle" x="742.3" y="-2209.7" font-family="Times New Roman,serif" font-size="14.00">0</text>
</g>
<!-- n20&#45;&gt;n21 -->
<g id="edge11" class="edge">
<title>n20&#45;&gt;n21</title>
<path fill="none" stroke="#94a3b8" d="M698.07,-2044.1C660.31,-2030.32 607.39,-2011 567.09,-1996.29"/>
<polygon fill="#94a3b8" stroke="#94a3b8" points="568.36,-1993.03 557.77,-1992.89 565.96,-1999.61 568.36,-1993.03"/>
<text xml:space="preserve" text-anchor="middle" x="651.85" y="-2013.2" font-family="Times New Roman,serif" font-size="14.00">0</text>
</g>
<!-- n21&#45;&gt;n22 -->
<g id="edge14" class="edge">
<title>n21&#45;&gt;n22</title>
<path fill="none" stroke="#94a3b8" d="M482.2,-1955.73C454.93,-1938 412.3,-1910.28 381.95,-1890.54"/>
<polygon fill="#94a3b8" stroke="#94a3b8" points="384.12,-1887.78 373.83,-1885.26 380.31,-1893.65 384.12,-1887.78"/>
<text xml:space="preserve" text-anchor="middle" x="454.75" y="-1914.95" font-family="Times New Roman,serif" font-size="14.00">1</text>
</g>
<!-- n23 -->
<g id="node15" class="node">
<title>n23</title>
<path fill="#f1f5f9" stroke="black" d="M374.5,-1776C374.5,-1776 273,-1776 273,-1776 267,-1776 261,-1770 261,-1764 261,-1764 261,-1752 261,-1752 261,-1746 267,-1740 273,-1740 273,-1740 374.5,-1740 374.5,-1740 380.5,-1740 386.5,-1746 386.5,-1752 386.5,-1752 386.5,-1764 386.5,-1764 386.5,-1770 380.5,-1776 374.5,-1776"/>
<text xml:space="preserve" text-anchor="middle" x="323.75" y="-1761.25" font-family="sans" font-size="10.00">23: conv_state_last&#45;0</text>
<text xml:space="preserve" text-anchor="middle" x="323.75" y="-1748.5" font-family="sans" font-size="10.00">VIEW | f32 | 3x6144x1x1</text>
</g>
<!-- n22&#45;&gt;n23 -->
<g id="edge15" class="edge">
<title>n22&#45;&gt;n23</title>
<path fill="none" stroke="#94a3b8" d="M342.22,-1847.97C338.84,-1831.69 333.68,-1806.82 329.67,-1787.52"/>
<polygon fill="#94a3b8" stroke="#94a3b8" points="333.12,-1786.9 327.66,-1777.82 326.26,-1788.33 333.12,-1786.9"/>
<text xml:space="preserve" text-anchor="middle" x="341.38" y="-1806.95" font-family="Times New Roman,serif" font-size="14.00">0</text>
</g>
<!-- n34 -->
<g id="node19" class="node">
<title>n34</title>
<path fill="#ccfbf1" stroke="black" d="M582.75,-1776C582.75,-1776 440.75,-1776 440.75,-1776 434.75,-1776 428.75,-1770 428.75,-1764 428.75,-1764 428.75,-1752 428.75,-1752 428.75,-1746 434.75,-1740 440.75,-1740 440.75,-1740 582.75,-1740 582.75,-1740 588.75,-1740 594.75,-1746 594.75,-1752 594.75,-1752 594.75,-1764 594.75,-1764 594.75,-1770 588.75,-1776 582.75,-1776"/>
<text xml:space="preserve" text-anchor="middle" x="511.75" y="-1761.25" font-family="sans" font-size="10.00">34: conv_output_raw&#45;0</text>
<text xml:space="preserve" text-anchor="middle" x="511.75" y="-1748.5" font-family="sans" font-size="10.00">SSM_CONV | f32 | 6144x8192x1x1</text>
</g>
<!-- n22&#45;&gt;n34 -->
<g id="edge21" class="edge">
<title>n22&#45;&gt;n34</title>
<path fill="none" stroke="#94a3b8" d="M372.79,-1847.73C400.56,-1830 443.98,-1802.28 474.89,-1782.54"/>
<polygon fill="#94a3b8" stroke="#94a3b8" points="476.63,-1785.58 483.17,-1777.25 472.86,-1779.68 476.63,-1785.58"/>
<text xml:space="preserve" text-anchor="middle" x="456.69" y="-1806.95" font-family="Times New Roman,serif" font-size="14.00">0</text>
</g>
<!-- n23&#45;&gt;n25 -->
<g id="edge17" class="edge">
<title>n23&#45;&gt;n25</title>
<path fill="none" stroke="#94a3b8" d="M307.36,-1739.97C290.88,-1722.84 265.26,-1696.22 246.34,-1676.56"/>
<polygon fill="#94a3b8" stroke="#94a3b8" points="248.94,-1674.21 239.49,-1669.43 243.9,-1679.06 248.94,-1674.21"/>
<text xml:space="preserve" text-anchor="middle" x="291.22" y="-1698.95" font-family="Times New Roman,serif" font-size="14.00">0</text>
</g>
<!-- n24&#45;&gt;n25 -->
<g id="edge18" class="edge">
<title>n24&#45;&gt;n25</title>
<path fill="none" stroke="#94a3b8" d="M151.8,-2098.22C155.93,-2079.04 161.75,-2047.11 161.75,-2019.25 161.75,-2019.25 161.75,-2019.25 161.75,-1757 161.75,-1726.74 180.49,-1697.19 197.03,-1677.01"/>
<polygon fill="#94a3b8" stroke="#94a3b8" points="199.55,-1679.45 203.41,-1669.58 194.24,-1674.89 199.55,-1679.45"/>
<text xml:space="preserve" text-anchor="middle" x="165.12" y="-1914.95" font-family="Times New Roman,serif" font-size="14.00">1</text>
</g>
<!-- n57 -->
<g id="node42" class="node">
<title>n57</title>
<path fill="#f1f5f9" stroke="black" d="M720.62,-1830C720.62,-1830 592.88,-1830 592.88,-1830 586.88,-1830 580.88,-1824 580.88,-1818 580.88,-1818 580.88,-1806 580.88,-1806 580.88,-1800 586.88,-1794 592.88,-1794 592.88,-1794 720.62,-1794 720.62,-1794 726.62,-1794 732.62,-1800 732.62,-1806 732.62,-1806 732.62,-1818 732.62,-1818 732.62,-1824 726.62,-1830 720.62,-1830"/>
<text xml:space="preserve" text-anchor="middle" x="656.75" y="-1815.25" font-family="sans" font-size="10.00">57: state_predelta&#45;0</text>
<text xml:space="preserve" text-anchor="middle" x="656.75" y="-1802.5" font-family="sans" font-size="10.00">RESHAPE | f32 | 128x128x16x1</text>
</g>
<!-- n30&#45;&gt;n57 -->
<g id="edge44" class="edge">
<title>n30&#45;&gt;n57</title>
<path fill="none" stroke="#94a3b8" d="M577.53,-2044.18C585.08,-2030.35 595.44,-2010.32 602.75,-1992 623.45,-1940.13 640.72,-1877.13 649.82,-1841.39"/>
<polygon fill="#94a3b8" stroke="#94a3b8" points="653.17,-1842.39 652.21,-1831.84 646.38,-1840.68 653.17,-1842.39"/>
<text xml:space="preserve" text-anchor="middle" x="619.04" y="-1968.95" font-family="Times New Roman,serif" font-size="14.00">0</text>
</g>
<!-- n36 -->
<g id="node21" class="node">
<title>n36</title>
<path fill="#fef3c7" stroke="black" d="M568.88,-1668C568.88,-1668 454.62,-1668 454.62,-1668 448.62,-1668 442.62,-1662 442.62,-1656 442.62,-1656 442.62,-1644 442.62,-1644 442.62,-1638 448.62,-1632 454.62,-1632 454.62,-1632 568.88,-1632 568.88,-1632 574.88,-1632 580.88,-1638 580.88,-1644 580.88,-1644 580.88,-1656 580.88,-1656 580.88,-1662 574.88,-1668 568.88,-1668"/>
<text xml:space="preserve" text-anchor="middle" x="511.75" y="-1653.25" font-family="sans" font-size="10.00">36: conv_output_silu&#45;0</text>
<text xml:space="preserve" text-anchor="middle" x="511.75" y="-1640.5" font-family="sans" font-size="10.00">SILU | f32 | 6144x8192x1x1</text>
</g>
<!-- n34&#45;&gt;n36 -->
<g id="edge23" class="edge">
<title>n34&#45;&gt;n36</title>
<path fill="none" stroke="#94a3b8" d="M511.75,-1739.97C511.75,-1723.76 511.75,-1699.06 511.75,-1679.79"/>
<polygon fill="#94a3b8" stroke="#94a3b8" points="515.25,-1679.85 511.75,-1669.85 508.25,-1679.85 515.25,-1679.85"/>
<text xml:space="preserve" text-anchor="middle" x="515.12" y="-1698.95" font-family="Times New Roman,serif" font-size="14.00">0</text>
</g>
<!-- n35 -->
<g id="node20" class="node">
<title>n35</title>
<path fill="#f1f5f9" stroke="black" d="M570.75,-1884C570.75,-1884 452.75,-1884 452.75,-1884 446.75,-1884 440.75,-1878 440.75,-1872 440.75,-1872 440.75,-1860 440.75,-1860 440.75,-1854 446.75,-1848 452.75,-1848 452.75,-1848 570.75,-1848 570.75,-1848 576.75,-1848 582.75,-1854 582.75,-1860 582.75,-1860 582.75,-1872 582.75,-1872 582.75,-1878 576.75,-1884 570.75,-1884"/>
<text xml:space="preserve" text-anchor="middle" x="511.75" y="-1869.25" font-family="sans" font-size="10.00">35: blk.0.ssm_conv1d.weight</text>
<text xml:space="preserve" text-anchor="middle" x="511.75" y="-1856.5" font-family="sans" font-size="10.00">NONE | f32 | 4x6144x1x1</text>
</g>
<!-- n35&#45;&gt;n34 -->
<g id="edge22" class="edge">
<title>n35&#45;&gt;n34</title>
<path fill="none" stroke="#94a3b8" d="M511.75,-1847.97C511.75,-1831.76 511.75,-1807.06 511.75,-1787.79"/>
<polygon fill="#94a3b8" stroke="#94a3b8" points="515.25,-1787.85 511.75,-1777.85 508.25,-1787.85 515.25,-1787.85"/>
<text xml:space="preserve" text-anchor="middle" x="515.12" y="-1806.95" font-family="Times New Roman,serif" font-size="14.00">1</text>
</g>
<!-- n37 -->
<g id="node22" class="node">
<title>n37</title>
<path fill="#f1f5f9" stroke="black" d="M422.38,-1560C422.38,-1560 305.12,-1560 305.12,-1560 299.12,-1560 293.12,-1554 293.12,-1548 293.12,-1548 293.12,-1536 293.12,-1536 293.12,-1530 299.12,-1524 305.12,-1524 305.12,-1524 422.38,-1524 422.38,-1524 428.38,-1524 434.38,-1530 434.38,-1536 434.38,-1536 434.38,-1548 434.38,-1548 434.38,-1554 428.38,-1560 422.38,-1560"/>
<text xml:space="preserve" text-anchor="middle" x="363.75" y="-1545.25" font-family="sans" font-size="10.00">37: q_conv&#45;0</text>
<text xml:space="preserve" text-anchor="middle" x="363.75" y="-1532.5" font-family="sans" font-size="10.00">VIEW | f32 | 128x16x8192x1</text>
</g>
<!-- n36&#45;&gt;n37 -->
<g id="edge24" class="edge">
<title>n36&#45;&gt;n37</title>
<path fill="none" stroke="#94a3b8" d="M487.64,-1631.73C463.02,-1614.1 424.61,-1586.59 397.09,-1566.88"/>
<polygon fill="#94a3b8" stroke="#94a3b8" points="399.25,-1564.12 389.08,-1561.14 395.17,-1569.81 399.25,-1564.12"/>
<text xml:space="preserve" text-anchor="middle" x="463.03" y="-1590.95" font-family="Times New Roman,serif" font-size="14.00">0</text>
</g>
<!-- n40 -->
<g id="node25" class="node">
<title>n40</title>
<path fill="#f1f5f9" stroke="black" d="M581.38,-1560C581.38,-1560 464.12,-1560 464.12,-1560 458.12,-1560 452.12,-1554 452.12,-1548 452.12,-1548 452.12,-1536 452.12,-1536 452.12,-1530 458.12,-1524 464.12,-1524 464.12,-1524 581.38,-1524 581.38,-1524 587.38,-1524 593.38,-1530 593.38,-1536 593.38,-1536 593.38,-1548 593.38,-1548 593.38,-1554 587.38,-1560 581.38,-1560"/>
<text xml:space="preserve" text-anchor="middle" x="522.75" y="-1545.25" font-family="sans" font-size="10.00">40: k_conv&#45;0</text>
<text xml:space="preserve" text-anchor="middle" x="522.75" y="-1532.5" font-family="sans" font-size="10.00">VIEW | f32 | 128x16x8192x1</text>
</g>
<!-- n36&#45;&gt;n40 -->
<g id="edge27" class="edge">
<title>n36&#45;&gt;n40</title>
<path fill="none" stroke="#94a3b8" d="M513.52,-1631.97C515.2,-1615.76 517.76,-1591.06 519.76,-1571.79"/>
<polygon fill="#94a3b8" stroke="#94a3b8" points="523.24,-1572.15 520.79,-1561.85 516.28,-1571.43 523.24,-1572.15"/>
<text xml:space="preserve" text-anchor="middle" x="522.25" y="-1590.95" font-family="Times New Roman,serif" font-size="14.00">0</text>
</g>
<!-- n43 -->
<g id="node28" class="node">
<title>n43</title>
<path fill="#f1f5f9" stroke="black" d="M679.38,-1506C679.38,-1506 562.12,-1506 562.12,-1506 556.12,-1506 550.12,-1500 550.12,-1494 550.12,-1494 550.12,-1482 550.12,-1482 550.12,-1476 556.12,-1470 562.12,-1470 562.12,-1470 679.38,-1470 679.38,-1470 685.38,-1470 691.38,-1476 691.38,-1482 691.38,-1482 691.38,-1494 691.38,-1494 691.38,-1500 685.38,-1506 679.38,-1506"/>
<text xml:space="preserve" text-anchor="middle" x="620.75" y="-1491.25" font-family="sans" font-size="10.00">43: v_conv_predelta&#45;0</text>
<text xml:space="preserve" text-anchor="middle" x="620.75" y="-1478.5" font-family="sans" font-size="10.00">VIEW | f32 | 128x16x8192x1</text>
</g>
<!-- n36&#45;&gt;n43 -->
<g id="edge30" class="edge">
<title>n36&#45;&gt;n43</title>
<path fill="none" stroke="#94a3b8" d="M535.9,-1631.6C556.67,-1615.37 585.88,-1589.3 602.75,-1560 610.21,-1547.04 614.61,-1531.01 617.2,-1517.47"/>
<polygon fill="#94a3b8" stroke="#94a3b8" points="620.61,-1518.27 618.78,-1507.83 613.7,-1517.13 620.61,-1518.27"/>
<text xml:space="preserve" text-anchor="middle" x="593.73" y="-1590.95" font-family="Times New Roman,serif" font-size="14.00">0</text>
</g>
<!-- n38 -->
<g id="node23" class="node">
<title>n38</title>
<path fill="#fef3c7" stroke="black" d="M436.88,-1452C436.88,-1452 292.62,-1452 292.62,-1452 286.62,-1452 280.62,-1446 280.62,-1440 280.62,-1440 280.62,-1428 280.62,-1428 280.62,-1422 286.62,-1416 292.62,-1416 292.62,-1416 436.88,-1416 436.88,-1416 442.88,-1416 448.88,-1422 448.88,-1428 448.88,-1428 448.88,-1440 448.88,-1440 448.88,-1446 442.88,-1452 436.88,-1452"/>
<text xml:space="preserve" text-anchor="middle" x="364.75" y="-1437.25" font-family="sans" font-size="10.00">38: node_30</text>
<text xml:space="preserve" text-anchor="middle" x="364.75" y="-1424.5" font-family="sans" font-size="10.00">RMS_NORM | f32 | 128x16x8192x1</text>
</g>
<!-- n37&#45;&gt;n38 -->
<g id="edge25" class="edge">
<title>n37&#45;&gt;n38</title>
<path fill="none" stroke="#94a3b8" d="M363.91,-1523.97C364.06,-1507.76 364.3,-1483.06 364.48,-1463.79"/>
<polygon fill="#94a3b8" stroke="#94a3b8" points="367.98,-1463.89 364.57,-1453.85 360.98,-1463.82 367.98,-1463.89"/>
<text xml:space="preserve" text-anchor="middle" x="367.77" y="-1482.95" font-family="Times New Roman,serif" font-size="14.00">0</text>
</g>
<!-- n39 -->
<g id="node24" class="node">
<title>n39</title>
<path fill="#fef3c7" stroke="black" d="M448.25,-1363.5C448.25,-1363.5 327.25,-1363.5 327.25,-1363.5 321.25,-1363.5 315.25,-1357.5 315.25,-1351.5 315.25,-1351.5 315.25,-1339.5 315.25,-1339.5 315.25,-1333.5 321.25,-1327.5 327.25,-1327.5 327.25,-1327.5 448.25,-1327.5 448.25,-1327.5 454.25,-1327.5 460.25,-1333.5 460.25,-1339.5 460.25,-1339.5 460.25,-1351.5 460.25,-1351.5 460.25,-1357.5 454.25,-1363.5 448.25,-1363.5"/>
<text xml:space="preserve" text-anchor="middle" x="387.75" y="-1348.75" font-family="sans" font-size="10.00">39: q_conv_predelta&#45;0</text>
<text xml:space="preserve" text-anchor="middle" x="387.75" y="-1336" font-family="sans" font-size="10.00">SCALE | f32 | 128x16x8192x1</text>
</g>
<!-- n38&#45;&gt;n39 -->
<g id="edge26" class="edge">
<title>n38&#45;&gt;n39</title>
<path fill="none" stroke="#94a3b8" d="M369.29,-1415.91C372.42,-1404.14 376.65,-1388.23 380.28,-1374.61"/>
<polygon fill="#94a3b8" stroke="#94a3b8" points="383.56,-1375.88 382.75,-1365.31 376.8,-1374.08 383.56,-1375.88"/>
<text xml:space="preserve" text-anchor="middle" x="381.69" y="-1384.7" font-family="Times New Roman,serif" font-size="14.00">0</text>
</g>
<!-- n58 -->
<g id="node43" class="node">
<title>n58</title>
<path fill="#ede9fe" stroke="black" d="M760.5,-1275C760.5,-1275 581,-1275 581,-1275 575,-1275 569,-1269 569,-1263 569,-1263 569,-1251 569,-1251 569,-1245 575,-1239 581,-1239 581,-1239 760.5,-1239 760.5,-1239 766.5,-1239 772.5,-1245 772.5,-1251 772.5,-1251 772.5,-1263 772.5,-1263 772.5,-1269 766.5,-1275 760.5,-1275"/>
<text xml:space="preserve" text-anchor="middle" x="670.75" y="-1260.25" font-family="sans" font-size="10.00">58: node_46</text>
<text xml:space="preserve" text-anchor="middle" x="670.75" y="-1247.5" font-family="sans" font-size="10.00">GATED_DELTA_NET | f32 | 2048x8320x1x1</text>
</g>
<!-- n39&#45;&gt;n58 -->
<g id="edge45" class="edge">
<title>n39&#45;&gt;n58</title>
<path fill="none" stroke="#94a3b8" d="M444.68,-1327.1C490.35,-1313.14 554.59,-1293.51 602.92,-1278.73"/>
<polygon fill="#94a3b8" stroke="#94a3b8" points="603.92,-1282.09 612.46,-1275.82 601.88,-1275.39 603.92,-1282.09"/>
<text xml:space="preserve" text-anchor="middle" x="557.97" y="-1296.2" font-family="Times New Roman,serif" font-size="14.00">0</text>
</g>
<!-- n41 -->
<g id="node26" class="node">
<title>n41</title>
<path fill="#fef3c7" stroke="black" d="M625.88,-1452C625.88,-1452 481.62,-1452 481.62,-1452 475.62,-1452 469.62,-1446 469.62,-1440 469.62,-1440 469.62,-1428 469.62,-1428 469.62,-1422 475.62,-1416 481.62,-1416 481.62,-1416 625.88,-1416 625.88,-1416 631.88,-1416 637.88,-1422 637.88,-1428 637.88,-1428 637.88,-1440 637.88,-1440 637.88,-1446 631.88,-1452 625.88,-1452"/>
<text xml:space="preserve" text-anchor="middle" x="553.75" y="-1437.25" font-family="sans" font-size="10.00">41: node_33</text>
<text xml:space="preserve" text-anchor="middle" x="553.75" y="-1424.5" font-family="sans" font-size="10.00">RMS_NORM | f32 | 128x16x8192x1</text>
</g>
<!-- n40&#45;&gt;n41 -->
<g id="edge28" class="edge">
<title>n40&#45;&gt;n41</title>
<path fill="none" stroke="#94a3b8" d="M523.77,-1523.65C525.03,-1509.01 527.84,-1487.68 534,-1470 534.89,-1467.44 535.97,-1464.86 537.15,-1462.31"/>
<polygon fill="#94a3b8" stroke="#94a3b8" points="540.19,-1464.05 541.72,-1453.57 533.98,-1460.81 540.19,-1464.05"/>
<text xml:space="preserve" text-anchor="middle" x="537.38" y="-1482.95" font-family="Times New Roman,serif" font-size="14.00">0</text>
</g>
<!-- n42 -->
<g id="node27" class="node">
<title>n42</title>
<path fill="#fef3c7" stroke="black" d="M621.25,-1363.5C621.25,-1363.5 500.25,-1363.5 500.25,-1363.5 494.25,-1363.5 488.25,-1357.5 488.25,-1351.5 488.25,-1351.5 488.25,-1339.5 488.25,-1339.5 488.25,-1333.5 494.25,-1327.5 500.25,-1327.5 500.25,-1327.5 621.25,-1327.5 621.25,-1327.5 627.25,-1327.5 633.25,-1333.5 633.25,-1339.5 633.25,-1339.5 633.25,-1351.5 633.25,-1351.5 633.25,-1357.5 627.25,-1363.5 621.25,-1363.5"/>
<text xml:space="preserve" text-anchor="middle" x="560.75" y="-1348.75" font-family="sans" font-size="10.00">42: k_conv_predelta&#45;0</text>
<text xml:space="preserve" text-anchor="middle" x="560.75" y="-1336" font-family="sans" font-size="10.00">SCALE | f32 | 128x16x8192x1</text>
</g>
<!-- n41&#45;&gt;n42 -->
<g id="edge29" class="edge">
<title>n41&#45;&gt;n42</title>
<path fill="none" stroke="#94a3b8" d="M555.13,-1415.91C556.08,-1404.26 557.35,-1388.55 558.44,-1375.02"/>
<polygon fill="#94a3b8" stroke="#94a3b8" points="561.91,-1375.61 559.22,-1365.36 554.93,-1375.04 561.91,-1375.61"/>
<text xml:space="preserve" text-anchor="middle" x="561.25" y="-1384.7" font-family="Times New Roman,serif" font-size="14.00">0</text>
</g>
<!-- n42&#45;&gt;n58 -->
<g id="edge46" class="edge">
<title>n42&#45;&gt;n58</title>
<path fill="none" stroke="#94a3b8" d="M582.75,-1327.2C599.08,-1314.36 621.59,-1296.66 639.75,-1282.38"/>
<polygon fill="#94a3b8" stroke="#94a3b8" points="641.91,-1285.13 647.6,-1276.2 637.58,-1279.63 641.91,-1285.13"/>
<text xml:space="preserve" text-anchor="middle" x="628.98" y="-1296.2" font-family="Times New Roman,serif" font-size="14.00">1</text>
</g>
<!-- n43&#45;&gt;n58 -->
<g id="edge47" class="edge">
<title>n43&#45;&gt;n58</title>
<path fill="none" stroke="#94a3b8" d="M636.45,-1469.55C640.43,-1464.25 644.27,-1458.18 646.75,-1452 668.95,-1396.57 671.97,-1325.69 671.69,-1286.78"/>
<polygon fill="#94a3b8" stroke="#94a3b8" points="675.19,-1286.79 671.53,-1276.84 668.19,-1286.9 675.19,-1286.79"/>
<text xml:space="preserve" text-anchor="middle" x="668.49" y="-1384.7" font-family="Times New Roman,serif" font-size="14.00">2</text>
</g>
<!-- n46 -->
<g id="node31" class="node">
<title>n46</title>
<path fill="#f1f5f9" stroke="black" d="M1277,-2080.5C1277,-2080.5 1154.5,-2080.5 1154.5,-2080.5 1148.5,-2080.5 1142.5,-2074.5 1142.5,-2068.5 1142.5,-2068.5 1142.5,-2056.5 1142.5,-2056.5 1142.5,-2050.5 1148.5,-2044.5 1154.5,-2044.5 1154.5,-2044.5 1277,-2044.5 1277,-2044.5 1283,-2044.5 1289,-2050.5 1289,-2056.5 1289,-2056.5 1289,-2068.5 1289,-2068.5 1289,-2074.5 1283,-2080.5 1277,-2080.5"/>
<text xml:space="preserve" text-anchor="middle" x="1215.75" y="-2065.75" font-family="sans" font-size="10.00">46: alpha&#45;0</text>
<text xml:space="preserve" text-anchor="middle" x="1215.75" y="-2053" font-family="sans" font-size="10.00">RESHAPE | f32 | 16x8192x1x1</text>
</g>
<!-- n44&#45;&gt;n46 -->
<g id="edge33" class="edge">
<title>n44&#45;&gt;n46</title>
<path fill="none" stroke="#94a3b8" d="M1212.39,-2152.47C1213,-2136.26 1213.94,-2111.56 1214.66,-2092.29"/>
<polygon fill="#94a3b8" stroke="#94a3b8" points="1218.16,-2092.48 1215.04,-2082.35 1211.16,-2092.21 1218.16,-2092.48"/>
<text xml:space="preserve" text-anchor="middle" x="1217.72" y="-2111.45" font-family="Times New Roman,serif" font-size="14.00">0</text>
</g>
<!-- n45 -->
<g id="node30" class="node">
<title>n45</title>
<path fill="#f1f5f9" stroke="black" d="M1270.62,-2277C1270.62,-2277 1154.88,-2277 1154.88,-2277 1148.88,-2277 1142.88,-2271 1142.88,-2265 1142.88,-2265 1142.88,-2253 1142.88,-2253 1142.88,-2247 1148.88,-2241 1154.88,-2241 1154.88,-2241 1270.62,-2241 1270.62,-2241 1276.62,-2241 1282.62,-2247 1282.62,-2253 1282.62,-2253 1282.62,-2265 1282.62,-2265 1282.62,-2271 1276.62,-2277 1270.62,-2277"/>
<text xml:space="preserve" text-anchor="middle" x="1212.75" y="-2262.25" font-family="sans" font-size="10.00">45: blk.0.ssm_alpha.weight</text>
<text xml:space="preserve" text-anchor="middle" x="1212.75" y="-2249.5" font-family="sans" font-size="10.00">NONE | q8_0 | 2048x16x1x1</text>
</g>
<!-- n45&#45;&gt;n44 -->
<g id="edge31" class="edge">
<title>n45&#45;&gt;n44</title>
<path fill="none" stroke="#94a3b8" d="M1212.55,-2240.91C1212.42,-2229.26 1212.24,-2213.55 1212.08,-2200.02"/>
<polygon fill="#94a3b8" stroke="#94a3b8" points="1215.58,-2200.32 1211.97,-2190.36 1208.58,-2200.4 1215.58,-2200.32"/>
<text xml:space="preserve" text-anchor="middle" x="1215.71" y="-2209.7" font-family="Times New Roman,serif" font-size="14.00">0</text>
</g>
<!-- n47 -->
<g id="node32" class="node">
<title>n47</title>
<path fill="#fef3c7" stroke="black" d="M1116.88,-1992C1116.88,-1992 1014.62,-1992 1014.62,-1992 1008.62,-1992 1002.62,-1986 1002.62,-1980 1002.62,-1980 1002.62,-1968 1002.62,-1968 1002.62,-1962 1008.62,-1956 1014.62,-1956 1014.62,-1956 1116.88,-1956 1116.88,-1956 1122.88,-1956 1128.88,-1962 1128.88,-1968 1128.88,-1968 1128.88,-1980 1128.88,-1980 1128.88,-1986 1122.88,-1992 1116.88,-1992"/>
<text xml:space="preserve" text-anchor="middle" x="1065.75" y="-1977.25" font-family="sans" font-size="10.00">47: node_38</text>
<text xml:space="preserve" text-anchor="middle" x="1065.75" y="-1964.5" font-family="sans" font-size="10.00">ADD | f32 | 16x8192x1x1</text>
</g>
<!-- n46&#45;&gt;n47 -->
<g id="edge34" class="edge">
<title>n46&#45;&gt;n47</title>
<path fill="none" stroke="#94a3b8" d="M1181.54,-2044.16C1171.02,-2038.66 1159.46,-2032.47 1149,-2026.5 1133.53,-2017.67 1116.77,-2007.44 1102.37,-1998.43"/>
<polygon fill="#94a3b8" stroke="#94a3b8" points="1104.44,-1995.6 1094.11,-1993.23 1100.71,-2001.52 1104.44,-1995.6"/>
<text xml:space="preserve" text-anchor="middle" x="1152.38" y="-2013.2" font-family="Times New Roman,serif" font-size="14.00">0</text>
</g>
<!-- n49 -->
<g id="node34" class="node">
<title>n49</title>
<path fill="#fef3c7" stroke="black" d="M1116,-1884C1116,-1884 987.5,-1884 987.5,-1884 981.5,-1884 975.5,-1878 975.5,-1872 975.5,-1872 975.5,-1860 975.5,-1860 975.5,-1854 981.5,-1848 987.5,-1848 987.5,-1848 1116,-1848 1116,-1848 1122,-1848 1128,-1854 1128,-1860 1128,-1860 1128,-1872 1128,-1872 1128,-1878 1122,-1884 1116,-1884"/>
<text xml:space="preserve" text-anchor="middle" x="1051.75" y="-1869.25" font-family="sans" font-size="10.00">49: a_softplus&#45;0</text>
<text xml:space="preserve" text-anchor="middle" x="1051.75" y="-1856.5" font-family="sans" font-size="10.00">SOFTPLUS | f32 | 16x8192x1x1</text>
</g>
<!-- n47&#45;&gt;n49 -->
<g id="edge36" class="edge">
<title>n47&#45;&gt;n49</title>
<path fill="none" stroke="#94a3b8" d="M1063.5,-1955.97C1061.35,-1939.69 1058.07,-1914.82 1055.52,-1895.52"/>
<polygon fill="#94a3b8" stroke="#94a3b8" points="1059.02,-1895.3 1054.24,-1885.84 1052.08,-1896.21 1059.02,-1895.3"/>
<text xml:space="preserve" text-anchor="middle" x="1064.2" y="-1914.95" font-family="Times New Roman,serif" font-size="14.00">0</text>
</g>
<!-- n48 -->
<g id="node33" class="node">
<title>n48</title>
<path fill="#f1f5f9" stroke="black" d="M1112,-2080.5C1112,-2080.5 1019.5,-2080.5 1019.5,-2080.5 1013.5,-2080.5 1007.5,-2074.5 1007.5,-2068.5 1007.5,-2068.5 1007.5,-2056.5 1007.5,-2056.5 1007.5,-2050.5 1013.5,-2044.5 1019.5,-2044.5 1019.5,-2044.5 1112,-2044.5 1112,-2044.5 1118,-2044.5 1124,-2050.5 1124,-2056.5 1124,-2056.5 1124,-2068.5 1124,-2068.5 1124,-2074.5 1118,-2080.5 1112,-2080.5"/>
<text xml:space="preserve" text-anchor="middle" x="1065.75" y="-2065.75" font-family="sans" font-size="10.00">48: blk.0.ssm_dt.bias</text>
<text xml:space="preserve" text-anchor="middle" x="1065.75" y="-2053" font-family="sans" font-size="10.00">NONE | f32 | 16x1x1x1</text>
</g>
<!-- n48&#45;&gt;n47 -->
<g id="edge35" class="edge">
<title>n48&#45;&gt;n47</title>
<path fill="none" stroke="#94a3b8" d="M1065.75,-2044.41C1065.75,-2032.76 1065.75,-2017.05 1065.75,-2003.52"/>
<polygon fill="#94a3b8" stroke="#94a3b8" points="1069.25,-2003.86 1065.75,-1993.86 1062.25,-2003.86 1069.25,-2003.86"/>
<text xml:space="preserve" text-anchor="middle" x="1069.12" y="-2013.2" font-family="Times New Roman,serif" font-size="14.00">1</text>
</g>
<!-- n50 -->
<g id="node35" class="node">
<title>n50</title>
<path fill="#fef3c7" stroke="black" d="M945.88,-1776C945.88,-1776 843.62,-1776 843.62,-1776 837.62,-1776 831.62,-1770 831.62,-1764 831.62,-1764 831.62,-1752 831.62,-1752 831.62,-1746 837.62,-1740 843.62,-1740 843.62,-1740 945.88,-1740 945.88,-1740 951.88,-1740 957.88,-1746 957.88,-1752 957.88,-1752 957.88,-1764 957.88,-1764 957.88,-1770 951.88,-1776 945.88,-1776"/>
<text xml:space="preserve" text-anchor="middle" x="894.75" y="-1761.25" font-family="sans" font-size="10.00">50: gate&#45;0</text>
<text xml:space="preserve" text-anchor="middle" x="894.75" y="-1748.5" font-family="sans" font-size="10.00">MUL | f32 | 16x8192x1x1</text>
</g>
<!-- n49&#45;&gt;n50 -->
<g id="edge37" class="edge">
<title>n49&#45;&gt;n50</title>
<path fill="none" stroke="#94a3b8" d="M1026.18,-1847.73C1000.02,-1830.08 959.2,-1802.52 930,-1782.8"/>
<polygon fill="#94a3b8" stroke="#94a3b8" points="932.08,-1779.98 921.83,-1777.28 928.16,-1785.78 932.08,-1779.98"/>
<text xml:space="preserve" text-anchor="middle" x="999.86" y="-1806.95" font-family="Times New Roman,serif" font-size="14.00">0</text>
</g>
<!-- n52 -->
<g id="node37" class="node">
<title>n52</title>
<path fill="#f1f5f9" stroke="black" d="M924,-1614C924,-1614 801.5,-1614 801.5,-1614 795.5,-1614 789.5,-1608 789.5,-1602 789.5,-1602 789.5,-1590 789.5,-1590 789.5,-1584 795.5,-1578 801.5,-1578 801.5,-1578 924,-1578 924,-1578 930,-1578 936,-1584 936,-1590 936,-1590 936,-1602 936,-1602 936,-1608 930,-1614 924,-1614"/>
<text xml:space="preserve" text-anchor="middle" x="862.75" y="-1599.25" font-family="sans" font-size="10.00">52: gate&#45;0 (reshaped)</text>
<text xml:space="preserve" text-anchor="middle" x="862.75" y="-1586.5" font-family="sans" font-size="10.00">RESHAPE | f32 | 1x16x8192x1</text>
</g>
<!-- n50&#45;&gt;n52 -->
<g id="edge39" class="edge">
<title>n50&#45;&gt;n52</title>
<path fill="none" stroke="#94a3b8" d="M887.09,-1739.82C884.85,-1734.23 882.58,-1727.93 881,-1722 872.39,-1689.58 867.55,-1651.27 865.05,-1625.69"/>
<polygon fill="#94a3b8" stroke="#94a3b8" points="868.54,-1625.38 864.15,-1615.74 861.57,-1626.02 868.54,-1625.38"/>
<text xml:space="preserve" text-anchor="middle" x="884.38" y="-1698.95" font-family="Times New Roman,serif" font-size="14.00">0</text>
</g>
<!-- n51 -->
<g id="node36" class="node">
<title>n51</title>
<path fill="#f1f5f9" stroke="black" d="M941,-1884C941,-1884 848.5,-1884 848.5,-1884 842.5,-1884 836.5,-1878 836.5,-1872 836.5,-1872 836.5,-1860 836.5,-1860 836.5,-1854 842.5,-1848 848.5,-1848 848.5,-1848 941,-1848 941,-1848 947,-1848 953,-1854 953,-1860 953,-1860 953,-1872 953,-1872 953,-1878 947,-1884 941,-1884"/>
<text xml:space="preserve" text-anchor="middle" x="894.75" y="-1869.25" font-family="sans" font-size="10.00">51: blk.0.ssm_a</text>
<text xml:space="preserve" text-anchor="middle" x="894.75" y="-1856.5" font-family="sans" font-size="10.00">NONE | f32 | 16x1x1x1</text>
</g>
<!-- n51&#45;&gt;n50 -->
<g id="edge38" class="edge">
<title>n51&#45;&gt;n50</title>
<path fill="none" stroke="#94a3b8" d="M894.75,-1847.97C894.75,-1831.76 894.75,-1807.06 894.75,-1787.79"/>
<polygon fill="#94a3b8" stroke="#94a3b8" points="898.25,-1787.85 894.75,-1777.85 891.25,-1787.85 898.25,-1787.85"/>
<text xml:space="preserve" text-anchor="middle" x="898.12" y="-1806.95" font-family="Times New Roman,serif" font-size="14.00">1</text>
</g>
<!-- n52&#45;&gt;n58 -->
<g id="edge48" class="edge">
<title>n52&#45;&gt;n58</title>
<path fill="none" stroke="#94a3b8" d="M851,-1577.86C838.27,-1557.59 819.75,-1522.36 819.75,-1489 819.75,-1489 819.75,-1489 819.75,-1344.5 819.75,-1312.66 793.98,-1292.34 763.87,-1279.47"/>
<polygon fill="#94a3b8" stroke="#94a3b8" points="765.52,-1276.35 754.94,-1275.94 762.95,-1282.86 765.52,-1276.35"/>
<text xml:space="preserve" text-anchor="middle" x="823.12" y="-1428.95" font-family="Times New Roman,serif" font-size="14.00">3</text>
</g>
<!-- n55 -->
<g id="node40" class="node">
<title>n55</title>
<path fill="#f1f5f9" stroke="black" d="M977,-2080.5C977,-2080.5 854.5,-2080.5 854.5,-2080.5 848.5,-2080.5 842.5,-2074.5 842.5,-2068.5 842.5,-2068.5 842.5,-2056.5 842.5,-2056.5 842.5,-2050.5 848.5,-2044.5 854.5,-2044.5 854.5,-2044.5 977,-2044.5 977,-2044.5 983,-2044.5 989,-2050.5 989,-2056.5 989,-2056.5 989,-2068.5 989,-2068.5 989,-2074.5 983,-2080.5 977,-2080.5"/>
<text xml:space="preserve" text-anchor="middle" x="915.75" y="-2065.75" font-family="sans" font-size="10.00">55: beta&#45;0</text>
<text xml:space="preserve" text-anchor="middle" x="915.75" y="-2053" font-family="sans" font-size="10.00">RESHAPE | f32 | 1x16x8192x1</text>
</g>
<!-- n53&#45;&gt;n55 -->
<g id="edge42" class="edge">
<title>n53&#45;&gt;n55</title>
<path fill="none" stroke="#94a3b8" d="M915.75,-2152.47C915.75,-2136.26 915.75,-2111.56 915.75,-2092.29"/>
<polygon fill="#94a3b8" stroke="#94a3b8" points="919.25,-2092.35 915.75,-2082.35 912.25,-2092.35 919.25,-2092.35"/>
<text xml:space="preserve" text-anchor="middle" x="919.12" y="-2111.45" font-family="Times New Roman,serif" font-size="14.00">0</text>
</g>
<!-- n54 -->
<g id="node39" class="node">
<title>n54</title>
<path fill="#f1f5f9" stroke="black" d="M958.62,-2277C958.62,-2277 842.88,-2277 842.88,-2277 836.88,-2277 830.88,-2271 830.88,-2265 830.88,-2265 830.88,-2253 830.88,-2253 830.88,-2247 836.88,-2241 842.88,-2241 842.88,-2241 958.62,-2241 958.62,-2241 964.62,-2241 970.62,-2247 970.62,-2253 970.62,-2253 970.62,-2265 970.62,-2265 970.62,-2271 964.62,-2277 958.62,-2277"/>
<text xml:space="preserve" text-anchor="middle" x="900.75" y="-2262.25" font-family="sans" font-size="10.00">54: blk.0.ssm_beta.weight</text>
<text xml:space="preserve" text-anchor="middle" x="900.75" y="-2249.5" font-family="sans" font-size="10.00">NONE | q8_0 | 2048x16x1x1</text>
</g>
<!-- n54&#45;&gt;n53 -->
<g id="edge40" class="edge">
<title>n54&#45;&gt;n53</title>
<path fill="none" stroke="#94a3b8" d="M903.71,-2240.91C905.73,-2229.26 908.46,-2213.55 910.8,-2200.02"/>
<polygon fill="#94a3b8" stroke="#94a3b8" points="914.22,-2200.79 912.48,-2190.34 907.33,-2199.6 914.22,-2200.79"/>
<text xml:space="preserve" text-anchor="middle" x="912.97" y="-2209.7" font-family="Times New Roman,serif" font-size="14.00">0</text>
</g>
<!-- n56 -->
<g id="node41" class="node">
<title>n56</title>
<path fill="#fef3c7" stroke="black" d="M836.38,-1938C836.38,-1938 713.12,-1938 713.12,-1938 707.12,-1938 701.12,-1932 701.12,-1926 701.12,-1926 701.12,-1914 701.12,-1914 701.12,-1908 707.12,-1902 713.12,-1902 713.12,-1902 836.38,-1902 836.38,-1902 842.38,-1902 848.38,-1908 848.38,-1914 848.38,-1914 848.38,-1926 848.38,-1926 848.38,-1932 842.38,-1938 836.38,-1938"/>
<text xml:space="preserve" text-anchor="middle" x="774.75" y="-1923.25" font-family="sans" font-size="10.00">56: beta_sigmoid&#45;0</text>
<text xml:space="preserve" text-anchor="middle" x="774.75" y="-1910.5" font-family="sans" font-size="10.00">SIGMOID | f32 | 1x16x8192x1</text>
</g>
<!-- n55&#45;&gt;n56 -->
<g id="edge43" class="edge">
<title>n55&#45;&gt;n56</title>
<path fill="none" stroke="#94a3b8" d="M898.46,-2044.27C873.83,-2019.73 828.48,-1974.54 800.07,-1946.23"/>
<polygon fill="#94a3b8" stroke="#94a3b8" points="802.81,-1944.02 793.25,-1939.44 797.87,-1948.98 802.81,-1944.02"/>
<text xml:space="preserve" text-anchor="middle" x="883.46" y="-2013.2" font-family="Times New Roman,serif" font-size="14.00">0</text>
</g>
<!-- n56&#45;&gt;n58 -->
<g id="edge49" class="edge">
<title>n56&#45;&gt;n58</title>
<path fill="none" stroke="#94a3b8" d="M769.39,-1901.56C763.47,-1880.71 754.75,-1844.65 754.75,-1813 754.75,-1813 754.75,-1813 754.75,-1344.5 754.75,-1318 734.2,-1296.55 713.43,-1281.64"/>
<polygon fill="#94a3b8" stroke="#94a3b8" points="715.45,-1278.78 705.2,-1276.1 711.55,-1284.59 715.45,-1278.78"/>
<text xml:space="preserve" text-anchor="middle" x="758.12" y="-1590.95" font-family="Times New Roman,serif" font-size="14.00">4</text>
</g>
<!-- n57&#45;&gt;n58 -->
<g id="edge50" class="edge">
<title>n57&#45;&gt;n58</title>
<path fill="none" stroke="#94a3b8" d="M670.68,-1793.79C685.47,-1773.74 706.75,-1738.98 706.75,-1705 706.75,-1705 706.75,-1705 706.75,-1344.5 706.75,-1323.35 697.46,-1301.37 688.32,-1284.86"/>
<polygon fill="#94a3b8" stroke="#94a3b8" points="691.58,-1283.5 683.5,-1276.65 685.55,-1287.05 691.58,-1283.5"/>
<text xml:space="preserve" text-anchor="middle" x="710.12" y="-1536.95" font-family="Times New Roman,serif" font-size="14.00">5</text>
</g>
<!-- n59 -->
<g id="node44" class="node">
<title>n59</title>
<path fill="#f1f5f9" stroke="black" d="M726.75,-1186.5C726.75,-1186.5 614.75,-1186.5 614.75,-1186.5 608.75,-1186.5 602.75,-1180.5 602.75,-1174.5 602.75,-1174.5 602.75,-1162.5 602.75,-1162.5 602.75,-1156.5 608.75,-1150.5 614.75,-1150.5 614.75,-1150.5 726.75,-1150.5 726.75,-1150.5 732.75,-1150.5 738.75,-1156.5 738.75,-1162.5 738.75,-1162.5 738.75,-1174.5 738.75,-1174.5 738.75,-1180.5 732.75,-1186.5 726.75,-1186.5"/>
<text xml:space="preserve" text-anchor="middle" x="670.75" y="-1171.75" font-family="sans" font-size="10.00">59: new_state&#45;0</text>
<text xml:space="preserve" text-anchor="middle" x="670.75" y="-1159" font-family="sans" font-size="10.00">VIEW | f32 | 128x128x16x1</text>
</g>
<!-- n58&#45;&gt;n59 -->
<g id="edge51" class="edge">
<title>n58&#45;&gt;n59</title>
<path fill="none" stroke="#94a3b8" d="M670.75,-1238.91C670.75,-1227.26 670.75,-1211.55 670.75,-1198.02"/>
<polygon fill="#94a3b8" stroke="#94a3b8" points="674.25,-1198.36 670.75,-1188.36 667.25,-1198.36 674.25,-1198.36"/>
<text xml:space="preserve" text-anchor="middle" x="674.12" y="-1207.7" font-family="Times New Roman,serif" font-size="14.00">0</text>
</g>
<!-- n62 -->
<g id="node47" class="node">
<title>n62</title>
<path fill="#f1f5f9" stroke="black" d="M572.38,-1186.5C572.38,-1186.5 455.12,-1186.5 455.12,-1186.5 449.12,-1186.5 443.12,-1180.5 443.12,-1174.5 443.12,-1174.5 443.12,-1162.5 443.12,-1162.5 443.12,-1156.5 449.12,-1150.5 455.12,-1150.5 455.12,-1150.5 572.38,-1150.5 572.38,-1150.5 578.38,-1150.5 584.38,-1156.5 584.38,-1162.5 584.38,-1162.5 584.38,-1174.5 584.38,-1174.5 584.38,-1180.5 578.38,-1186.5 572.38,-1186.5"/>
<text xml:space="preserve" text-anchor="middle" x="513.75" y="-1171.75" font-family="sans" font-size="10.00">62: attn_output&#45;0</text>
<text xml:space="preserve" text-anchor="middle" x="513.75" y="-1159" font-family="sans" font-size="10.00">VIEW | f32 | 128x16x8192x1</text>
</g>
<!-- n58&#45;&gt;n62 -->
<g id="edge54" class="edge">
<title>n58&#45;&gt;n62</title>
<path fill="none" stroke="#94a3b8" d="M639.36,-1238.7C615.26,-1225.43 581.77,-1206.98 555.43,-1192.46"/>
<polygon fill="#94a3b8" stroke="#94a3b8" points="557.13,-1189.41 546.68,-1187.65 553.75,-1195.54 557.13,-1189.41"/>
<text xml:space="preserve" text-anchor="middle" x="609.69" y="-1207.7" font-family="Times New Roman,serif" font-size="14.00">0</text>
</g>
<!-- n61 -->
<g id="node46" class="node">
<title>n61</title>
<path fill="#e2e8f0" stroke="black" d="M915.5,-1098C915.5,-1098 730,-1098 730,-1098 724,-1098 718,-1092 718,-1086 718,-1086 718,-1074 718,-1074 718,-1068 724,-1062 730,-1062 730,-1062 915.5,-1062 915.5,-1062 921.5,-1062 927.5,-1068 927.5,-1074 927.5,-1074 927.5,-1086 927.5,-1086 927.5,-1092 921.5,-1098 915.5,-1098"/>
<text xml:space="preserve" text-anchor="middle" x="822.75" y="-1083.25" font-family="sans" font-size="10.00">61: cache_s_l0 (view) (copy of new_state&#45;0)</text>
<text xml:space="preserve" text-anchor="middle" x="822.75" y="-1070.5" font-family="sans" font-size="10.00">CPY | f32 | 262144x1x1x1</text>
</g>
<!-- n59&#45;&gt;n61 -->
<g id="edge52" class="edge">
<title>n59&#45;&gt;n61</title>
<path fill="none" stroke="#94a3b8" d="M701.14,-1150.2C724.47,-1136.93 756.9,-1118.48 782.4,-1103.96"/>
<polygon fill="#94a3b8" stroke="#94a3b8" points="783.87,-1107.15 790.83,-1099.16 780.41,-1101.07 783.87,-1107.15"/>
<text xml:space="preserve" text-anchor="middle" x="763.74" y="-1119.2" font-family="Times New Roman,serif" font-size="14.00">0</text>
</g>
<!-- n60 -->
<g id="node45" class="node">
<title>n60</title>
<path fill="#f1f5f9" stroke="black" d="M880.75,-1186.5C880.75,-1186.5 768.75,-1186.5 768.75,-1186.5 762.75,-1186.5 756.75,-1180.5 756.75,-1174.5 756.75,-1174.5 756.75,-1162.5 756.75,-1162.5 756.75,-1156.5 762.75,-1150.5 768.75,-1150.5 768.75,-1150.5 880.75,-1150.5 880.75,-1150.5 886.75,-1150.5 892.75,-1156.5 892.75,-1162.5 892.75,-1162.5 892.75,-1174.5 892.75,-1174.5 892.75,-1180.5 886.75,-1186.5 880.75,-1186.5"/>
<text xml:space="preserve" text-anchor="middle" x="824.75" y="-1171.75" font-family="sans" font-size="10.00">60: cache_s_l0 (view)</text>
<text xml:space="preserve" text-anchor="middle" x="824.75" y="-1159" font-family="sans" font-size="10.00">VIEW | f32 | 262144x1x1x1</text>
</g>
<!-- n60&#45;&gt;n61 -->
<g id="edge53" class="edge">
<title>n60&#45;&gt;n61</title>
<path fill="none" stroke="#94a3b8" d="M824.35,-1150.41C824.09,-1138.76 823.72,-1123.05 823.41,-1109.52"/>
<polygon fill="#94a3b8" stroke="#94a3b8" points="826.92,-1109.78 823.19,-1099.86 819.92,-1109.94 826.92,-1109.78"/>
<text xml:space="preserve" text-anchor="middle" x="827.3" y="-1119.2" font-family="Times New Roman,serif" font-size="14.00">1</text>
</g>
<!-- n63 -->
<g id="node48" class="node">
<title>n63</title>
<path fill="#fef3c7" stroke="black" d="M585.88,-1098C585.88,-1098 441.62,-1098 441.62,-1098 435.62,-1098 429.62,-1092 429.62,-1086 429.62,-1086 429.62,-1074 429.62,-1074 429.62,-1068 435.62,-1062 441.62,-1062 441.62,-1062 585.88,-1062 585.88,-1062 591.88,-1062 597.88,-1068 597.88,-1074 597.88,-1074 597.88,-1086 597.88,-1086 597.88,-1092 591.88,-1098 585.88,-1098"/>
<text xml:space="preserve" text-anchor="middle" x="513.75" y="-1083.25" font-family="sans" font-size="10.00">63: norm&#45;0</text>
<text xml:space="preserve" text-anchor="middle" x="513.75" y="-1070.5" font-family="sans" font-size="10.00">RMS_NORM | f32 | 128x16x8192x1</text>
</g>
<!-- n62&#45;&gt;n63 -->
<g id="edge55" class="edge">
<title>n62&#45;&gt;n63</title>
<path fill="none" stroke="#94a3b8" d="M513.75,-1150.41C513.75,-1138.76 513.75,-1123.05 513.75,-1109.52"/>
<polygon fill="#94a3b8" stroke="#94a3b8" points="517.25,-1109.86 513.75,-1099.86 510.25,-1109.86 517.25,-1109.86"/>
<text xml:space="preserve" text-anchor="middle" x="517.12" y="-1119.2" font-family="Times New Roman,serif" font-size="14.00">0</text>
</g>
<!-- n64 -->
<g id="node49" class="node">
<title>n64</title>
<path fill="#fef3c7" stroke="black" d="M426.12,-1009.5C426.12,-1009.5 313.38,-1009.5 313.38,-1009.5 307.38,-1009.5 301.38,-1003.5 301.38,-997.5 301.38,-997.5 301.38,-985.5 301.38,-985.5 301.38,-979.5 307.38,-973.5 313.38,-973.5 313.38,-973.5 426.12,-973.5 426.12,-973.5 432.12,-973.5 438.12,-979.5 438.12,-985.5 438.12,-985.5 438.12,-997.5 438.12,-997.5 438.12,-1003.5 432.12,-1009.5 426.12,-1009.5"/>
<text xml:space="preserve" text-anchor="middle" x="369.75" y="-994.75" font-family="sans" font-size="10.00">64: node_52</text>
<text xml:space="preserve" text-anchor="middle" x="369.75" y="-982" font-family="sans" font-size="10.00">MUL | f32 | 128x16x8192x1</text>
</g>
<!-- n63&#45;&gt;n64 -->
<g id="edge56" class="edge">
<title>n63&#45;&gt;n64</title>
<path fill="none" stroke="#94a3b8" d="M484.96,-1061.7C462.88,-1048.44 432.21,-1030.02 408.06,-1015.51"/>
<polygon fill="#94a3b8" stroke="#94a3b8" points="410.17,-1012.7 399.79,-1010.55 406.56,-1018.7 410.17,-1012.7"/>
<text xml:space="preserve" text-anchor="middle" x="458.02" y="-1030.7" font-family="Times New Roman,serif" font-size="14.00">0</text>
</g>
<!-- n70 -->
<g id="node55" class="node">
<title>n70</title>
<path fill="#fef3c7" stroke="black" d="M426.12,-921C426.12,-921 313.38,-921 313.38,-921 307.38,-921 301.38,-915 301.38,-909 301.38,-909 301.38,-897 301.38,-897 301.38,-891 307.38,-885 313.38,-885 313.38,-885 426.12,-885 426.12,-885 432.12,-885 438.12,-891 438.12,-897 438.12,-897 438.12,-909 438.12,-909 438.12,-915 432.12,-921 426.12,-921"/>
<text xml:space="preserve" text-anchor="middle" x="369.75" y="-906.25" font-family="sans" font-size="10.00">70: node_56</text>
<text xml:space="preserve" text-anchor="middle" x="369.75" y="-893.5" font-family="sans" font-size="10.00">MUL | f32 | 128x16x8192x1</text>
</g>
<!-- n64&#45;&gt;n70 -->
<g id="edge62" class="edge">
<title>n64&#45;&gt;n70</title>
<path fill="none" stroke="#94a3b8" d="M369.75,-973.41C369.75,-961.76 369.75,-946.05 369.75,-932.52"/>
<polygon fill="#94a3b8" stroke="#94a3b8" points="373.25,-932.86 369.75,-922.86 366.25,-932.86 373.25,-932.86"/>
<text xml:space="preserve" text-anchor="middle" x="373.12" y="-942.2" font-family="Times New Roman,serif" font-size="14.00">0</text>
</g>
<!-- n65 -->
<g id="node50" class="node">
<title>n65</title>
<path fill="#f1f5f9" stroke="black" d="M399.62,-1098C399.62,-1098 289.88,-1098 289.88,-1098 283.88,-1098 277.88,-1092 277.88,-1086 277.88,-1086 277.88,-1074 277.88,-1074 277.88,-1068 283.88,-1062 289.88,-1062 289.88,-1062 399.62,-1062 399.62,-1062 405.62,-1062 411.62,-1068 411.62,-1074 411.62,-1074 411.62,-1086 411.62,-1086 411.62,-1092 405.62,-1098 399.62,-1098"/>
<text xml:space="preserve" text-anchor="middle" x="344.75" y="-1083.25" font-family="sans" font-size="10.00">65: blk.0.ssm_norm.weight</text>
<text xml:space="preserve" text-anchor="middle" x="344.75" y="-1070.5" font-family="sans" font-size="10.00">NONE | f32 | 128x1x1x1</text>
</g>
<!-- n65&#45;&gt;n64 -->
<g id="edge57" class="edge">
<title>n65&#45;&gt;n64</title>
<path fill="none" stroke="#94a3b8" d="M347.31,-1061.62C349.02,-1051.53 351.58,-1038.66 355,-1027.5 355.74,-1025.09 356.58,-1022.62 357.49,-1020.17"/>
<polygon fill="#94a3b8" stroke="#94a3b8" points="360.66,-1021.68 361.13,-1011.09 354.16,-1019.08 360.66,-1021.68"/>
<text xml:space="preserve" text-anchor="middle" x="358.38" y="-1030.7" font-family="Times New Roman,serif" font-size="14.00">1</text>
</g>
<!-- n68 -->
<g id="node53" class="node">
<title>n68</title>
<path fill="#f1f5f9" stroke="black" d="M1452.25,-2080.5C1452.25,-2080.5 1319.25,-2080.5 1319.25,-2080.5 1313.25,-2080.5 1307.25,-2074.5 1307.25,-2068.5 1307.25,-2068.5 1307.25,-2056.5 1307.25,-2056.5 1307.25,-2050.5 1313.25,-2044.5 1319.25,-2044.5 1319.25,-2044.5 1452.25,-2044.5 1452.25,-2044.5 1458.25,-2044.5 1464.25,-2050.5 1464.25,-2056.5 1464.25,-2056.5 1464.25,-2068.5 1464.25,-2068.5 1464.25,-2074.5 1458.25,-2080.5 1452.25,-2080.5"/>
<text xml:space="preserve" text-anchor="middle" x="1385.75" y="-2065.75" font-family="sans" font-size="10.00">68: z&#45;0 (reshaped)</text>
<text xml:space="preserve" text-anchor="middle" x="1385.75" y="-2053" font-family="sans" font-size="10.00">RESHAPE | f32 | 128x16x8192x1</text>
</g>
<!-- n66&#45;&gt;n68 -->
<g id="edge60" class="edge">
<title>n66&#45;&gt;n68</title>
<path fill="none" stroke="#94a3b8" d="M1385.75,-2152.47C1385.75,-2136.26 1385.75,-2111.56 1385.75,-2092.29"/>
<polygon fill="#94a3b8" stroke="#94a3b8" points="1389.25,-2092.35 1385.75,-2082.35 1382.25,-2092.35 1389.25,-2092.35"/>
<text xml:space="preserve" text-anchor="middle" x="1389.12" y="-2111.45" font-family="Times New Roman,serif" font-size="14.00">0</text>
</g>
<!-- n67 -->
<g id="node52" class="node">
<title>n67</title>
<path fill="#f1f5f9" stroke="black" d="M1449.25,-2277C1449.25,-2277 1322.25,-2277 1322.25,-2277 1316.25,-2277 1310.25,-2271 1310.25,-2265 1310.25,-2265 1310.25,-2253 1310.25,-2253 1310.25,-2247 1316.25,-2241 1322.25,-2241 1322.25,-2241 1449.25,-2241 1449.25,-2241 1455.25,-2241 1461.25,-2247 1461.25,-2253 1461.25,-2253 1461.25,-2265 1461.25,-2265 1461.25,-2271 1455.25,-2277 1449.25,-2277"/>
<text xml:space="preserve" text-anchor="middle" x="1385.75" y="-2262.25" font-family="sans" font-size="10.00">67: blk.0.attn_gate.weight</text>
<text xml:space="preserve" text-anchor="middle" x="1385.75" y="-2249.5" font-family="sans" font-size="10.00">NONE | q4_K | 2048x2048x1x1</text>
</g>
<!-- n67&#45;&gt;n66 -->
<g id="edge58" class="edge">
<title>n67&#45;&gt;n66</title>
<path fill="none" stroke="#94a3b8" d="M1385.75,-2240.91C1385.75,-2229.26 1385.75,-2213.55 1385.75,-2200.02"/>
<polygon fill="#94a3b8" stroke="#94a3b8" points="1389.25,-2200.36 1385.75,-2190.36 1382.25,-2200.36 1389.25,-2200.36"/>
<text xml:space="preserve" text-anchor="middle" x="1389.12" y="-2209.7" font-family="Times New Roman,serif" font-size="14.00">0</text>
</g>
<!-- n69 -->
<g id="node54" class="node">
<title>n69</title>
<path fill="#fef3c7" stroke="black" d="M1022.88,-1722C1022.88,-1722 908.62,-1722 908.62,-1722 902.62,-1722 896.62,-1716 896.62,-1710 896.62,-1710 896.62,-1698 896.62,-1698 896.62,-1692 902.62,-1686 908.62,-1686 908.62,-1686 1022.88,-1686 1022.88,-1686 1028.88,-1686 1034.88,-1692 1034.88,-1698 1034.88,-1698 1034.88,-1710 1034.88,-1710 1034.88,-1716 1028.88,-1722 1022.88,-1722"/>
<text xml:space="preserve" text-anchor="middle" x="965.75" y="-1707.25" font-family="sans" font-size="10.00">69: node_55</text>
<text xml:space="preserve" text-anchor="middle" x="965.75" y="-1694.5" font-family="sans" font-size="10.00">SILU | f32 | 128x16x8192x1</text>
</g>
<!-- n68&#45;&gt;n69 -->
<g id="edge61" class="edge">
<title>n68&#45;&gt;n69</title>
<path fill="none" stroke="#94a3b8" d="M1306.85,-2045.25C1245.15,-2030.19 1169.75,-2005.55 1169.75,-1975 1169.75,-1975 1169.75,-1975 1169.75,-1811 1169.75,-1752.72 1103.38,-1726.44 1046.36,-1714.61"/>
<polygon fill="#94a3b8" stroke="#94a3b8" points="1047.07,-1711.19 1036.59,-1712.72 1045.74,-1718.06 1047.07,-1711.19"/>
<text xml:space="preserve" text-anchor="middle" x="1173.12" y="-1914.95" font-family="Times New Roman,serif" font-size="14.00">0</text>
</g>
<!-- n69&#45;&gt;n70 -->
<g id="edge63" class="edge">
<title>n69&#45;&gt;n70</title>
<path fill="none" stroke="#94a3b8" d="M964.7,-1685.75C963.51,-1664.78 961.75,-1628.31 961.75,-1597 961.75,-1597 961.75,-1597 961.75,-990.5 961.75,-939.37 611.54,-915.72 449.84,-907.53"/>
<polygon fill="#94a3b8" stroke="#94a3b8" points="450.2,-904.04 440.04,-907.04 449.85,-911.03 450.2,-904.04"/>
<text xml:space="preserve" text-anchor="middle" x="965.12" y="-1296.2" font-family="Times New Roman,serif" font-size="14.00">1</text>
</g>
<!-- n71 -->
<g id="node56" class="node">
<title>n71</title>
<path fill="#f1f5f9" stroke="black" d="M427.25,-832.5C427.25,-832.5 294.25,-832.5 294.25,-832.5 288.25,-832.5 282.25,-826.5 282.25,-820.5 282.25,-820.5 282.25,-808.5 282.25,-808.5 282.25,-802.5 288.25,-796.5 294.25,-796.5 294.25,-796.5 427.25,-796.5 427.25,-796.5 433.25,-796.5 439.25,-802.5 439.25,-808.5 439.25,-808.5 439.25,-820.5 439.25,-820.5 439.25,-826.5 433.25,-832.5 427.25,-832.5"/>
<text xml:space="preserve" text-anchor="middle" x="360.75" y="-817.75" font-family="sans" font-size="10.00">71: final_output&#45;0</text>
<text xml:space="preserve" text-anchor="middle" x="360.75" y="-805" font-family="sans" font-size="10.00">RESHAPE | f32 | 2048x8192x1x1</text>
</g>
<!-- n70&#45;&gt;n71 -->
<g id="edge64" class="edge">
<title>n70&#45;&gt;n71</title>
<path fill="none" stroke="#94a3b8" d="M367.97,-884.91C366.76,-873.26 365.12,-857.55 363.72,-844.02"/>
<polygon fill="#94a3b8" stroke="#94a3b8" points="367.23,-843.94 362.71,-834.36 360.27,-844.66 367.23,-843.94"/>
<text xml:space="preserve" text-anchor="middle" x="369.43" y="-853.7" font-family="Times New Roman,serif" font-size="14.00">0</text>
</g>
<!-- n72 -->
<g id="node57" class="node">
<title>n72</title>
<path fill="#dbeafe" stroke="black" d="M253.12,-744C253.12,-744 116.38,-744 116.38,-744 110.38,-744 104.38,-738 104.38,-732 104.38,-732 104.38,-720 104.38,-720 104.38,-714 110.38,-708 116.38,-708 116.38,-708 253.12,-708 253.12,-708 259.12,-708 265.12,-714 265.12,-720 265.12,-720 265.12,-732 265.12,-732 265.12,-738 259.12,-744 253.12,-744"/>
<text xml:space="preserve" text-anchor="middle" x="184.75" y="-729.25" font-family="sans" font-size="10.00">72: linear_attn_out&#45;0</text>
<text xml:space="preserve" text-anchor="middle" x="184.75" y="-716.5" font-family="sans" font-size="10.00">MUL_MAT | f32 | 2048x8192x1x1</text>
</g>
<!-- n71&#45;&gt;n72 -->
<g id="edge66" class="edge">
<title>n71&#45;&gt;n72</title>
<path fill="none" stroke="#94a3b8" d="M325.56,-796.2C298.19,-782.75 260,-763.99 230.3,-749.39"/>
<polygon fill="#94a3b8" stroke="#94a3b8" points="232.06,-746.35 221.54,-745.08 228.97,-752.63 232.06,-746.35"/>
<text xml:space="preserve" text-anchor="middle" x="291.89" y="-765.2" font-family="Times New Roman,serif" font-size="14.00">1</text>
</g>
<!-- n74 -->
<g id="node59" class="node">
<title>n74</title>
<path fill="#f1f5f9" stroke="black" d="M241.25,-655.5C241.25,-655.5 108.25,-655.5 108.25,-655.5 102.25,-655.5 96.25,-649.5 96.25,-643.5 96.25,-643.5 96.25,-631.5 96.25,-631.5 96.25,-625.5 102.25,-619.5 108.25,-619.5 108.25,-619.5 241.25,-619.5 241.25,-619.5 247.25,-619.5 253.25,-625.5 253.25,-631.5 253.25,-631.5 253.25,-643.5 253.25,-643.5 253.25,-649.5 247.25,-655.5 241.25,-655.5"/>
<text xml:space="preserve" text-anchor="middle" x="174.75" y="-640.75" font-family="sans" font-size="10.00">74: linear_attn_out&#45;0 (reshaped)</text>
<text xml:space="preserve" text-anchor="middle" x="174.75" y="-628" font-family="sans" font-size="10.00">RESHAPE | f32 | 2048x8192x1x1</text>
</g>
<!-- n72&#45;&gt;n74 -->
<g id="edge67" class="edge">
<title>n72&#45;&gt;n74</title>
<path fill="none" stroke="#94a3b8" d="M182.77,-707.91C181.43,-696.26 179.61,-680.55 178.05,-667.02"/>
<polygon fill="#94a3b8" stroke="#94a3b8" points="181.55,-666.89 176.93,-657.35 174.6,-667.69 181.55,-666.89"/>
<text xml:space="preserve" text-anchor="middle" x="184.02" y="-676.7" font-family="Times New Roman,serif" font-size="14.00">0</text>
</g>
<!-- n73 -->
<g id="node58" class="node">
<title>n73</title>
<path fill="#f1f5f9" stroke="black" d="M248.25,-832.5C248.25,-832.5 121.25,-832.5 121.25,-832.5 115.25,-832.5 109.25,-826.5 109.25,-820.5 109.25,-820.5 109.25,-808.5 109.25,-808.5 109.25,-802.5 115.25,-796.5 121.25,-796.5 121.25,-796.5 248.25,-796.5 248.25,-796.5 254.25,-796.5 260.25,-802.5 260.25,-808.5 260.25,-808.5 260.25,-820.5 260.25,-820.5 260.25,-826.5 254.25,-832.5 248.25,-832.5"/>
<text xml:space="preserve" text-anchor="middle" x="184.75" y="-817.75" font-family="sans" font-size="10.00">73: blk.0.ssm_out.weight</text>
<text xml:space="preserve" text-anchor="middle" x="184.75" y="-805" font-family="sans" font-size="10.00">NONE | q5_K | 2048x2048x1x1</text>
</g>
<!-- n73&#45;&gt;n72 -->
<g id="edge65" class="edge">
<title>n73&#45;&gt;n72</title>
<path fill="none" stroke="#94a3b8" d="M184.75,-796.41C184.75,-784.76 184.75,-769.05 184.75,-755.52"/>
<polygon fill="#94a3b8" stroke="#94a3b8" points="188.25,-755.86 184.75,-745.86 181.25,-755.86 188.25,-755.86"/>
<text xml:space="preserve" text-anchor="middle" x="188.12" y="-765.2" font-family="Times New Roman,serif" font-size="14.00">0</text>
</g>
<!-- n74&#45;&gt;n75 -->
<g id="edge68" class="edge">
<title>n74&#45;&gt;n75</title>
<path fill="none" stroke="#94a3b8" d="M156.77,-619.41C143.4,-606.7 124.94,-589.16 109.93,-574.89"/>
<polygon fill="#94a3b8" stroke="#94a3b8" points="112.76,-572.75 103.1,-568.39 107.94,-577.82 112.76,-572.75"/>
<text xml:space="preserve" text-anchor="middle" x="140.78" y="-588.2" font-family="Times New Roman,serif" font-size="14.00">0</text>
</g>
<!-- n76 -->
<g id="node61" class="node">
<title>n76</title>
<path fill="#fef3c7" stroke="black" d="M447.88,-478.5C447.88,-478.5 303.62,-478.5 303.62,-478.5 297.62,-478.5 291.62,-472.5 291.62,-466.5 291.62,-466.5 291.62,-454.5 291.62,-454.5 291.62,-448.5 297.62,-442.5 303.62,-442.5 303.62,-442.5 447.88,-442.5 447.88,-442.5 453.88,-442.5 459.88,-448.5 459.88,-454.5 459.88,-454.5 459.88,-466.5 459.88,-466.5 459.88,-472.5 453.88,-478.5 447.88,-478.5"/>
<text xml:space="preserve" text-anchor="middle" x="375.75" y="-463.75" font-family="sans" font-size="10.00">76: norm&#45;0</text>
<text xml:space="preserve" text-anchor="middle" x="375.75" y="-451" font-family="sans" font-size="10.00">RMS_NORM | f32 | 2048x8192x1x1</text>
</g>
<!-- n75&#45;&gt;n76 -->
<g id="edge70" class="edge">
<title>n75&#45;&gt;n76</title>
<path fill="none" stroke="#94a3b8" d="M142.49,-530.6C189.71,-516.61 256.17,-496.92 306.08,-482.14"/>
<polygon fill="#94a3b8" stroke="#94a3b8" points="307.06,-485.5 315.65,-479.3 305.07,-478.79 307.06,-485.5"/>
<text xml:space="preserve" text-anchor="middle" x="259.28" y="-499.7" font-family="Times New Roman,serif" font-size="14.00">0</text>
</g>
<!-- n86 -->
<g id="node71" class="node">
<title>n86</title>
<path fill="#fef3c7" stroke="black" d="M140.12,-36C140.12,-36 27.37,-36 27.37,-36 21.38,-36 15.38,-30 15.38,-24 15.38,-24 15.38,-12 15.38,-12 15.38,-6 21.38,0 27.38,0 27.38,0 140.12,0 140.12,0 146.12,0 152.12,-6 152.12,-12 152.12,-12 152.12,-24 152.12,-24 152.12,-30 146.12,-36 140.12,-36"/>
<text xml:space="preserve" text-anchor="middle" x="83.75" y="-21.25" font-family="sans" font-size="10.00">86: l_out&#45;0</text>
<text xml:space="preserve" text-anchor="middle" x="83.75" y="-8.5" font-family="sans" font-size="10.00">ADD | f32 | 2048x8192x1x1</text>
</g>
<!-- n75&#45;&gt;n86 -->
<g id="edge82" class="edge">
<title>n75&#45;&gt;n86</title>
<path fill="none" stroke="#94a3b8" d="M78.6,-530.61C73.92,-513.27 67.75,-485.78 67.75,-461.5 67.75,-461.5 67.75,-461.5 67.75,-105.5 67.75,-85.77 71.82,-63.93 75.86,-47.12"/>
<polygon fill="#94a3b8" stroke="#94a3b8" points="79.15,-48.41 78.23,-37.85 72.36,-46.68 79.15,-48.41"/>
<text xml:space="preserve" text-anchor="middle" x="71.12" y="-278.45" font-family="Times New Roman,serif" font-size="14.00">1</text>
</g>
<!-- n77 -->
<g id="node62" class="node">
<title>n77</title>
<path fill="#fef3c7" stroke="black" d="M404.12,-390C404.12,-390 291.38,-390 291.38,-390 285.38,-390 279.38,-384 279.38,-378 279.38,-378 279.38,-366 279.38,-366 279.38,-360 285.38,-354 291.38,-354 291.38,-354 404.12,-354 404.12,-354 410.12,-354 416.12,-360 416.12,-366 416.12,-366 416.12,-378 416.12,-378 416.12,-384 410.12,-390 404.12,-390"/>
<text xml:space="preserve" text-anchor="middle" x="347.75" y="-375.25" font-family="sans" font-size="10.00">77: attn_post_norm&#45;0</text>
<text xml:space="preserve" text-anchor="middle" x="347.75" y="-362.5" font-family="sans" font-size="10.00">MUL | f32 | 2048x8192x1x1</text>
</g>
<!-- n76&#45;&gt;n77 -->
<g id="edge71" class="edge">
<title>n76&#45;&gt;n77</title>
<path fill="none" stroke="#94a3b8" d="M370.22,-442.41C366.41,-430.64 361.26,-414.73 356.85,-401.11"/>
<polygon fill="#94a3b8" stroke="#94a3b8" points="360.24,-400.23 353.83,-391.79 353.58,-402.38 360.24,-400.23"/>
<text xml:space="preserve" text-anchor="middle" x="367.63" y="-411.2" font-family="Times New Roman,serif" font-size="14.00">0</text>
</g>
<!-- n79 -->
<g id="node64" class="node">
<title>n79</title>
<path fill="#dbeafe" stroke="black" d="M359.12,-301.5C359.12,-301.5 222.38,-301.5 222.38,-301.5 216.38,-301.5 210.38,-295.5 210.38,-289.5 210.38,-289.5 210.38,-277.5 210.38,-277.5 210.38,-271.5 216.38,-265.5 222.38,-265.5 222.38,-265.5 359.12,-265.5 359.12,-265.5 365.12,-265.5 371.12,-271.5 371.12,-277.5 371.12,-277.5 371.12,-289.5 371.12,-289.5 371.12,-295.5 365.12,-301.5 359.12,-301.5"/>
<text xml:space="preserve" text-anchor="middle" x="290.75" y="-286.75" font-family="sans" font-size="10.00">79: ffn_gate&#45;0</text>
<text xml:space="preserve" text-anchor="middle" x="290.75" y="-274" font-family="sans" font-size="10.00">MUL_MAT | f32 | 6144x8192x1x1</text>
</g>
<!-- n77&#45;&gt;n79 -->
<g id="edge74" class="edge">
<title>n77&#45;&gt;n79</title>
<path fill="none" stroke="#94a3b8" d="M336.49,-353.91C328.5,-341.79 317.62,-325.27 308.47,-311.39"/>
<polygon fill="#94a3b8" stroke="#94a3b8" points="311.44,-309.54 303.02,-303.11 305.6,-313.39 311.44,-309.54"/>
<text xml:space="preserve" text-anchor="middle" x="327.73" y="-322.7" font-family="Times New Roman,serif" font-size="14.00">1</text>
</g>
<!-- n81 -->
<g id="node66" class="node">
<title>n81</title>
<path fill="#dbeafe" stroke="black" d="M538.12,-301.5C538.12,-301.5 401.38,-301.5 401.38,-301.5 395.38,-301.5 389.38,-295.5 389.38,-289.5 389.38,-289.5 389.38,-277.5 389.38,-277.5 389.38,-271.5 395.38,-265.5 401.38,-265.5 401.38,-265.5 538.12,-265.5 538.12,-265.5 544.12,-265.5 550.12,-271.5 550.12,-277.5 550.12,-277.5 550.12,-289.5 550.12,-289.5 550.12,-295.5 544.12,-301.5 538.12,-301.5"/>
<text xml:space="preserve" text-anchor="middle" x="469.75" y="-286.75" font-family="sans" font-size="10.00">81: ffn_up&#45;0</text>
<text xml:space="preserve" text-anchor="middle" x="469.75" y="-274" font-family="sans" font-size="10.00">MUL_MAT | f32 | 6144x8192x1x1</text>
</g>
<!-- n77&#45;&gt;n81 -->
<g id="edge76" class="edge">
<title>n77&#45;&gt;n81</title>
<path fill="none" stroke="#94a3b8" d="M372.15,-353.7C390.51,-340.68 415.91,-322.67 436.19,-308.29"/>
<polygon fill="#94a3b8" stroke="#94a3b8" points="438.03,-311.28 444.16,-302.64 433.98,-305.57 438.03,-311.28"/>
<text xml:space="preserve" text-anchor="middle" x="423.05" y="-322.7" font-family="Times New Roman,serif" font-size="14.00">1</text>
</g>
<!-- n78 -->
<g id="node63" class="node">
<title>n78</title>
<path fill="#f1f5f9" stroke="black" d="M261.38,-478.5C261.38,-478.5 108.12,-478.5 108.12,-478.5 102.12,-478.5 96.12,-472.5 96.12,-466.5 96.12,-466.5 96.12,-454.5 96.12,-454.5 96.12,-448.5 102.12,-442.5 108.12,-442.5 108.12,-442.5 261.38,-442.5 261.38,-442.5 267.38,-442.5 273.38,-448.5 273.38,-454.5 273.38,-454.5 273.38,-466.5 273.38,-466.5 273.38,-472.5 267.38,-478.5 261.38,-478.5"/>
<text xml:space="preserve" text-anchor="middle" x="184.75" y="-463.75" font-family="sans" font-size="10.00">78: blk.0.post_attention_norm.weight</text>
<text xml:space="preserve" text-anchor="middle" x="184.75" y="-451" font-family="sans" font-size="10.00">NONE | f32 | 2048x1x1x1</text>
</g>
<!-- n78&#45;&gt;n77 -->
<g id="edge72" class="edge">
<title>n78&#45;&gt;n77</title>
<path fill="none" stroke="#94a3b8" d="M217.34,-442.2C242.47,-428.87 277.44,-410.31 304.84,-395.77"/>
<polygon fill="#94a3b8" stroke="#94a3b8" points="306.4,-398.9 313.6,-391.12 303.12,-392.72 306.4,-398.9"/>
<text xml:space="preserve" text-anchor="middle" x="284.22" y="-411.2" font-family="Times New Roman,serif" font-size="14.00">1</text>
</g>
<!-- n83 -->
<g id="node68" class="node">
<title>n83</title>
<path fill="#fef3c7" stroke="black" d="M409.75,-213C409.75,-213 279.75,-213 279.75,-213 273.75,-213 267.75,-207 267.75,-201 267.75,-201 267.75,-189 267.75,-189 267.75,-183 273.75,-177 279.75,-177 279.75,-177 409.75,-177 409.75,-177 415.75,-177 421.75,-183 421.75,-189 421.75,-189 421.75,-201 421.75,-201 421.75,-207 415.75,-213 409.75,-213"/>
<text xml:space="preserve" text-anchor="middle" x="344.75" y="-198.25" font-family="sans" font-size="10.00">83: ffn_swiglu&#45;0</text>
<text xml:space="preserve" text-anchor="middle" x="344.75" y="-185.5" font-family="sans" font-size="10.00">SWIGLU | f32 | 6144x8192x1x1</text>
</g>
<!-- n79&#45;&gt;n83 -->
<g id="edge77" class="edge">
<title>n79&#45;&gt;n83</title>
<path fill="none" stroke="#94a3b8" d="M301.42,-265.41C308.99,-253.29 319.3,-236.77 327.96,-222.89"/>
<polygon fill="#94a3b8" stroke="#94a3b8" points="330.79,-224.97 333.12,-214.63 324.85,-221.26 330.79,-224.97"/>
<text xml:space="preserve" text-anchor="middle" x="325.96" y="-234.2" font-family="Times New Roman,serif" font-size="14.00">0</text>
</g>
<!-- n80 -->
<g id="node65" class="node">
<title>n80</title>
<path fill="#f1f5f9" stroke="black" d="M249.25,-390C249.25,-390 122.25,-390 122.25,-390 116.25,-390 110.25,-384 110.25,-378 110.25,-378 110.25,-366 110.25,-366 110.25,-360 116.25,-354 122.25,-354 122.25,-354 249.25,-354 249.25,-354 255.25,-354 261.25,-360 261.25,-366 261.25,-366 261.25,-378 261.25,-378 261.25,-384 255.25,-390 249.25,-390"/>
<text xml:space="preserve" text-anchor="middle" x="185.75" y="-375.25" font-family="sans" font-size="10.00">80: blk.0.ffn_gate.weight</text>
<text xml:space="preserve" text-anchor="middle" x="185.75" y="-362.5" font-family="sans" font-size="10.00">NONE | q4_K | 2048x6144x1x1</text>
</g>
<!-- n80&#45;&gt;n79 -->
<g id="edge73" class="edge">
<title>n80&#45;&gt;n79</title>
<path fill="none" stroke="#94a3b8" d="M206.75,-353.7C222.34,-340.86 243.82,-323.16 261.16,-308.88"/>
<polygon fill="#94a3b8" stroke="#94a3b8" points="263.13,-311.79 268.62,-302.73 258.68,-306.39 263.13,-311.79"/>
<text xml:space="preserve" text-anchor="middle" x="251.03" y="-322.7" font-family="Times New Roman,serif" font-size="14.00">0</text>
</g>
<!-- n81&#45;&gt;n83 -->
<g id="edge78" class="edge">
<title>n81&#45;&gt;n83</title>
<path fill="none" stroke="#94a3b8" d="M444.75,-265.2C425.93,-252.18 399.91,-234.17 379.13,-219.79"/>
<polygon fill="#94a3b8" stroke="#94a3b8" points="381.16,-216.94 370.95,-214.13 377.18,-222.7 381.16,-216.94"/>
<text xml:space="preserve" text-anchor="middle" x="421.82" y="-234.2" font-family="Times New Roman,serif" font-size="14.00">1</text>
</g>
<!-- n82 -->
<g id="node67" class="node">
<title>n82</title>
<path fill="#f1f5f9" stroke="black" d="M573.25,-390C573.25,-390 446.25,-390 446.25,-390 440.25,-390 434.25,-384 434.25,-378 434.25,-378 434.25,-366 434.25,-366 434.25,-360 440.25,-354 446.25,-354 446.25,-354 573.25,-354 573.25,-354 579.25,-354 585.25,-360 585.25,-366 585.25,-366 585.25,-378 585.25,-378 585.25,-384 579.25,-390 573.25,-390"/>
<text xml:space="preserve" text-anchor="middle" x="509.75" y="-375.25" font-family="sans" font-size="10.00">82: blk.0.ffn_up.weight</text>
<text xml:space="preserve" text-anchor="middle" x="509.75" y="-362.5" font-family="sans" font-size="10.00">NONE | q4_K | 2048x6144x1x1</text>
</g>
<!-- n82&#45;&gt;n81 -->
<g id="edge75" class="edge">
<title>n82&#45;&gt;n81</title>
<path fill="none" stroke="#94a3b8" d="M501.85,-353.91C496.35,-342.02 488.9,-325.91 482.56,-312.2"/>
<polygon fill="#94a3b8" stroke="#94a3b8" points="485.78,-310.83 478.41,-303.22 479.43,-313.77 485.78,-310.83"/>
<text xml:space="preserve" text-anchor="middle" x="496.71" y="-322.7" font-family="Times New Roman,serif" font-size="14.00">0</text>
</g>
<!-- n84 -->
<g id="node69" class="node">
<title>n84</title>
<path fill="#dbeafe" stroke="black" d="M244.12,-124.5C244.12,-124.5 107.38,-124.5 107.38,-124.5 101.38,-124.5 95.38,-118.5 95.38,-112.5 95.38,-112.5 95.38,-100.5 95.38,-100.5 95.38,-94.5 101.38,-88.5 107.38,-88.5 107.38,-88.5 244.12,-88.5 244.12,-88.5 250.12,-88.5 256.12,-94.5 256.12,-100.5 256.12,-100.5 256.12,-112.5 256.12,-112.5 256.12,-118.5 250.12,-124.5 244.12,-124.5"/>
<text xml:space="preserve" text-anchor="middle" x="175.75" y="-109.75" font-family="sans" font-size="10.00">84: ffn_out&#45;0</text>
<text xml:space="preserve" text-anchor="middle" x="175.75" y="-97" font-family="sans" font-size="10.00">MUL_MAT | f32 | 2048x8192x1x1</text>
</g>
<!-- n83&#45;&gt;n84 -->
<g id="edge80" class="edge">
<title>n83&#45;&gt;n84</title>
<path fill="none" stroke="#94a3b8" d="M310.96,-176.7C284.79,-163.31 248.33,-144.65 219.87,-130.08"/>
<polygon fill="#94a3b8" stroke="#94a3b8" points="221.62,-127.04 211.12,-125.6 218.43,-133.28 221.62,-127.04"/>
<text xml:space="preserve" text-anchor="middle" x="278.76" y="-145.7" font-family="Times New Roman,serif" font-size="14.00">1</text>
</g>
<!-- n84&#45;&gt;n86 -->
<g id="edge81" class="edge">
<title>n84&#45;&gt;n86</title>
<path fill="none" stroke="#94a3b8" d="M157.57,-88.41C144.05,-75.7 125.4,-58.16 110.22,-43.89"/>
<polygon fill="#94a3b8" stroke="#94a3b8" points="112.99,-41.69 103.31,-37.39 108.19,-46.79 112.99,-41.69"/>
<text xml:space="preserve" text-anchor="middle" x="141.37" y="-57.2" font-family="Times New Roman,serif" font-size="14.00">0</text>
</g>
<!-- n85 -->
<g id="node70" class="node">
<title>n85</title>
<path fill="#f1f5f9" stroke="black" d="M237.25,-213C237.25,-213 110.25,-213 110.25,-213 104.25,-213 98.25,-207 98.25,-201 98.25,-201 98.25,-189 98.25,-189 98.25,-183 104.25,-177 110.25,-177 110.25,-177 237.25,-177 237.25,-177 243.25,-177 249.25,-183 249.25,-189 249.25,-189 249.25,-201 249.25,-201 249.25,-207 243.25,-213 237.25,-213"/>
<text xml:space="preserve" text-anchor="middle" x="173.75" y="-198.25" font-family="sans" font-size="10.00">85: blk.0.ffn_down.weight</text>
<text xml:space="preserve" text-anchor="middle" x="173.75" y="-185.5" font-family="sans" font-size="10.00">NONE | q6_K | 6144x2048x1x1</text>
</g>
<!-- n85&#45;&gt;n84 -->
<g id="edge79" class="edge">
<title>n85&#45;&gt;n84</title>
<path fill="none" stroke="#94a3b8" d="M174.15,-176.91C174.41,-165.26 174.78,-149.55 175.09,-136.02"/>
<polygon fill="#94a3b8" stroke="#94a3b8" points="178.58,-136.44 175.31,-126.36 171.58,-136.28 178.58,-136.44"/>
<text xml:space="preserve" text-anchor="middle" x="178.3" y="-145.7" font-family="Times New Roman,serif" font-size="14.00">0</text>
</g>
</g>
</svg>
