<?xml version="1.0" encoding="UTF-8" standalone="no"?>
<!DOCTYPE svg PUBLIC "-//W3C//DTD SVG 1.1//EN"
 "http://www.w3.org/Graphics/SVG/1.1/DTD/svg11.dtd">
<!-- Generated by graphviz version 9.0.0 (20230911.1827)
 -->
<!-- Title: G Pages: 1 -->
<svg width="1495pt" height="2521pt"
 viewBox="0.00 0.00 1495.00 2521.00" xmlns="http://www.w3.org/2000/svg" xmlns:xlink="http://www.w3.org/1999/xlink">
<g id="graph0" class="graph" transform="scale(1 1) rotate(0) translate(4 2517)">
<title>G</title>
<polygon fill="white" stroke="none" points="-4,4 -4,-2517 1491,-2517 1491,4 -4,4"/>
<text text-anchor="middle" x="743.5" y="-2495.7" font-family="sans" font-size="14.00">pp512 decode: layer 0 (plus direct boundary inputs)</text>
<!-- n0 -->
<g id="node1" class="node">
<title>n0</title>
<path fill="#e2e8f0" stroke="black" d="M147.25,-2485.5C147.25,-2485.5 12,-2485.5 12,-2485.5 6,-2485.5 0,-2479.5 0,-2473.5 0,-2473.5 0,-2461 0,-2461 0,-2455 6,-2449 12,-2449 12,-2449 147.25,-2449 147.25,-2449 153.25,-2449 159.25,-2455 159.25,-2461 159.25,-2461 159.25,-2473.5 159.25,-2473.5 159.25,-2479.5 153.25,-2485.5 147.25,-2485.5"/>
<text text-anchor="middle" x="79.62" y="-2472" font-family="sans" font-size="10.00">0: model.input_embed</text>
<text text-anchor="middle" x="79.62" y="-2457.75" font-family="sans" font-size="10.00">GET_ROWS | f32 | 2048x1x1x1</text>
</g>
<!-- n3 -->
<g id="node2" class="node">
<title>n3</title>
<path fill="#fef3c7" stroke="black" d="M1145.5,-2395.75C1145.5,-2395.75 1005.75,-2395.75 1005.75,-2395.75 999.75,-2395.75 993.75,-2389.75 993.75,-2383.75 993.75,-2383.75 993.75,-2371.25 993.75,-2371.25 993.75,-2365.25 999.75,-2359.25 1005.75,-2359.25 1005.75,-2359.25 1145.5,-2359.25 1145.5,-2359.25 1151.5,-2359.25 1157.5,-2365.25 1157.5,-2371.25 1157.5,-2371.25 1157.5,-2383.75 1157.5,-2383.75 1157.5,-2389.75 1151.5,-2395.75 1145.5,-2395.75"/>
<text text-anchor="middle" x="1075.62" y="-2382.25" font-family="sans" font-size="10.00">3: norm&#45;0</text>
<text text-anchor="middle" x="1075.62" y="-2368" font-family="sans" font-size="10.00">RMS_NORM | f32 | 2048x1x1x1</text>
</g>
<!-- n0&#45;&gt;n3 -->
<g id="edge1" class="edge">
<title>n0&#45;&gt;n3</title>
<path fill="none" stroke="#94a3b8" d="M159.53,-2462.97C315.79,-2455.92 672.88,-2436.64 982.36,-2395.97"/>
<polygon fill="#94a3b8" stroke="#94a3b8" points="982.4,-2399.5 991.85,-2394.71 981.48,-2392.56 982.4,-2399.5"/>
<text text-anchor="middle" x="817.12" y="-2417.7" font-family="Times,serif" font-size="14.00">0</text>
</g>
<!-- n75 -->
<g id="node60" class="node">
<title>n75</title>
<path fill="#fef3c7" stroke="black" d="M133,-575C133,-575 26.25,-575 26.25,-575 20.25,-575 14.25,-569 14.25,-563 14.25,-563 14.25,-550.5 14.25,-550.5 14.25,-544.5 20.25,-538.5 26.25,-538.5 26.25,-538.5 133,-538.5 133,-538.5 139,-538.5 145,-544.5 145,-550.5 145,-550.5 145,-563 145,-563 145,-569 139,-575 133,-575"/>
<text text-anchor="middle" x="79.62" y="-561.5" font-family="sans" font-size="10.00">75: attn_residual&#45;0</text>
<text text-anchor="middle" x="79.62" y="-547.25" font-family="sans" font-size="10.00">ADD | f32 | 2048x1x1x1</text>
</g>
<!-- n0&#45;&gt;n75 -->
<g id="edge69" class="edge">
<title>n0&#45;&gt;n75</title>
<path fill="none" stroke="#94a3b8" d="M74.47,-2448.61C69.8,-2431.01 63.62,-2403.12 63.62,-2378.5 63.62,-2378.5 63.62,-2378.5 63.62,-645.5 63.62,-625.49 67.7,-603.33 71.74,-586.29"/>
<polygon fill="#94a3b8" stroke="#94a3b8" points="75.06,-587.41 74.11,-576.86 68.27,-585.71 75.06,-587.41"/>
<text text-anchor="middle" x="68.12" y="-1449.58" font-family="Times,serif" font-size="14.00">1</text>
</g>
<!-- n4 -->
<g id="node3" class="node">
<title>n4</title>
<path fill="#fef3c7" stroke="black" d="M1129,-2306C1129,-2306 1022.25,-2306 1022.25,-2306 1016.25,-2306 1010.25,-2300 1010.25,-2294 1010.25,-2294 1010.25,-2281.5 1010.25,-2281.5 1010.25,-2275.5 1016.25,-2269.5 1022.25,-2269.5 1022.25,-2269.5 1129,-2269.5 1129,-2269.5 1135,-2269.5 1141,-2275.5 1141,-2281.5 1141,-2281.5 1141,-2294 1141,-2294 1141,-2300 1135,-2306 1129,-2306"/>
<text text-anchor="middle" x="1075.62" y="-2292.5" font-family="sans" font-size="10.00">4: attn_norm&#45;0</text>
<text text-anchor="middle" x="1075.62" y="-2278.25" font-family="sans" font-size="10.00">MUL | f32 | 2048x1x1x1</text>
</g>
<!-- n3&#45;&gt;n4 -->
<g id="edge2" class="edge">
<title>n3&#45;&gt;n4</title>
<path fill="none" stroke="#94a3b8" d="M1075.62,-2359.16C1075.62,-2347.34 1075.62,-2331.4 1075.62,-2317.68"/>
<polygon fill="#94a3b8" stroke="#94a3b8" points="1079.13,-2317.86 1075.63,-2307.86 1072.13,-2317.86 1079.13,-2317.86"/>
<text text-anchor="middle" x="1080.12" y="-2327.95" font-family="Times,serif" font-size="14.00">0</text>
</g>
<!-- n18 -->
<g id="node10" class="node">
<title>n18</title>
<path fill="#dbeafe" stroke="black" d="M824.38,-2216.25C824.38,-2216.25 692.88,-2216.25 692.88,-2216.25 686.88,-2216.25 680.88,-2210.25 680.88,-2204.25 680.88,-2204.25 680.88,-2191.75 680.88,-2191.75 680.88,-2185.75 686.88,-2179.75 692.88,-2179.75 692.88,-2179.75 824.38,-2179.75 824.38,-2179.75 830.38,-2179.75 836.38,-2185.75 836.38,-2191.75 836.38,-2191.75 836.38,-2204.25 836.38,-2204.25 836.38,-2210.25 830.38,-2216.25 824.38,-2216.25"/>
<text text-anchor="middle" x="758.62" y="-2202.75" font-family="sans" font-size="10.00">18: node_13</text>
<text text-anchor="middle" x="758.62" y="-2188.5" font-family="sans" font-size="10.00">MUL_MAT | f32 | 6144x1x1x1</text>
</g>
<!-- n4&#45;&gt;n18 -->
<g id="edge9" class="edge">
<title>n4&#45;&gt;n18</title>
<path fill="none" stroke="#94a3b8" d="M1027.13,-2269.04C1012.73,-2263.6 996.97,-2257.47 982.62,-2251.5 965.5,-2244.38 962.31,-2239.85 944.62,-2234.25 934.88,-2231.16 890.67,-2222.75 847.8,-2214.92"/>
<polygon fill="#94a3b8" stroke="#94a3b8" points="848.62,-2211.51 838.15,-2213.16 847.36,-2218.4 848.62,-2211.51"/>
<text text-anchor="middle" x="987.12" y="-2238.2" font-family="Times,serif" font-size="14.00">1</text>
</g>
<!-- n44 -->
<g id="node29" class="node">
<title>n44</title>
<path fill="#dbeafe" stroke="black" d="M1293.38,-2216.25C1293.38,-2216.25 1173.88,-2216.25 1173.88,-2216.25 1167.88,-2216.25 1161.88,-2210.25 1161.88,-2204.25 1161.88,-2204.25 1161.88,-2191.75 1161.88,-2191.75 1161.88,-2185.75 1167.88,-2179.75 1173.88,-2179.75 1173.88,-2179.75 1293.38,-2179.75 1293.38,-2179.75 1299.38,-2179.75 1305.38,-2185.75 1305.38,-2191.75 1305.38,-2191.75 1305.38,-2204.25 1305.38,-2204.25 1305.38,-2210.25 1299.38,-2216.25 1293.38,-2216.25"/>
<text text-anchor="middle" x="1233.62" y="-2202.75" font-family="sans" font-size="10.00">44: node_36</text>
<text text-anchor="middle" x="1233.62" y="-2188.5" font-family="sans" font-size="10.00">MUL_MAT | f32 | 16x1x1x1</text>
</g>
<!-- n4&#45;&gt;n44 -->
<g id="edge32" class="edge">
<title>n4&#45;&gt;n44</title>
<path fill="none" stroke="#94a3b8" d="M1097.78,-2269.08C1112.05,-2258.2 1131.31,-2244.43 1149.62,-2234.25 1157.97,-2229.61 1167.05,-2225.2 1176.06,-2221.17"/>
<polygon fill="#94a3b8" stroke="#94a3b8" points="1177.38,-2224.41 1185.16,-2217.22 1174.59,-2217.99 1177.38,-2224.41"/>
<text text-anchor="middle" x="1154.12" y="-2238.2" font-family="Times,serif" font-size="14.00">1</text>
</g>
<!-- n53 -->
<g id="node38" class="node">
<title>n53</title>
<path fill="#dbeafe" stroke="black" d="M1001.38,-2216.25C1001.38,-2216.25 881.88,-2216.25 881.88,-2216.25 875.88,-2216.25 869.88,-2210.25 869.88,-2204.25 869.88,-2204.25 869.88,-2191.75 869.88,-2191.75 869.88,-2185.75 875.88,-2179.75 881.88,-2179.75 881.88,-2179.75 1001.38,-2179.75 1001.38,-2179.75 1007.38,-2179.75 1013.38,-2185.75 1013.38,-2191.75 1013.38,-2191.75 1013.38,-2204.25 1013.38,-2204.25 1013.38,-2210.25 1007.38,-2216.25 1001.38,-2216.25"/>
<text text-anchor="middle" x="941.62" y="-2202.75" font-family="sans" font-size="10.00">53: node_42</text>
<text text-anchor="middle" x="941.62" y="-2188.5" font-family="sans" font-size="10.00">MUL_MAT | f32 | 16x1x1x1</text>
</g>
<!-- n4&#45;&gt;n53 -->
<g id="edge41" class="edge">
<title>n4&#45;&gt;n53</title>
<path fill="none" stroke="#94a3b8" d="M1048.83,-2269.2C1028.47,-2255.87 1000.25,-2237.39 977.88,-2222.74"/>
<polygon fill="#94a3b8" stroke="#94a3b8" points="979.92,-2219.9 969.64,-2217.35 976.09,-2225.75 979.92,-2219.9"/>
<text text-anchor="middle" x="1025.12" y="-2238.2" font-family="Times,serif" font-size="14.00">1</text>
</g>
<!-- n66 -->
<g id="node51" class="node">
<title>n66</title>
<path fill="#dbeafe" stroke="black" d="M1470.38,-2216.25C1470.38,-2216.25 1338.88,-2216.25 1338.88,-2216.25 1332.88,-2216.25 1326.88,-2210.25 1326.88,-2204.25 1326.88,-2204.25 1326.88,-2191.75 1326.88,-2191.75 1326.88,-2185.75 1332.88,-2179.75 1338.88,-2179.75 1338.88,-2179.75 1470.38,-2179.75 1470.38,-2179.75 1476.38,-2179.75 1482.38,-2185.75 1482.38,-2191.75 1482.38,-2191.75 1482.38,-2204.25 1482.38,-2204.25 1482.38,-2210.25 1476.38,-2216.25 1470.38,-2216.25"/>
<text text-anchor="middle" x="1404.62" y="-2202.75" font-family="sans" font-size="10.00">66: z&#45;0</text>
<text text-anchor="middle" x="1404.62" y="-2188.5" font-family="sans" font-size="10.00">MUL_MAT | f32 | 2048x1x1x1</text>
</g>
<!-- n4&#45;&gt;n66 -->
<g id="edge59" class="edge">
<title>n4&#45;&gt;n66</title>
<path fill="none" stroke="#94a3b8" d="M1118.83,-2269.07C1147.36,-2257.91 1185.77,-2243.83 1220.62,-2234.25 1261.64,-2222.97 1272.85,-2224.25 1314.62,-2216.25 1314.87,-2216.2 1315.11,-2216.16 1315.36,-2216.11"/>
<polygon fill="#94a3b8" stroke="#94a3b8" points="1315.92,-2219.56 1325.09,-2214.25 1314.61,-2212.69 1315.92,-2219.56"/>
<text text-anchor="middle" x="1225.12" y="-2238.2" font-family="Times,serif" font-size="14.00">1</text>
</g>
<!-- n5 -->
<g id="node4" class="node">
<title>n5</title>
<path fill="#f1f5f9" stroke="black" d="M964,-2395.75C964,-2395.75 851.25,-2395.75 851.25,-2395.75 845.25,-2395.75 839.25,-2389.75 839.25,-2383.75 839.25,-2383.75 839.25,-2371.25 839.25,-2371.25 839.25,-2365.25 845.25,-2359.25 851.25,-2359.25 851.25,-2359.25 964,-2359.25 964,-2359.25 970,-2359.25 976,-2365.25 976,-2371.25 976,-2371.25 976,-2383.75 976,-2383.75 976,-2389.75 970,-2395.75 964,-2395.75"/>
<text text-anchor="middle" x="907.62" y="-2382.25" font-family="sans" font-size="10.00">5: blk.0.attn_norm.weight</text>
<text text-anchor="middle" x="907.62" y="-2368" font-family="sans" font-size="10.00">NONE | f32 | 2048x1x1x1</text>
</g>
<!-- n5&#45;&gt;n4 -->
<g id="edge3" class="edge">
<title>n5&#45;&gt;n4</title>
<path fill="none" stroke="#94a3b8" d="M941.22,-2358.95C967.23,-2345.37 1003.47,-2326.44 1031.77,-2311.66"/>
<polygon fill="#94a3b8" stroke="#94a3b8" points="1033.22,-2314.85 1040.46,-2307.12 1029.98,-2308.64 1033.22,-2314.85"/>
<text text-anchor="middle" x="1011.12" y="-2327.95" font-family="Times,serif" font-size="14.00">1</text>
</g>
<!-- n6 -->
<g id="node5" class="node">
<title>n6</title>
<path fill="#f1f5f9" stroke="black" d="M408.12,-2216.25C408.12,-2216.25 275.12,-2216.25 275.12,-2216.25 269.12,-2216.25 263.12,-2210.25 263.12,-2204.25 263.12,-2204.25 263.12,-2191.75 263.12,-2191.75 263.12,-2185.75 269.12,-2179.75 275.12,-2179.75 275.12,-2179.75 408.12,-2179.75 408.12,-2179.75 414.12,-2179.75 420.12,-2185.75 420.12,-2191.75 420.12,-2191.75 420.12,-2204.25 420.12,-2204.25 420.12,-2210.25 414.12,-2216.25 408.12,-2216.25"/>
<text text-anchor="middle" x="341.62" y="-2202.75" font-family="sans" font-size="10.00">6: cache_r_l0 (reshaped)</text>
<text text-anchor="middle" x="341.62" y="-2188.5" font-family="sans" font-size="10.00">RESHAPE | f32 | 18432x1x1x1</text>
</g>
<!-- n12 -->
<g id="node8" class="node">
<title>n12</title>
<path fill="#e2e8f0" stroke="black" d="M414.25,-2107.25C414.25,-2107.25 273,-2107.25 273,-2107.25 267,-2107.25 261,-2101.25 261,-2095.25 261,-2095.25 261,-2082.75 261,-2082.75 261,-2076.75 267,-2070.75 273,-2070.75 273,-2070.75 414.25,-2070.75 414.25,-2070.75 420.25,-2070.75 426.25,-2076.75 426.25,-2082.75 426.25,-2082.75 426.25,-2095.25 426.25,-2095.25 426.25,-2101.25 420.25,-2107.25 414.25,-2107.25"/>
<text text-anchor="middle" x="343.62" y="-2093.75" font-family="sans" font-size="10.00">12: conv_states&#45;0</text>
<text text-anchor="middle" x="343.62" y="-2079.5" font-family="sans" font-size="10.00">GET_ROWS | f32 | 18432x1x1x1</text>
</g>
<!-- n6&#45;&gt;n12 -->
<g id="edge5" class="edge">
<title>n6&#45;&gt;n12</title>
<path fill="none" stroke="#94a3b8" d="M341.96,-2179.33C342.26,-2162.99 342.72,-2138.4 343.08,-2119.15"/>
<polygon fill="#94a3b8" stroke="#94a3b8" points="346.58,-2119.27 343.27,-2109.21 339.58,-2119.14 346.58,-2119.27"/>
<text text-anchor="middle" x="348.12" y="-2138.82" font-family="Times,serif" font-size="14.00">0</text>
</g>
<!-- n7 -->
<g id="node6" class="node">
<title>n7</title>
<path fill="#f1f5f9" stroke="black" d="M293,-2306C293,-2306 174.25,-2306 174.25,-2306 168.25,-2306 162.25,-2300 162.25,-2294 162.25,-2294 162.25,-2281.5 162.25,-2281.5 162.25,-2275.5 168.25,-2269.5 174.25,-2269.5 174.25,-2269.5 293,-2269.5 293,-2269.5 299,-2269.5 305,-2275.5 305,-2281.5 305,-2281.5 305,-2294 305,-2294 305,-2300 299,-2306 293,-2306"/>
<text text-anchor="middle" x="233.62" y="-2292.5" font-family="sans" font-size="10.00">7: cache_r_l0</text>
<text text-anchor="middle" x="233.62" y="-2278.25" font-family="sans" font-size="10.00">NONE | f32 | 18432x1x1x1</text>
</g>
<!-- n7&#45;&gt;n6 -->
<g id="edge4" class="edge">
<title>n7&#45;&gt;n6</title>
<path fill="none" stroke="#94a3b8" d="M255.22,-2269.2C271.26,-2256.17 293.35,-2238.22 311.19,-2223.73"/>
<polygon fill="#94a3b8" stroke="#94a3b8" points="313.34,-2226.49 318.89,-2217.47 308.92,-2221.06 313.34,-2226.49"/>
<text text-anchor="middle" x="302.12" y="-2238.2" font-family="Times,serif" font-size="14.00">0</text>
</g>
<!-- n24 -->
<g id="node16" class="node">
<title>n24</title>
<path fill="#f1f5f9" stroke="black" d="M206.12,-2161.75C206.12,-2161.75 91.12,-2161.75 91.12,-2161.75 85.12,-2161.75 79.12,-2155.75 79.12,-2149.75 79.12,-2149.75 79.12,-2137.25 79.12,-2137.25 79.12,-2131.25 85.12,-2125.25 91.12,-2125.25 91.12,-2125.25 206.12,-2125.25 206.12,-2125.25 212.12,-2125.25 218.12,-2131.25 218.12,-2137.25 218.12,-2137.25 218.12,-2149.75 218.12,-2149.75 218.12,-2155.75 212.12,-2161.75 206.12,-2161.75"/>
<text text-anchor="middle" x="148.62" y="-2148.25" font-family="sans" font-size="10.00">24: conv_state_update&#45;0</text>
<text text-anchor="middle" x="148.62" y="-2134" font-family="sans" font-size="10.00">VIEW | f32 | 18432x1x1x1</text>
</g>
<!-- n7&#45;&gt;n24 -->
<g id="edge16" class="edge">
<title>n7&#45;&gt;n24</title>
<path fill="none" stroke="#94a3b8" d="M221.98,-2269.3C218.28,-2263.66 214.22,-2257.35 210.62,-2251.5 194.19,-2224.79 176.32,-2193.72 164.01,-2171.96"/>
<polygon fill="#94a3b8" stroke="#94a3b8" points="167.14,-2170.4 159.18,-2163.41 161.05,-2173.84 167.14,-2170.4"/>
<text text-anchor="middle" x="215.12" y="-2238.2" font-family="Times,serif" font-size="14.00">0</text>
</g>
<!-- n25 -->
<g id="node17" class="node">
<title>n25</title>
<path fill="#e2e8f0" stroke="black" d="M346.75,-1690.5C346.75,-1690.5 118.5,-1690.5 118.5,-1690.5 112.5,-1690.5 106.5,-1684.5 106.5,-1678.5 106.5,-1678.5 106.5,-1666 106.5,-1666 106.5,-1660 112.5,-1654 118.5,-1654 118.5,-1654 346.75,-1654 346.75,-1654 352.75,-1654 358.75,-1660 358.75,-1666 358.75,-1666 358.75,-1678.5 358.75,-1678.5 358.75,-1684.5 352.75,-1690.5 346.75,-1690.5"/>
<text text-anchor="middle" x="232.62" y="-1677" font-family="sans" font-size="10.00">25: conv_state_update&#45;0 (copy of conv_state_last&#45;0)</text>
<text text-anchor="middle" x="232.62" y="-1662.75" font-family="sans" font-size="10.00">CPY | f32 | 18432x1x1x1</text>
</g>
<!-- n7&#45;&gt;n25 -->
<g id="edge19" class="edge">
<title>n7&#45;&gt;n25</title>
<path fill="none" stroke="#94a3b8" stroke-dasharray="5,2" d="M233.5,-2269.17C233.24,-2229.31 232.62,-2129.02 232.62,-2045.12 232.62,-2045.12 232.62,-2045.12 232.62,-1780.25 232.62,-1753.73 232.62,-1723.51 232.62,-1701.96"/>
<polygon fill="#94a3b8" stroke="#94a3b8" points="236.13,-1702.18 232.63,-1692.18 229.13,-1702.18 236.13,-1702.18"/>
<text text-anchor="middle" x="249.12" y="-1994.58" font-family="Times,serif" font-size="14.00">alias</text>
</g>
<!-- n10 -->
<g id="node7" class="node">
<title>n10</title>
<path fill="#f1f5f9" stroke="black" d="M566.38,-2216.25C566.38,-2216.25 476.88,-2216.25 476.88,-2216.25 470.88,-2216.25 464.88,-2210.25 464.88,-2204.25 464.88,-2204.25 464.88,-2191.75 464.88,-2191.75 464.88,-2185.75 470.88,-2179.75 476.88,-2179.75 476.88,-2179.75 566.38,-2179.75 566.38,-2179.75 572.38,-2179.75 578.38,-2185.75 578.38,-2191.75 578.38,-2191.75 578.38,-2204.25 578.38,-2204.25 578.38,-2210.25 572.38,-2216.25 566.38,-2216.25"/>
<text text-anchor="middle" x="521.62" y="-2202.75" font-family="sans" font-size="10.00">10: rs_s_copy (view)</text>
<text text-anchor="middle" x="521.62" y="-2188.5" font-family="sans" font-size="10.00">VIEW | i32 | 1x1x1x1</text>
</g>
<!-- n10&#45;&gt;n12 -->
<g id="edge6" class="edge">
<title>n10&#45;&gt;n12</title>
<path fill="none" stroke="#94a3b8" d="M475.15,-2179.28C463.3,-2174.15 450.76,-2168.18 439.62,-2161.75 415.89,-2148.04 391.16,-2129.44 372.74,-2114.61"/>
<polygon fill="#94a3b8" stroke="#94a3b8" points="375.12,-2112.03 365.16,-2108.42 370.69,-2117.45 375.12,-2112.03"/>
<text text-anchor="middle" x="444.12" y="-2138.82" font-family="Times,serif" font-size="14.00">1</text>
</g>
<!-- n30 -->
<g id="node18" class="node">
<title>n30</title>
<path fill="#e2e8f0" stroke="black" d="M673.25,-2107.25C673.25,-2107.25 526,-2107.25 526,-2107.25 520,-2107.25 514,-2101.25 514,-2095.25 514,-2095.25 514,-2082.75 514,-2082.75 514,-2076.75 520,-2070.75 526,-2070.75 526,-2070.75 673.25,-2070.75 673.25,-2070.75 679.25,-2070.75 685.25,-2076.75 685.25,-2082.75 685.25,-2082.75 685.25,-2095.25 685.25,-2095.25 685.25,-2101.25 679.25,-2107.25 673.25,-2107.25"/>
<text text-anchor="middle" x="599.62" y="-2093.75" font-family="sans" font-size="10.00">30: node_23</text>
<text text-anchor="middle" x="599.62" y="-2079.5" font-family="sans" font-size="10.00">GET_ROWS | f32 | 262144x1x1x1</text>
</g>
<!-- n10&#45;&gt;n30 -->
<g id="edge20" class="edge">
<title>n10&#45;&gt;n30</title>
<path fill="none" stroke="#94a3b8" d="M534.51,-2179.33C546.87,-2162.37 565.71,-2136.52 579.95,-2116.98"/>
<polygon fill="#94a3b8" stroke="#94a3b8" points="582.77,-2119.06 585.83,-2108.92 577.12,-2114.94 582.77,-2119.06"/>
<text text-anchor="middle" x="577.12" y="-2138.82" font-family="Times,serif" font-size="14.00">1</text>
</g>
<!-- n17 -->
<g id="node9" class="node">
<title>n17</title>
<path fill="#f1f5f9" stroke="black" d="M423.12,-2017.5C423.12,-2017.5 296.12,-2017.5 296.12,-2017.5 290.12,-2017.5 284.12,-2011.5 284.12,-2005.5 284.12,-2005.5 284.12,-1993 284.12,-1993 284.12,-1987 290.12,-1981 296.12,-1981 296.12,-1981 423.12,-1981 423.12,-1981 429.12,-1981 435.12,-1987 435.12,-1993 435.12,-1993 435.12,-2005.5 435.12,-2005.5 435.12,-2011.5 429.12,-2017.5 423.12,-2017.5"/>
<text text-anchor="middle" x="359.62" y="-2004" font-family="sans" font-size="10.00">17: conv_states_reshaped&#45;0</text>
<text text-anchor="middle" x="359.62" y="-1989.75" font-family="sans" font-size="10.00">RESHAPE | f32 | 3x6144x1x1</text>
</g>
<!-- n12&#45;&gt;n17 -->
<g id="edge7" class="edge">
<title>n12&#45;&gt;n17</title>
<path fill="none" stroke="#94a3b8" d="M346.79,-2070.66C348.96,-2058.72 351.91,-2042.58 354.43,-2028.77"/>
<polygon fill="#94a3b8" stroke="#94a3b8" points="357.79,-2029.81 356.14,-2019.34 350.91,-2028.55 357.79,-2029.81"/>
<text text-anchor="middle" x="358.12" y="-2039.45" font-family="Times,serif" font-size="14.00">0</text>
</g>
<!-- n22 -->
<g id="node14" class="node">
<title>n22</title>
<path fill="#e2e8f0" stroke="black" d="M423.25,-1908.5C423.25,-1908.5 300,-1908.5 300,-1908.5 294,-1908.5 288,-1902.5 288,-1896.5 288,-1896.5 288,-1884 288,-1884 288,-1878 294,-1872 300,-1872 300,-1872 423.25,-1872 423.25,-1872 429.25,-1872 435.25,-1878 435.25,-1884 435.25,-1884 435.25,-1896.5 435.25,-1896.5 435.25,-1902.5 429.25,-1908.5 423.25,-1908.5"/>
<text text-anchor="middle" x="361.62" y="-1895" font-family="sans" font-size="10.00">22: conv_input&#45;0</text>
<text text-anchor="middle" x="361.62" y="-1880.75" font-family="sans" font-size="10.00">CONCAT | f32 | 4x6144x1x1</text>
</g>
<!-- n17&#45;&gt;n22 -->
<g id="edge13" class="edge">
<title>n17&#45;&gt;n22</title>
<path fill="none" stroke="#94a3b8" d="M359.96,-1980.58C360.26,-1964.24 360.72,-1939.65 361.08,-1920.4"/>
<polygon fill="#94a3b8" stroke="#94a3b8" points="364.58,-1920.52 361.27,-1910.46 357.58,-1920.39 364.58,-1920.52"/>
<text text-anchor="middle" x="366.12" y="-1940.08" font-family="Times,serif" font-size="14.00">0</text>
</g>
<!-- n20 -->
<g id="node12" class="node">
<title>n20</title>
<path fill="#f1f5f9" stroke="black" d="M842.12,-2107.25C842.12,-2107.25 715.12,-2107.25 715.12,-2107.25 709.12,-2107.25 703.12,-2101.25 703.12,-2095.25 703.12,-2095.25 703.12,-2082.75 703.12,-2082.75 703.12,-2076.75 709.12,-2070.75 715.12,-2070.75 715.12,-2070.75 842.12,-2070.75 842.12,-2070.75 848.12,-2070.75 854.12,-2076.75 854.12,-2082.75 854.12,-2082.75 854.12,-2095.25 854.12,-2095.25 854.12,-2101.25 848.12,-2107.25 842.12,-2107.25"/>
<text text-anchor="middle" x="778.62" y="-2093.75" font-family="sans" font-size="10.00">20: linear_attn_qkv_mixed&#45;0</text>
<text text-anchor="middle" x="778.62" y="-2079.5" font-family="sans" font-size="10.00">RESHAPE | f32 | 6144x1x1x1</text>
</g>
<!-- n18&#45;&gt;n20 -->
<g id="edge10" class="edge">
<title>n18&#45;&gt;n20</title>
<path fill="none" stroke="#94a3b8" d="M761.93,-2179.33C765,-2162.91 769.62,-2138.16 773.23,-2118.88"/>
<polygon fill="#94a3b8" stroke="#94a3b8" points="776.64,-2119.66 775.04,-2109.18 769.76,-2118.37 776.64,-2119.66"/>
<text text-anchor="middle" x="776.12" y="-2138.82" font-family="Times,serif" font-size="14.00">0</text>
</g>
<!-- n21 -->
<g id="node13" class="node">
<title>n21</title>
<path fill="#f1f5f9" stroke="black" d="M604.5,-2017.5C604.5,-2017.5 464.75,-2017.5 464.75,-2017.5 458.75,-2017.5 452.75,-2011.5 452.75,-2005.5 452.75,-2005.5 452.75,-1993 452.75,-1993 452.75,-1987 458.75,-1981 464.75,-1981 464.75,-1981 604.5,-1981 604.5,-1981 610.5,-1981 616.5,-1987 616.5,-1993 616.5,-1993 616.5,-2005.5 616.5,-2005.5 616.5,-2011.5 610.5,-2017.5 604.5,-2017.5"/>
<text text-anchor="middle" x="534.62" y="-2004" font-family="sans" font-size="10.00">21: qkv_mixed_transposed&#45;0</text>
<text text-anchor="middle" x="534.62" y="-1989.75" font-family="sans" font-size="10.00">TRANSPOSE | f32 | 1x6144x1x1</text>
</g>
<!-- n18&#45;&gt;n21 -->
<g id="edge12" class="edge">
<title>n18&#45;&gt;n21</title>
<path fill="none" stroke="#94a3b8" stroke-dasharray="5,2" d="M680.53,-2192.89C639.14,-2188.55 588.19,-2179.71 545.62,-2161.75 507.99,-2145.87 490.05,-2143.7 471.62,-2107.25 457.05,-2078.42 481.13,-2046.68 503.6,-2025.31"/>
<polygon fill="#94a3b8" stroke="#94a3b8" points="505.86,-2027.98 510.93,-2018.67 501.16,-2022.79 505.86,-2027.98"/>
<text text-anchor="middle" x="488.12" y="-2084.32" font-family="Times,serif" font-size="14.00">alias</text>
</g>
<!-- n19 -->
<g id="node11" class="node">
<title>n19</title>
<path fill="#f1f5f9" stroke="black" d="M813,-2306C813,-2306 676.25,-2306 676.25,-2306 670.25,-2306 664.25,-2300 664.25,-2294 664.25,-2294 664.25,-2281.5 664.25,-2281.5 664.25,-2275.5 670.25,-2269.5 676.25,-2269.5 676.25,-2269.5 813,-2269.5 813,-2269.5 819,-2269.5 825,-2275.5 825,-2281.5 825,-2281.5 825,-2294 825,-2294 825,-2300 819,-2306 813,-2306"/>
<text text-anchor="middle" x="744.62" y="-2292.5" font-family="sans" font-size="10.00">19: blk.0.attn_qkv.weight</text>
<text text-anchor="middle" x="744.62" y="-2278.25" font-family="sans" font-size="10.00">NONE | bf16 | 2048x6144x1x1</text>
</g>
<!-- n19&#45;&gt;n18 -->
<g id="edge8" class="edge">
<title>n19&#45;&gt;n18</title>
<path fill="none" stroke="#94a3b8" d="M747.39,-2269.41C749.28,-2257.59 751.82,-2241.65 754.01,-2227.93"/>
<polygon fill="#94a3b8" stroke="#94a3b8" points="757.46,-2228.52 755.58,-2218.1 750.55,-2227.42 757.46,-2228.52"/>
<text text-anchor="middle" x="758.12" y="-2238.2" font-family="Times,serif" font-size="14.00">0</text>
</g>
<!-- n20&#45;&gt;n21 -->
<g id="edge11" class="edge">
<title>n20&#45;&gt;n21</title>
<path fill="none" stroke="#94a3b8" d="M751.33,-2070.29C732.85,-2058.97 707.53,-2044.73 683.62,-2035.5 665.9,-2028.65 646.46,-2022.88 627.64,-2018.12"/>
<polygon fill="#94a3b8" stroke="#94a3b8" points="628.67,-2014.77 618.12,-2015.79 627.01,-2021.57 628.67,-2014.77"/>
<text text-anchor="middle" x="724.12" y="-2039.45" font-family="Times,serif" font-size="14.00">0</text>
</g>
<!-- n21&#45;&gt;n22 -->
<g id="edge14" class="edge">
<title>n21&#45;&gt;n22</title>
<path fill="none" stroke="#94a3b8" d="M506.06,-1980.58C477.01,-1962.61 431.83,-1934.67 399.74,-1914.82"/>
<polygon fill="#94a3b8" stroke="#94a3b8" points="401.87,-1912.02 391.52,-1909.74 398.19,-1917.98 401.87,-1912.02"/>
<text text-anchor="middle" x="479.12" y="-1940.08" font-family="Times,serif" font-size="14.00">1</text>
</g>
<!-- n23 -->
<g id="node15" class="node">
<title>n23</title>
<path fill="#f1f5f9" stroke="black" d="M391.12,-1799.5C391.12,-1799.5 282.12,-1799.5 282.12,-1799.5 276.12,-1799.5 270.12,-1793.5 270.12,-1787.5 270.12,-1787.5 270.12,-1775 270.12,-1775 270.12,-1769 276.12,-1763 282.12,-1763 282.12,-1763 391.12,-1763 391.12,-1763 397.12,-1763 403.12,-1769 403.12,-1775 403.12,-1775 403.12,-1787.5 403.12,-1787.5 403.12,-1793.5 397.12,-1799.5 391.12,-1799.5"/>
<text text-anchor="middle" x="336.62" y="-1786" font-family="sans" font-size="10.00">23: conv_state_last&#45;0</text>
<text text-anchor="middle" x="336.62" y="-1771.75" font-family="sans" font-size="10.00">VIEW | f32 | 3x6144x1x1</text>
</g>
<!-- n22&#45;&gt;n23 -->
<g id="edge15" class="edge">
<title>n22&#45;&gt;n23</title>
<path fill="none" stroke="#94a3b8" d="M357.5,-1871.58C353.66,-1855.16 347.88,-1830.41 343.37,-1811.13"/>
<polygon fill="#94a3b8" stroke="#94a3b8" points="346.79,-1810.36 341.1,-1801.42 339.97,-1811.95 346.79,-1810.36"/>
<text text-anchor="middle" x="358.12" y="-1831.08" font-family="Times,serif" font-size="14.00">0</text>
</g>
<!-- n34 -->
<g id="node19" class="node">
<title>n34</title>
<path fill="#ccfbf1" stroke="black" d="M595.62,-1799.5C595.62,-1799.5 459.62,-1799.5 459.62,-1799.5 453.62,-1799.5 447.62,-1793.5 447.62,-1787.5 447.62,-1787.5 447.62,-1775 447.62,-1775 447.62,-1769 453.62,-1763 459.62,-1763 459.62,-1763 595.62,-1763 595.62,-1763 601.62,-1763 607.62,-1769 607.62,-1775 607.62,-1775 607.62,-1787.5 607.62,-1787.5 607.62,-1793.5 601.62,-1799.5 595.62,-1799.5"/>
<text text-anchor="middle" x="527.62" y="-1786" font-family="sans" font-size="10.00">34: conv_output_raw&#45;0</text>
<text text-anchor="middle" x="527.62" y="-1771.75" font-family="sans" font-size="10.00">SSM_CONV | f32 | 6144x1x1x1</text>
</g>
<!-- n22&#45;&gt;n34 -->
<g id="edge21" class="edge">
<title>n22&#45;&gt;n34</title>
<path fill="none" stroke="#94a3b8" d="M389.04,-1871.58C416.79,-1853.69 459.89,-1825.91 490.65,-1806.08"/>
<polygon fill="#94a3b8" stroke="#94a3b8" points="492.39,-1809.12 498.9,-1800.77 488.6,-1803.24 492.39,-1809.12"/>
<text text-anchor="middle" x="474.12" y="-1831.08" font-family="Times,serif" font-size="14.00">0</text>
</g>
<!-- n23&#45;&gt;n25 -->
<g id="edge17" class="edge">
<title>n23&#45;&gt;n25</title>
<path fill="none" stroke="#94a3b8" d="M319.45,-1762.58C302.67,-1745.31 276.92,-1718.82 257.82,-1699.17"/>
<polygon fill="#94a3b8" stroke="#94a3b8" points="260.36,-1696.76 250.88,-1692.03 255.34,-1701.64 260.36,-1696.76"/>
<text text-anchor="middle" x="305.12" y="-1722.08" font-family="Times,serif" font-size="14.00">0</text>
</g>
<!-- n24&#45;&gt;n25 -->
<g id="edge18" class="edge">
<title>n24&#45;&gt;n25</title>
<path fill="none" stroke="#94a3b8" d="M154.22,-2124.76C159.83,-2105.39 167.62,-2073.37 167.62,-2045.12 167.62,-2045.12 167.62,-2045.12 167.62,-1780.25 167.62,-1749.2 187.87,-1719.48 205.76,-1699.28"/>
<polygon fill="#94a3b8" stroke="#94a3b8" points="208.21,-1701.78 212.45,-1692.07 203.08,-1697.02 208.21,-1701.78"/>
<text text-anchor="middle" x="172.12" y="-1940.08" font-family="Times,serif" font-size="14.00">1</text>
</g>
<!-- n57 -->
<g id="node42" class="node">
<title>n57</title>
<path fill="#f1f5f9" stroke="black" d="M754.12,-1963C754.12,-1963 615.12,-1963 615.12,-1963 609.12,-1963 603.12,-1957 603.12,-1951 603.12,-1951 603.12,-1938.5 603.12,-1938.5 603.12,-1932.5 609.12,-1926.5 615.12,-1926.5 615.12,-1926.5 754.12,-1926.5 754.12,-1926.5 760.12,-1926.5 766.12,-1932.5 766.12,-1938.5 766.12,-1938.5 766.12,-1951 766.12,-1951 766.12,-1957 760.12,-1963 754.12,-1963"/>
<text text-anchor="middle" x="684.62" y="-1949.5" font-family="sans" font-size="10.00">57: state_predelta&#45;0</text>
<text text-anchor="middle" x="684.62" y="-1935.25" font-family="sans" font-size="10.00">RESHAPE | f32 | 128x128x16x1</text>
</g>
<!-- n30&#45;&gt;n57 -->
<g id="edge44" class="edge">
<title>n30&#45;&gt;n57</title>
<path fill="none" stroke="#94a3b8" d="M610.22,-2070.27C624.8,-2045.86 651.21,-2001.68 668.32,-1973.04"/>
<polygon fill="#94a3b8" stroke="#94a3b8" points="671.26,-1974.93 673.39,-1964.55 665.25,-1971.34 671.26,-1974.93"/>
<text text-anchor="middle" x="634.12" y="-2039.45" font-family="Times,serif" font-size="14.00">0</text>
</g>
<!-- n36 -->
<g id="node21" class="node">
<title>n36</title>
<path fill="#fef3c7" stroke="black" d="M586,-1690.5C586,-1690.5 479.25,-1690.5 479.25,-1690.5 473.25,-1690.5 467.25,-1684.5 467.25,-1678.5 467.25,-1678.5 467.25,-1666 467.25,-1666 467.25,-1660 473.25,-1654 479.25,-1654 479.25,-1654 586,-1654 586,-1654 592,-1654 598,-1660 598,-1666 598,-1666 598,-1678.5 598,-1678.5 598,-1684.5 592,-1690.5 586,-1690.5"/>
<text text-anchor="middle" x="532.62" y="-1677" font-family="sans" font-size="10.00">36: conv_output_silu&#45;0</text>
<text text-anchor="middle" x="532.62" y="-1662.75" font-family="sans" font-size="10.00">SILU | f32 | 6144x1x1x1</text>
</g>
<!-- n34&#45;&gt;n36 -->
<g id="edge23" class="edge">
<title>n34&#45;&gt;n36</title>
<path fill="none" stroke="#94a3b8" d="M528.45,-1762.58C529.21,-1746.24 530.36,-1721.65 531.26,-1702.4"/>
<polygon fill="#94a3b8" stroke="#94a3b8" points="534.76,-1702.61 531.73,-1692.46 527.76,-1702.28 534.76,-1702.61"/>
<text text-anchor="middle" x="536.12" y="-1722.08" font-family="Times,serif" font-size="14.00">0</text>
</g>
<!-- n35 -->
<g id="node20" class="node">
<title>n35</title>
<path fill="#f1f5f9" stroke="black" d="M590.38,-1908.5C590.38,-1908.5 464.88,-1908.5 464.88,-1908.5 458.88,-1908.5 452.88,-1902.5 452.88,-1896.5 452.88,-1896.5 452.88,-1884 452.88,-1884 452.88,-1878 458.88,-1872 464.88,-1872 464.88,-1872 590.38,-1872 590.38,-1872 596.38,-1872 602.38,-1878 602.38,-1884 602.38,-1884 602.38,-1896.5 602.38,-1896.5 602.38,-1902.5 596.38,-1908.5 590.38,-1908.5"/>
<text text-anchor="middle" x="527.62" y="-1895" font-family="sans" font-size="10.00">35: blk.0.ssm_conv1d.weight</text>
<text text-anchor="middle" x="527.62" y="-1880.75" font-family="sans" font-size="10.00">NONE | f32 | 4x6144x1x1</text>
</g>
<!-- n35&#45;&gt;n34 -->
<g id="edge22" class="edge">
<title>n35&#45;&gt;n34</title>
<path fill="none" stroke="#94a3b8" d="M527.62,-1871.58C527.62,-1855.24 527.62,-1830.65 527.62,-1811.4"/>
<polygon fill="#94a3b8" stroke="#94a3b8" points="531.13,-1811.46 527.63,-1801.46 524.13,-1811.46 531.13,-1811.46"/>
<text text-anchor="middle" x="532.12" y="-1831.08" font-family="Times,serif" font-size="14.00">1</text>
</g>
<!-- n37 -->
<g id="node22" class="node">
<title>n37</title>
<path fill="#f1f5f9" stroke="black" d="M444.12,-1581.5C444.12,-1581.5 335.12,-1581.5 335.12,-1581.5 329.12,-1581.5 323.12,-1575.5 323.12,-1569.5 323.12,-1569.5 323.12,-1557 323.12,-1557 323.12,-1551 329.12,-1545 335.12,-1545 335.12,-1545 444.12,-1545 444.12,-1545 450.12,-1545 456.12,-1551 456.12,-1557 456.12,-1557 456.12,-1569.5 456.12,-1569.5 456.12,-1575.5 450.12,-1581.5 444.12,-1581.5"/>
<text text-anchor="middle" x="389.62" y="-1568" font-family="sans" font-size="10.00">37: q_conv&#45;0</text>
<text text-anchor="middle" x="389.62" y="-1553.75" font-family="sans" font-size="10.00">VIEW | f32 | 128x16x1x1</text>
</g>
<!-- n36&#45;&gt;n37 -->
<g id="edge24" class="edge">
<title>n36&#45;&gt;n37</title>
<path fill="none" stroke="#94a3b8" d="M509.01,-1653.58C485.31,-1635.85 448.62,-1608.39 422.16,-1588.6"/>
<polygon fill="#94a3b8" stroke="#94a3b8" points="424.59,-1586.04 414.49,-1582.85 420.4,-1591.65 424.59,-1586.04"/>
<text text-anchor="middle" x="487.12" y="-1613.08" font-family="Times,serif" font-size="14.00">0</text>
</g>
<!-- n40 -->
<g id="node25" class="node">
<title>n40</title>
<path fill="#f1f5f9" stroke="black" d="M595.12,-1581.5C595.12,-1581.5 486.12,-1581.5 486.12,-1581.5 480.12,-1581.5 474.12,-1575.5 474.12,-1569.5 474.12,-1569.5 474.12,-1557 474.12,-1557 474.12,-1551 480.12,-1545 486.12,-1545 486.12,-1545 595.12,-1545 595.12,-1545 601.12,-1545 607.12,-1551 607.12,-1557 607.12,-1557 607.12,-1569.5 607.12,-1569.5 607.12,-1575.5 601.12,-1581.5 595.12,-1581.5"/>
<text text-anchor="middle" x="540.62" y="-1568" font-family="sans" font-size="10.00">40: k_conv&#45;0</text>
<text text-anchor="middle" x="540.62" y="-1553.75" font-family="sans" font-size="10.00">VIEW | f32 | 128x16x1x1</text>
</g>
<!-- n36&#45;&gt;n40 -->
<g id="edge27" class="edge">
<title>n36&#45;&gt;n40</title>
<path fill="none" stroke="#94a3b8" d="M533.95,-1653.58C535.17,-1637.24 537.01,-1612.65 538.45,-1593.4"/>
<polygon fill="#94a3b8" stroke="#94a3b8" points="541.93,-1593.69 539.19,-1583.45 534.95,-1593.17 541.93,-1593.69"/>
<text text-anchor="middle" x="543.12" y="-1613.08" font-family="Times,serif" font-size="14.00">0</text>
</g>
<!-- n43 -->
<g id="node28" class="node">
<title>n43</title>
<path fill="#f1f5f9" stroke="black" d="M690.12,-1527C690.12,-1527 581.12,-1527 581.12,-1527 575.12,-1527 569.12,-1521 569.12,-1515 569.12,-1515 569.12,-1502.5 569.12,-1502.5 569.12,-1496.5 575.12,-1490.5 581.12,-1490.5 581.12,-1490.5 690.12,-1490.5 690.12,-1490.5 696.12,-1490.5 702.12,-1496.5 702.12,-1502.5 702.12,-1502.5 702.12,-1515 702.12,-1515 702.12,-1521 696.12,-1527 690.12,-1527"/>
<text text-anchor="middle" x="635.62" y="-1513.5" font-family="sans" font-size="10.00">43: v_conv_predelta&#45;0</text>
<text text-anchor="middle" x="635.62" y="-1499.25" font-family="sans" font-size="10.00">VIEW | f32 | 128x16x1x1</text>
</g>
<!-- n36&#45;&gt;n43 -->
<g id="edge30" class="edge">
<title>n36&#45;&gt;n43</title>
<path fill="none" stroke="#94a3b8" d="M553.7,-1653.78C572.55,-1637.07 599.59,-1610.22 615.62,-1581.5 622.99,-1568.31 627.79,-1552.22 630.84,-1538.63"/>
<polygon fill="#94a3b8" stroke="#94a3b8" points="634.25,-1539.43 632.8,-1528.94 627.39,-1538.05 634.25,-1539.43"/>
<text text-anchor="middle" x="608.12" y="-1613.08" font-family="Times,serif" font-size="14.00">0</text>
</g>
<!-- n38 -->
<g id="node23" class="node">
<title>n38</title>
<path fill="#fef3c7" stroke="black" d="M457.5,-1472.5C457.5,-1472.5 317.75,-1472.5 317.75,-1472.5 311.75,-1472.5 305.75,-1466.5 305.75,-1460.5 305.75,-1460.5 305.75,-1448 305.75,-1448 305.75,-1442 311.75,-1436 317.75,-1436 317.75,-1436 457.5,-1436 457.5,-1436 463.5,-1436 469.5,-1442 469.5,-1448 469.5,-1448 469.5,-1460.5 469.5,-1460.5 469.5,-1466.5 463.5,-1472.5 457.5,-1472.5"/>
<text text-anchor="middle" x="387.62" y="-1459" font-family="sans" font-size="10.00">38: node_30</text>
<text text-anchor="middle" x="387.62" y="-1444.75" font-family="sans" font-size="10.00">RMS_NORM | f32 | 128x16x1x1</text>
</g>
<!-- n37&#45;&gt;n38 -->
<g id="edge25" class="edge">
<title>n37&#45;&gt;n38</title>
<path fill="none" stroke="#94a3b8" d="M389.29,-1544.58C388.99,-1528.24 388.53,-1503.65 388.17,-1484.4"/>
<polygon fill="#94a3b8" stroke="#94a3b8" points="391.67,-1484.39 387.98,-1474.46 384.67,-1484.52 391.67,-1484.39"/>
<text text-anchor="middle" x="394.12" y="-1504.08" font-family="Times,serif" font-size="14.00">0</text>
</g>
<!-- n39 -->
<g id="node24" class="node">
<title>n39</title>
<path fill="#fef3c7" stroke="black" d="M466.38,-1382.75C466.38,-1382.75 352.88,-1382.75 352.88,-1382.75 346.88,-1382.75 340.88,-1376.75 340.88,-1370.75 340.88,-1370.75 340.88,-1358.25 340.88,-1358.25 340.88,-1352.25 346.88,-1346.25 352.88,-1346.25 352.88,-1346.25 466.38,-1346.25 466.38,-1346.25 472.38,-1346.25 478.38,-1352.25 478.38,-1358.25 478.38,-1358.25 478.38,-1370.75 478.38,-1370.75 478.38,-1376.75 472.38,-1382.75 466.38,-1382.75"/>
<text text-anchor="middle" x="409.62" y="-1369.25" font-family="sans" font-size="10.00">39: q_conv_predelta&#45;0</text>
<text text-anchor="middle" x="409.62" y="-1355" font-family="sans" font-size="10.00">SCALE | f32 | 128x16x1x1</text>
</g>
<!-- n38&#45;&gt;n39 -->
<g id="edge26" class="edge">
<title>n38&#45;&gt;n39</title>
<path fill="none" stroke="#94a3b8" d="M391.97,-1435.91C394.97,-1423.97 399.01,-1407.83 402.48,-1394.02"/>
<polygon fill="#94a3b8" stroke="#94a3b8" points="405.81,-1395.12 404.84,-1384.57 399.02,-1393.42 405.81,-1395.12"/>
<text text-anchor="middle" x="405.12" y="-1404.7" font-family="Times,serif" font-size="14.00">0</text>
</g>
<!-- n58 -->
<g id="node43" class="node">
<title>n58</title>
<path fill="#ede9fe" stroke="black" d="M791,-1293C791,-1293 606.25,-1293 606.25,-1293 600.25,-1293 594.25,-1287 594.25,-1281 594.25,-1281 594.25,-1268.5 594.25,-1268.5 594.25,-1262.5 600.25,-1256.5 606.25,-1256.5 606.25,-1256.5 791,-1256.5 791,-1256.5 797,-1256.5 803,-1262.5 803,-1268.5 803,-1268.5 803,-1281 803,-1281 803,-1287 797,-1293 791,-1293"/>
<text text-anchor="middle" x="698.62" y="-1279.5" font-family="sans" font-size="10.00">58: node_46</text>
<text text-anchor="middle" x="698.62" y="-1265.25" font-family="sans" font-size="10.00">GATED_DELTA_NET | f32 | 2048x129x1x1</text>
</g>
<!-- n39&#45;&gt;n58 -->
<g id="edge45" class="edge">
<title>n39&#45;&gt;n58</title>
<path fill="none" stroke="#94a3b8" d="M467.76,-1345.85C514.5,-1331.66 580.28,-1311.68 629.67,-1296.69"/>
<polygon fill="#94a3b8" stroke="#94a3b8" points="630.58,-1300.07 639.13,-1293.81 628.55,-1293.37 630.58,-1300.07"/>
<text text-anchor="middle" x="585.12" y="-1314.95" font-family="Times,serif" font-size="14.00">0</text>
</g>
<!-- n41 -->
<g id="node26" class="node">
<title>n41</title>
<path fill="#fef3c7" stroke="black" d="M639.5,-1472.5C639.5,-1472.5 499.75,-1472.5 499.75,-1472.5 493.75,-1472.5 487.75,-1466.5 487.75,-1460.5 487.75,-1460.5 487.75,-1448 487.75,-1448 487.75,-1442 493.75,-1436 499.75,-1436 499.75,-1436 639.5,-1436 639.5,-1436 645.5,-1436 651.5,-1442 651.5,-1448 651.5,-1448 651.5,-1460.5 651.5,-1460.5 651.5,-1466.5 645.5,-1472.5 639.5,-1472.5"/>
<text text-anchor="middle" x="569.62" y="-1459" font-family="sans" font-size="10.00">41: node_33</text>
<text text-anchor="middle" x="569.62" y="-1444.75" font-family="sans" font-size="10.00">RMS_NORM | f32 | 128x16x1x1</text>
</g>
<!-- n40&#45;&gt;n41 -->
<g id="edge28" class="edge">
<title>n40&#45;&gt;n41</title>
<path fill="none" stroke="#94a3b8" d="M541.33,-1544.75C542.33,-1529.98 544.75,-1508.43 550.62,-1490.5 551.42,-1488.08 552.37,-1485.64 553.42,-1483.22"/>
<polygon fill="#94a3b8" stroke="#94a3b8" points="556.51,-1484.87 557.8,-1474.35 550.24,-1481.76 556.51,-1484.87"/>
<text text-anchor="middle" x="555.12" y="-1504.08" font-family="Times,serif" font-size="14.00">0</text>
</g>
<!-- n42 -->
<g id="node27" class="node">
<title>n42</title>
<path fill="#fef3c7" stroke="black" d="M635.38,-1382.75C635.38,-1382.75 521.88,-1382.75 521.88,-1382.75 515.88,-1382.75 509.88,-1376.75 509.88,-1370.75 509.88,-1370.75 509.88,-1358.25 509.88,-1358.25 509.88,-1352.25 515.88,-1346.25 521.88,-1346.25 521.88,-1346.25 635.38,-1346.25 635.38,-1346.25 641.38,-1346.25 647.38,-1352.25 647.38,-1358.25 647.38,-1358.25 647.38,-1370.75 647.38,-1370.75 647.38,-1376.75 641.38,-1382.75 635.38,-1382.75"/>
<text text-anchor="middle" x="578.62" y="-1369.25" font-family="sans" font-size="10.00">42: k_conv_predelta&#45;0</text>
<text text-anchor="middle" x="578.62" y="-1355" font-family="sans" font-size="10.00">SCALE | f32 | 128x16x1x1</text>
</g>
<!-- n41&#45;&gt;n42 -->
<g id="edge29" class="edge">
<title>n41&#45;&gt;n42</title>
<path fill="none" stroke="#94a3b8" d="M571.4,-1435.91C572.62,-1424.09 574.25,-1408.15 575.66,-1394.43"/>
<polygon fill="#94a3b8" stroke="#94a3b8" points="579.13,-1394.91 576.67,-1384.61 572.16,-1394.2 579.13,-1394.91"/>
<text text-anchor="middle" x="580.12" y="-1404.7" font-family="Times,serif" font-size="14.00">0</text>
</g>
<!-- n42&#45;&gt;n58 -->
<g id="edge46" class="edge">
<title>n42&#45;&gt;n58</title>
<path fill="none" stroke="#94a3b8" d="M602.62,-1345.95C620.69,-1332.74 645.67,-1314.47 665.62,-1299.89"/>
<polygon fill="#94a3b8" stroke="#94a3b8" points="667.44,-1302.89 673.45,-1294.16 663.31,-1297.24 667.44,-1302.89"/>
<text text-anchor="middle" x="654.12" y="-1314.95" font-family="Times,serif" font-size="14.00">1</text>
</g>
<!-- n43&#45;&gt;n58 -->
<g id="edge47" class="edge">
<title>n43&#45;&gt;n58</title>
<path fill="none" stroke="#94a3b8" d="M650.18,-1490.34C654.09,-1484.91 657.97,-1478.71 660.62,-1472.5 684.73,-1416.09 693.66,-1344.04 696.88,-1304.66"/>
<polygon fill="#94a3b8" stroke="#94a3b8" points="700.36,-1305.05 697.61,-1294.82 693.38,-1304.54 700.36,-1305.05"/>
<text text-anchor="middle" x="688.12" y="-1404.7" font-family="Times,serif" font-size="14.00">2</text>
</g>
<!-- n46 -->
<g id="node31" class="node">
<title>n46</title>
<path fill="#f1f5f9" stroke="black" d="M1299.12,-2107.25C1299.12,-2107.25 1184.12,-2107.25 1184.12,-2107.25 1178.12,-2107.25 1172.12,-2101.25 1172.12,-2095.25 1172.12,-2095.25 1172.12,-2082.75 1172.12,-2082.75 1172.12,-2076.75 1178.12,-2070.75 1184.12,-2070.75 1184.12,-2070.75 1299.12,-2070.75 1299.12,-2070.75 1305.12,-2070.75 1311.12,-2076.75 1311.12,-2082.75 1311.12,-2082.75 1311.12,-2095.25 1311.12,-2095.25 1311.12,-2101.25 1305.12,-2107.25 1299.12,-2107.25"/>
<text text-anchor="middle" x="1241.62" y="-2093.75" font-family="sans" font-size="10.00">46: alpha&#45;0</text>
<text text-anchor="middle" x="1241.62" y="-2079.5" font-family="sans" font-size="10.00">RESHAPE | f32 | 16x1x1x1</text>
</g>
<!-- n44&#45;&gt;n46 -->
<g id="edge33" class="edge">
<title>n44&#45;&gt;n46</title>
<path fill="none" stroke="#94a3b8" d="M1234.95,-2179.33C1236.17,-2162.99 1238.01,-2138.4 1239.45,-2119.15"/>
<polygon fill="#94a3b8" stroke="#94a3b8" points="1242.93,-2119.44 1240.19,-2109.2 1235.95,-2118.92 1242.93,-2119.44"/>
<text text-anchor="middle" x="1243.12" y="-2138.82" font-family="Times,serif" font-size="14.00">0</text>
</g>
<!-- n45 -->
<g id="node30" class="node">
<title>n45</title>
<path fill="#f1f5f9" stroke="black" d="M1296,-2306C1296,-2306 1171.25,-2306 1171.25,-2306 1165.25,-2306 1159.25,-2300 1159.25,-2294 1159.25,-2294 1159.25,-2281.5 1159.25,-2281.5 1159.25,-2275.5 1165.25,-2269.5 1171.25,-2269.5 1171.25,-2269.5 1296,-2269.5 1296,-2269.5 1302,-2269.5 1308,-2275.5 1308,-2281.5 1308,-2281.5 1308,-2294 1308,-2294 1308,-2300 1302,-2306 1296,-2306"/>
<text text-anchor="middle" x="1233.62" y="-2292.5" font-family="sans" font-size="10.00">45: blk.0.ssm_alpha.weight</text>
<text text-anchor="middle" x="1233.62" y="-2278.25" font-family="sans" font-size="10.00">NONE | bf16 | 2048x16x1x1</text>
</g>
<!-- n45&#45;&gt;n44 -->
<g id="edge31" class="edge">
<title>n45&#45;&gt;n44</title>
<path fill="none" stroke="#94a3b8" d="M1233.62,-2269.41C1233.62,-2257.59 1233.62,-2241.65 1233.62,-2227.93"/>
<polygon fill="#94a3b8" stroke="#94a3b8" points="1237.13,-2228.11 1233.63,-2218.11 1230.13,-2228.11 1237.13,-2228.11"/>
<text text-anchor="middle" x="1238.12" y="-2238.2" font-family="Times,serif" font-size="14.00">0</text>
</g>
<!-- n47 -->
<g id="node32" class="node">
<title>n47</title>
<path fill="#fef3c7" stroke="black" d="M1139,-2017.5C1139,-2017.5 1044.25,-2017.5 1044.25,-2017.5 1038.25,-2017.5 1032.25,-2011.5 1032.25,-2005.5 1032.25,-2005.5 1032.25,-1993 1032.25,-1993 1032.25,-1987 1038.25,-1981 1044.25,-1981 1044.25,-1981 1139,-1981 1139,-1981 1145,-1981 1151,-1987 1151,-1993 1151,-1993 1151,-2005.5 1151,-2005.5 1151,-2011.5 1145,-2017.5 1139,-2017.5"/>
<text text-anchor="middle" x="1091.62" y="-2004" font-family="sans" font-size="10.00">47: node_38</text>
<text text-anchor="middle" x="1091.62" y="-1989.75" font-family="sans" font-size="10.00">ADD | f32 | 16x1x1x1</text>
</g>
<!-- n46&#45;&gt;n47 -->
<g id="edge34" class="edge">
<title>n46&#45;&gt;n47</title>
<path fill="none" stroke="#94a3b8" d="M1211.63,-2070.45C1188.61,-2056.99 1156.61,-2038.27 1131.45,-2023.55"/>
<polygon fill="#94a3b8" stroke="#94a3b8" points="1133.53,-2020.71 1123.13,-2018.68 1129.99,-2026.75 1133.53,-2020.71"/>
<text text-anchor="middle" x="1184.12" y="-2039.45" font-family="Times,serif" font-size="14.00">0</text>
</g>
<!-- n49 -->
<g id="node34" class="node">
<title>n49</title>
<path fill="#fef3c7" stroke="black" d="M1146.75,-1908.5C1146.75,-1908.5 1026.5,-1908.5 1026.5,-1908.5 1020.5,-1908.5 1014.5,-1902.5 1014.5,-1896.5 1014.5,-1896.5 1014.5,-1884 1014.5,-1884 1014.5,-1878 1020.5,-1872 1026.5,-1872 1026.5,-1872 1146.75,-1872 1146.75,-1872 1152.75,-1872 1158.75,-1878 1158.75,-1884 1158.75,-1884 1158.75,-1896.5 1158.75,-1896.5 1158.75,-1902.5 1152.75,-1908.5 1146.75,-1908.5"/>
<text text-anchor="middle" x="1086.62" y="-1895" font-family="sans" font-size="10.00">49: a_softplus&#45;0</text>
<text text-anchor="middle" x="1086.62" y="-1880.75" font-family="sans" font-size="10.00">SOFTPLUS | f32 | 16x1x1x1</text>
</g>
<!-- n47&#45;&gt;n49 -->
<g id="edge36" class="edge">
<title>n47&#45;&gt;n49</title>
<path fill="none" stroke="#94a3b8" d="M1090.8,-1980.58C1090.04,-1964.24 1088.89,-1939.65 1087.99,-1920.4"/>
<polygon fill="#94a3b8" stroke="#94a3b8" points="1091.49,-1920.28 1087.52,-1910.46 1084.49,-1920.61 1091.49,-1920.28"/>
<text text-anchor="middle" x="1094.12" y="-1940.08" font-family="Times,serif" font-size="14.00">0</text>
</g>
<!-- n48 -->
<g id="node33" class="node">
<title>n48</title>
<path fill="#f1f5f9" stroke="black" d="M1142,-2107.25C1142,-2107.25 1041.25,-2107.25 1041.25,-2107.25 1035.25,-2107.25 1029.25,-2101.25 1029.25,-2095.25 1029.25,-2095.25 1029.25,-2082.75 1029.25,-2082.75 1029.25,-2076.75 1035.25,-2070.75 1041.25,-2070.75 1041.25,-2070.75 1142,-2070.75 1142,-2070.75 1148,-2070.75 1154,-2076.75 1154,-2082.75 1154,-2082.75 1154,-2095.25 1154,-2095.25 1154,-2101.25 1148,-2107.25 1142,-2107.25"/>
<text text-anchor="middle" x="1091.62" y="-2093.75" font-family="sans" font-size="10.00">48: blk.0.ssm_dt.bias</text>
<text text-anchor="middle" x="1091.62" y="-2079.5" font-family="sans" font-size="10.00">NONE | f32 | 16x1x1x1</text>
</g>
<!-- n48&#45;&gt;n47 -->
<g id="edge35" class="edge">
<title>n48&#45;&gt;n47</title>
<path fill="none" stroke="#94a3b8" d="M1091.62,-2070.66C1091.62,-2058.84 1091.62,-2042.9 1091.62,-2029.18"/>
<polygon fill="#94a3b8" stroke="#94a3b8" points="1095.13,-2029.36 1091.63,-2019.36 1088.13,-2029.36 1095.13,-2029.36"/>
<text text-anchor="middle" x="1096.12" y="-2039.45" font-family="Times,serif" font-size="14.00">1</text>
</g>
<!-- n50 -->
<g id="node35" class="node">
<title>n50</title>
<path fill="#fef3c7" stroke="black" d="M978,-1799.5C978,-1799.5 883.25,-1799.5 883.25,-1799.5 877.25,-1799.5 871.25,-1793.5 871.25,-1787.5 871.25,-1787.5 871.25,-1775 871.25,-1775 871.25,-1769 877.25,-1763 883.25,-1763 883.25,-1763 978,-1763 978,-1763 984,-1763 990,-1769 990,-1775 990,-1775 990,-1787.5 990,-1787.5 990,-1793.5 984,-1799.5 978,-1799.5"/>
<text text-anchor="middle" x="930.62" y="-1786" font-family="sans" font-size="10.00">50: gate&#45;0</text>
<text text-anchor="middle" x="930.62" y="-1771.75" font-family="sans" font-size="10.00">MUL | f32 | 16x1x1x1</text>
</g>
<!-- n49&#45;&gt;n50 -->
<g id="edge37" class="edge">
<title>n49&#45;&gt;n50</title>
<path fill="none" stroke="#94a3b8" d="M1052.15,-1871.57C1042.42,-1866.23 1031.94,-1860.14 1022.62,-1854 1000.74,-1839.57 977.46,-1821.39 959.8,-1806.94"/>
<polygon fill="#94a3b8" stroke="#94a3b8" points="962.22,-1804.4 952.28,-1800.73 957.76,-1809.79 962.22,-1804.4"/>
<text text-anchor="middle" x="1027.12" y="-1831.08" font-family="Times,serif" font-size="14.00">0</text>
</g>
<!-- n52 -->
<g id="node37" class="node">
<title>n52</title>
<path fill="#f1f5f9" stroke="black" d="M938.12,-1636C938.12,-1636 823.12,-1636 823.12,-1636 817.12,-1636 811.12,-1630 811.12,-1624 811.12,-1624 811.12,-1611.5 811.12,-1611.5 811.12,-1605.5 817.12,-1599.5 823.12,-1599.5 823.12,-1599.5 938.12,-1599.5 938.12,-1599.5 944.12,-1599.5 950.12,-1605.5 950.12,-1611.5 950.12,-1611.5 950.12,-1624 950.12,-1624 950.12,-1630 944.12,-1636 938.12,-1636"/>
<text text-anchor="middle" x="880.62" y="-1622.5" font-family="sans" font-size="10.00">52: gate&#45;0 (reshaped)</text>
<text text-anchor="middle" x="880.62" y="-1608.25" font-family="sans" font-size="10.00">RESHAPE | f32 | 1x16x1x1</text>
</g>
<!-- n50&#45;&gt;n52 -->
<g id="edge39" class="edge">
<title>n50&#45;&gt;n52</title>
<path fill="none" stroke="#94a3b8" d="M925.18,-1762.66C916.58,-1734.87 899.76,-1680.55 889.42,-1647.17"/>
<polygon fill="#94a3b8" stroke="#94a3b8" points="892.81,-1646.28 886.51,-1637.76 886.13,-1648.35 892.81,-1646.28"/>
<text text-anchor="middle" x="923.12" y="-1722.08" font-family="Times,serif" font-size="14.00">0</text>
</g>
<!-- n51 -->
<g id="node36" class="node">
<title>n51</title>
<path fill="#f1f5f9" stroke="black" d="M981,-1908.5C981,-1908.5 880.25,-1908.5 880.25,-1908.5 874.25,-1908.5 868.25,-1902.5 868.25,-1896.5 868.25,-1896.5 868.25,-1884 868.25,-1884 868.25,-1878 874.25,-1872 880.25,-1872 880.25,-1872 981,-1872 981,-1872 987,-1872 993,-1878 993,-1884 993,-1884 993,-1896.5 993,-1896.5 993,-1902.5 987,-1908.5 981,-1908.5"/>
<text text-anchor="middle" x="930.62" y="-1895" font-family="sans" font-size="10.00">51: blk.0.ssm_a</text>
<text text-anchor="middle" x="930.62" y="-1880.75" font-family="sans" font-size="10.00">NONE | f32 | 16x1x1x1</text>
</g>
<!-- n51&#45;&gt;n50 -->
<g id="edge38" class="edge">
<title>n51&#45;&gt;n50</title>
<path fill="none" stroke="#94a3b8" d="M930.62,-1871.58C930.62,-1855.24 930.62,-1830.65 930.62,-1811.4"/>
<polygon fill="#94a3b8" stroke="#94a3b8" points="934.13,-1811.46 930.63,-1801.46 927.13,-1811.46 934.13,-1811.46"/>
<text text-anchor="middle" x="935.12" y="-1831.08" font-family="Times,serif" font-size="14.00">1</text>
</g>
<!-- n52&#45;&gt;n58 -->
<g id="edge48" class="edge">
<title>n52&#45;&gt;n58</title>
<path fill="none" stroke="#94a3b8" d="M875.53,-1599.12C869.91,-1578.05 861.62,-1541.64 861.62,-1509.75 861.62,-1509.75 861.62,-1509.75 861.62,-1363.5 861.62,-1331.02 836.22,-1310.5 805.46,-1297.57"/>
<polygon fill="#94a3b8" stroke="#94a3b8" points="806.86,-1294.36 796.27,-1294.02 804.33,-1300.89 806.86,-1294.36"/>
<text text-anchor="middle" x="866.12" y="-1449.58" font-family="Times,serif" font-size="14.00">3</text>
</g>
<!-- n55 -->
<g id="node40" class="node">
<title>n55</title>
<path fill="#f1f5f9" stroke="black" d="M999.12,-2107.25C999.12,-2107.25 884.12,-2107.25 884.12,-2107.25 878.12,-2107.25 872.12,-2101.25 872.12,-2095.25 872.12,-2095.25 872.12,-2082.75 872.12,-2082.75 872.12,-2076.75 878.12,-2070.75 884.12,-2070.75 884.12,-2070.75 999.12,-2070.75 999.12,-2070.75 1005.12,-2070.75 1011.12,-2076.75 1011.12,-2082.75 1011.12,-2082.75 1011.12,-2095.25 1011.12,-2095.25 1011.12,-2101.25 1005.12,-2107.25 999.12,-2107.25"/>
<text text-anchor="middle" x="941.62" y="-2093.75" font-family="sans" font-size="10.00">55: beta&#45;0</text>
<text text-anchor="middle" x="941.62" y="-2079.5" font-family="sans" font-size="10.00">RESHAPE | f32 | 1x16x1x1</text>
</g>
<!-- n53&#45;&gt;n55 -->
<g id="edge42" class="edge">
<title>n53&#45;&gt;n55</title>
<path fill="none" stroke="#94a3b8" d="M941.62,-2179.33C941.62,-2162.99 941.62,-2138.4 941.62,-2119.15"/>
<polygon fill="#94a3b8" stroke="#94a3b8" points="945.13,-2119.21 941.63,-2109.21 938.13,-2119.21 945.13,-2119.21"/>
<text text-anchor="middle" x="946.12" y="-2138.82" font-family="Times,serif" font-size="14.00">0</text>
</g>
<!-- n54 -->
<g id="node39" class="node">
<title>n54</title>
<path fill="#f1f5f9" stroke="black" d="M980,-2306C980,-2306 855.25,-2306 855.25,-2306 849.25,-2306 843.25,-2300 843.25,-2294 843.25,-2294 843.25,-2281.5 843.25,-2281.5 843.25,-2275.5 849.25,-2269.5 855.25,-2269.5 855.25,-2269.5 980,-2269.5 980,-2269.5 986,-2269.5 992,-2275.5 992,-2281.5 992,-2281.5 992,-2294 992,-2294 992,-2300 986,-2306 980,-2306"/>
<text text-anchor="middle" x="917.62" y="-2292.5" font-family="sans" font-size="10.00">54: blk.0.ssm_beta.weight</text>
<text text-anchor="middle" x="917.62" y="-2278.25" font-family="sans" font-size="10.00">NONE | bf16 | 2048x16x1x1</text>
</g>
<!-- n54&#45;&gt;n53 -->
<g id="edge40" class="edge">
<title>n54&#45;&gt;n53</title>
<path fill="none" stroke="#94a3b8" d="M922.37,-2269.41C925.63,-2257.47 930.05,-2241.33 933.83,-2227.52"/>
<polygon fill="#94a3b8" stroke="#94a3b8" points="937.15,-2228.63 936.41,-2218.06 930.4,-2226.78 937.15,-2228.63"/>
<text text-anchor="middle" x="936.12" y="-2238.2" font-family="Times,serif" font-size="14.00">0</text>
</g>
<!-- n56 -->
<g id="node41" class="node">
<title>n56</title>
<path fill="#fef3c7" stroke="black" d="M863.25,-1745C863.25,-1745 746,-1745 746,-1745 740,-1745 734,-1739 734,-1733 734,-1733 734,-1720.5 734,-1720.5 734,-1714.5 740,-1708.5 746,-1708.5 746,-1708.5 863.25,-1708.5 863.25,-1708.5 869.25,-1708.5 875.25,-1714.5 875.25,-1720.5 875.25,-1720.5 875.25,-1733 875.25,-1733 875.25,-1739 869.25,-1745 863.25,-1745"/>
<text text-anchor="middle" x="804.62" y="-1731.5" font-family="sans" font-size="10.00">56: beta_sigmoid&#45;0</text>
<text text-anchor="middle" x="804.62" y="-1717.25" font-family="sans" font-size="10.00">SIGMOID | f32 | 1x16x1x1</text>
</g>
<!-- n55&#45;&gt;n56 -->
<g id="edge43" class="edge">
<title>n55&#45;&gt;n56</title>
<path fill="none" stroke="#94a3b8" d="M871.92,-2070.78C838.08,-2057.83 804.62,-2035.98 804.62,-2000.25 804.62,-2000.25 804.62,-2000.25 804.62,-1834.75 804.62,-1808.23 804.62,-1778.01 804.62,-1756.46"/>
<polygon fill="#94a3b8" stroke="#94a3b8" points="808.13,-1756.68 804.63,-1746.68 801.13,-1756.68 808.13,-1756.68"/>
<text text-anchor="middle" x="809.12" y="-1940.08" font-family="Times,serif" font-size="14.00">0</text>
</g>
<!-- n56&#45;&gt;n58 -->
<g id="edge49" class="edge">
<title>n56&#45;&gt;n58</title>
<path fill="none" stroke="#94a3b8" d="M797.93,-1708.25C790.52,-1687.29 779.62,-1650.99 779.62,-1618.75 779.62,-1618.75 779.62,-1618.75 779.62,-1363.5 779.62,-1337.07 759.54,-1315.2 739.37,-1299.91"/>
<polygon fill="#94a3b8" stroke="#94a3b8" points="741.58,-1297.19 731.41,-1294.23 737.52,-1302.89 741.58,-1297.19"/>
<text text-anchor="middle" x="784.12" y="-1504.08" font-family="Times,serif" font-size="14.00">4</text>
</g>
<!-- n57&#45;&gt;n58 -->
<g id="edge50" class="edge">
<title>n57&#45;&gt;n58</title>
<path fill="none" stroke="#94a3b8" d="M693.64,-1926.09C703.41,-1905.28 717.62,-1869.41 717.62,-1836.75 717.62,-1836.75 717.62,-1836.75 717.62,-1363.5 717.62,-1343.36 712.79,-1321.2 707.99,-1304.19"/>
<polygon fill="#94a3b8" stroke="#94a3b8" points="711.39,-1303.35 705.18,-1294.77 704.69,-1305.36 711.39,-1303.35"/>
<text text-anchor="middle" x="722.12" y="-1613.08" font-family="Times,serif" font-size="14.00">5</text>
</g>
<!-- n59 -->
<g id="node44" class="node">
<title>n59</title>
<path fill="#f1f5f9" stroke="black" d="M888.12,-1203.25C888.12,-1203.25 767.12,-1203.25 767.12,-1203.25 761.12,-1203.25 755.12,-1197.25 755.12,-1191.25 755.12,-1191.25 755.12,-1178.75 755.12,-1178.75 755.12,-1172.75 761.12,-1166.75 767.12,-1166.75 767.12,-1166.75 888.12,-1166.75 888.12,-1166.75 894.12,-1166.75 900.12,-1172.75 900.12,-1178.75 900.12,-1178.75 900.12,-1191.25 900.12,-1191.25 900.12,-1197.25 894.12,-1203.25 888.12,-1203.25"/>
<text text-anchor="middle" x="827.62" y="-1189.75" font-family="sans" font-size="10.00">59: new_state&#45;0</text>
<text text-anchor="middle" x="827.62" y="-1175.5" font-family="sans" font-size="10.00">VIEW | f32 | 128x128x16x1</text>
</g>
<!-- n58&#45;&gt;n59 -->
<g id="edge51" class="edge">
<title>n58&#45;&gt;n59</title>
<path fill="none" stroke="#94a3b8" d="M724.42,-1256.2C743.93,-1242.93 770.94,-1224.56 792.43,-1209.94"/>
<polygon fill="#94a3b8" stroke="#94a3b8" points="794.32,-1212.89 800.62,-1204.37 790.39,-1207.1 794.32,-1212.89"/>
<text text-anchor="middle" x="780.12" y="-1225.2" font-family="Times,serif" font-size="14.00">0</text>
</g>
<!-- n62 -->
<g id="node47" class="node">
<title>n62</title>
<path fill="#f1f5f9" stroke="black" d="M725.12,-1203.25C725.12,-1203.25 616.12,-1203.25 616.12,-1203.25 610.12,-1203.25 604.12,-1197.25 604.12,-1191.25 604.12,-1191.25 604.12,-1178.75 604.12,-1178.75 604.12,-1172.75 610.12,-1166.75 616.12,-1166.75 616.12,-1166.75 725.12,-1166.75 725.12,-1166.75 731.12,-1166.75 737.12,-1172.75 737.12,-1178.75 737.12,-1178.75 737.12,-1191.25 737.12,-1191.25 737.12,-1197.25 731.12,-1203.25 725.12,-1203.25"/>
<text text-anchor="middle" x="670.62" y="-1189.75" font-family="sans" font-size="10.00">62: attn_output&#45;0</text>
<text text-anchor="middle" x="670.62" y="-1175.5" font-family="sans" font-size="10.00">VIEW | f32 | 128x16x1x1</text>
</g>
<!-- n58&#45;&gt;n62 -->
<g id="edge54" class="edge">
<title>n58&#45;&gt;n62</title>
<path fill="none" stroke="#94a3b8" d="M693.09,-1256.41C689.28,-1244.47 684.13,-1228.33 679.72,-1214.52"/>
<polygon fill="#94a3b8" stroke="#94a3b8" points="683.08,-1213.51 676.7,-1205.04 676.41,-1215.63 683.08,-1213.51"/>
<text text-anchor="middle" x="692.12" y="-1225.2" font-family="Times,serif" font-size="14.00">0</text>
</g>
<!-- n61 -->
<g id="node46" class="node">
<title>n61</title>
<path fill="#e2e8f0" stroke="black" d="M1018.38,-1113.5C1018.38,-1113.5 832.88,-1113.5 832.88,-1113.5 826.88,-1113.5 820.88,-1107.5 820.88,-1101.5 820.88,-1101.5 820.88,-1089 820.88,-1089 820.88,-1083 826.88,-1077 832.88,-1077 832.88,-1077 1018.38,-1077 1018.38,-1077 1024.38,-1077 1030.38,-1083 1030.38,-1089 1030.38,-1089 1030.38,-1101.5 1030.38,-1101.5 1030.38,-1107.5 1024.38,-1113.5 1018.38,-1113.5"/>
<text text-anchor="middle" x="925.62" y="-1100" font-family="sans" font-size="10.00">61: cache_s_l0 (view) (copy of new_state&#45;0)</text>
<text text-anchor="middle" x="925.62" y="-1085.75" font-family="sans" font-size="10.00">CPY | f32 | 262144x1x1x1</text>
</g>
<!-- n59&#45;&gt;n61 -->
<g id="edge52" class="edge">
<title>n59&#45;&gt;n61</title>
<path fill="none" stroke="#94a3b8" d="M846.99,-1166.66C861.39,-1153.77 881.26,-1135.97 897.43,-1121.5"/>
<polygon fill="#94a3b8" stroke="#94a3b8" points="899.73,-1124.14 904.84,-1114.86 895.06,-1118.92 899.73,-1124.14"/>
<text text-anchor="middle" x="890.12" y="-1135.45" font-family="Times,serif" font-size="14.00">0</text>
</g>
<!-- n60 -->
<g id="node45" class="node">
<title>n60</title>
<path fill="#f1f5f9" stroke="black" d="M1051.12,-1203.25C1051.12,-1203.25 930.12,-1203.25 930.12,-1203.25 924.12,-1203.25 918.12,-1197.25 918.12,-1191.25 918.12,-1191.25 918.12,-1178.75 918.12,-1178.75 918.12,-1172.75 924.12,-1166.75 930.12,-1166.75 930.12,-1166.75 1051.12,-1166.75 1051.12,-1166.75 1057.12,-1166.75 1063.12,-1172.75 1063.12,-1178.75 1063.12,-1178.75 1063.12,-1191.25 1063.12,-1191.25 1063.12,-1197.25 1057.12,-1203.25 1051.12,-1203.25"/>
<text text-anchor="middle" x="990.62" y="-1189.75" font-family="sans" font-size="10.00">60: cache_s_l0 (view)</text>
<text text-anchor="middle" x="990.62" y="-1175.5" font-family="sans" font-size="10.00">VIEW | f32 | 262144x1x1x1</text>
</g>
<!-- n60&#45;&gt;n61 -->
<g id="edge53" class="edge">
<title>n60&#45;&gt;n61</title>
<path fill="none" stroke="#94a3b8" d="M977.78,-1166.66C968.5,-1154.13 955.78,-1136.96 945.23,-1122.71"/>
<polygon fill="#94a3b8" stroke="#94a3b8" points="948.33,-1121.02 939.56,-1115.07 942.7,-1125.19 948.33,-1121.02"/>
<text text-anchor="middle" x="968.12" y="-1135.45" font-family="Times,serif" font-size="14.00">1</text>
</g>
<!-- n63 -->
<g id="node48" class="node">
<title>n63</title>
<path fill="#fef3c7" stroke="black" d="M740.5,-1113.5C740.5,-1113.5 600.75,-1113.5 600.75,-1113.5 594.75,-1113.5 588.75,-1107.5 588.75,-1101.5 588.75,-1101.5 588.75,-1089 588.75,-1089 588.75,-1083 594.75,-1077 600.75,-1077 600.75,-1077 740.5,-1077 740.5,-1077 746.5,-1077 752.5,-1083 752.5,-1089 752.5,-1089 752.5,-1101.5 752.5,-1101.5 752.5,-1107.5 746.5,-1113.5 740.5,-1113.5"/>
<text text-anchor="middle" x="670.62" y="-1100" font-family="sans" font-size="10.00">63: norm&#45;0</text>
<text text-anchor="middle" x="670.62" y="-1085.75" font-family="sans" font-size="10.00">RMS_NORM | f32 | 128x16x1x1</text>
</g>
<!-- n62&#45;&gt;n63 -->
<g id="edge55" class="edge">
<title>n62&#45;&gt;n63</title>
<path fill="none" stroke="#94a3b8" d="M670.62,-1166.66C670.62,-1154.84 670.62,-1138.9 670.62,-1125.18"/>
<polygon fill="#94a3b8" stroke="#94a3b8" points="674.13,-1125.36 670.63,-1115.36 667.13,-1125.36 674.13,-1125.36"/>
<text text-anchor="middle" x="675.12" y="-1135.45" font-family="Times,serif" font-size="14.00">0</text>
</g>
<!-- n64 -->
<g id="node49" class="node">
<title>n64</title>
<path fill="#fef3c7" stroke="black" d="M661,-1023.75C661,-1023.75 554.25,-1023.75 554.25,-1023.75 548.25,-1023.75 542.25,-1017.75 542.25,-1011.75 542.25,-1011.75 542.25,-999.25 542.25,-999.25 542.25,-993.25 548.25,-987.25 554.25,-987.25 554.25,-987.25 661,-987.25 661,-987.25 667,-987.25 673,-993.25 673,-999.25 673,-999.25 673,-1011.75 673,-1011.75 673,-1017.75 667,-1023.75 661,-1023.75"/>
<text text-anchor="middle" x="607.62" y="-1010.25" font-family="sans" font-size="10.00">64: node_52</text>
<text text-anchor="middle" x="607.62" y="-996" font-family="sans" font-size="10.00">MUL | f32 | 128x16x1x1</text>
</g>
<!-- n63&#45;&gt;n64 -->
<g id="edge56" class="edge">
<title>n63&#45;&gt;n64</title>
<path fill="none" stroke="#94a3b8" d="M658.18,-1076.91C649.26,-1064.5 637.09,-1047.53 626.92,-1033.37"/>
<polygon fill="#94a3b8" stroke="#94a3b8" points="629.82,-1031.41 621.14,-1025.33 624.13,-1035.49 629.82,-1031.41"/>
<text text-anchor="middle" x="650.12" y="-1045.7" font-family="Times,serif" font-size="14.00">0</text>
</g>
<!-- n70 -->
<g id="node55" class="node">
<title>n70</title>
<path fill="#fef3c7" stroke="black" d="M661,-934C661,-934 554.25,-934 554.25,-934 548.25,-934 542.25,-928 542.25,-922 542.25,-922 542.25,-909.5 542.25,-909.5 542.25,-903.5 548.25,-897.5 554.25,-897.5 554.25,-897.5 661,-897.5 661,-897.5 667,-897.5 673,-903.5 673,-909.5 673,-909.5 673,-922 673,-922 673,-928 667,-934 661,-934"/>
<text text-anchor="middle" x="607.62" y="-920.5" font-family="sans" font-size="10.00">70: node_56</text>
<text text-anchor="middle" x="607.62" y="-906.25" font-family="sans" font-size="10.00">MUL | f32 | 128x16x1x1</text>
</g>
<!-- n64&#45;&gt;n70 -->
<g id="edge62" class="edge">
<title>n64&#45;&gt;n70</title>
<path fill="none" stroke="#94a3b8" d="M607.62,-987.16C607.62,-975.34 607.62,-959.4 607.62,-945.68"/>
<polygon fill="#94a3b8" stroke="#94a3b8" points="611.13,-945.86 607.63,-935.86 604.13,-945.86 611.13,-945.86"/>
<text text-anchor="middle" x="612.12" y="-955.95" font-family="Times,serif" font-size="14.00">0</text>
</g>
<!-- n65 -->
<g id="node50" class="node">
<title>n65</title>
<path fill="#f1f5f9" stroke="black" d="M558.25,-1113.5C558.25,-1113.5 441,-1113.5 441,-1113.5 435,-1113.5 429,-1107.5 429,-1101.5 429,-1101.5 429,-1089 429,-1089 429,-1083 435,-1077 441,-1077 441,-1077 558.25,-1077 558.25,-1077 564.25,-1077 570.25,-1083 570.25,-1089 570.25,-1089 570.25,-1101.5 570.25,-1101.5 570.25,-1107.5 564.25,-1113.5 558.25,-1113.5"/>
<text text-anchor="middle" x="499.62" y="-1100" font-family="sans" font-size="10.00">65: blk.0.ssm_norm.weight</text>
<text text-anchor="middle" x="499.62" y="-1085.75" font-family="sans" font-size="10.00">NONE | f32 | 128x1x1x1</text>
</g>
<!-- n65&#45;&gt;n64 -->
<g id="edge57" class="edge">
<title>n65&#45;&gt;n64</title>
<path fill="none" stroke="#94a3b8" d="M521.22,-1076.7C537.26,-1063.67 559.35,-1045.72 577.19,-1031.23"/>
<polygon fill="#94a3b8" stroke="#94a3b8" points="579.34,-1033.99 584.89,-1024.97 574.92,-1028.56 579.34,-1033.99"/>
<text text-anchor="middle" x="568.12" y="-1045.7" font-family="Times,serif" font-size="14.00">1</text>
</g>
<!-- n68 -->
<g id="node53" class="node">
<title>n68</title>
<path fill="#f1f5f9" stroke="black" d="M1468.12,-2107.25C1468.12,-2107.25 1341.12,-2107.25 1341.12,-2107.25 1335.12,-2107.25 1329.12,-2101.25 1329.12,-2095.25 1329.12,-2095.25 1329.12,-2082.75 1329.12,-2082.75 1329.12,-2076.75 1335.12,-2070.75 1341.12,-2070.75 1341.12,-2070.75 1468.12,-2070.75 1468.12,-2070.75 1474.12,-2070.75 1480.12,-2076.75 1480.12,-2082.75 1480.12,-2082.75 1480.12,-2095.25 1480.12,-2095.25 1480.12,-2101.25 1474.12,-2107.25 1468.12,-2107.25"/>
<text text-anchor="middle" x="1404.62" y="-2093.75" font-family="sans" font-size="10.00">68: z&#45;0 (reshaped)</text>
<text text-anchor="middle" x="1404.62" y="-2079.5" font-family="sans" font-size="10.00">RESHAPE | f32 | 128x16x1x1</text>
</g>
<!-- n66&#45;&gt;n68 -->
<g id="edge60" class="edge">
<title>n66&#45;&gt;n68</title>
<path fill="none" stroke="#94a3b8" d="M1404.62,-2179.33C1404.62,-2162.99 1404.62,-2138.4 1404.62,-2119.15"/>
<polygon fill="#94a3b8" stroke="#94a3b8" points="1408.13,-2119.21 1404.63,-2109.21 1401.13,-2119.21 1408.13,-2119.21"/>
<text text-anchor="middle" x="1409.12" y="-2138.82" font-family="Times,serif" font-size="14.00">0</text>
</g>
<!-- n67 -->
<g id="node52" class="node">
<title>n67</title>
<path fill="#f1f5f9" stroke="black" d="M1475,-2306C1475,-2306 1338.25,-2306 1338.25,-2306 1332.25,-2306 1326.25,-2300 1326.25,-2294 1326.25,-2294 1326.25,-2281.5 1326.25,-2281.5 1326.25,-2275.5 1332.25,-2269.5 1338.25,-2269.5 1338.25,-2269.5 1475,-2269.5 1475,-2269.5 1481,-2269.5 1487,-2275.5 1487,-2281.5 1487,-2281.5 1487,-2294 1487,-2294 1487,-2300 1481,-2306 1475,-2306"/>
<text text-anchor="middle" x="1406.62" y="-2292.5" font-family="sans" font-size="10.00">67: blk.0.attn_gate.weight</text>
<text text-anchor="middle" x="1406.62" y="-2278.25" font-family="sans" font-size="10.00">NONE | bf16 | 2048x2048x1x1</text>
</g>
<!-- n67&#45;&gt;n66 -->
<g id="edge58" class="edge">
<title>n67&#45;&gt;n66</title>
<path fill="none" stroke="#94a3b8" d="M1406.23,-2269.41C1405.96,-2257.59 1405.6,-2241.65 1405.28,-2227.93"/>
<polygon fill="#94a3b8" stroke="#94a3b8" points="1408.79,-2228.03 1405.06,-2218.11 1401.79,-2228.19 1408.79,-2228.03"/>
<text text-anchor="middle" x="1410.12" y="-2238.2" font-family="Times,serif" font-size="14.00">0</text>
</g>
<!-- n69 -->
<g id="node54" class="node">
<title>n69</title>
<path fill="#fef3c7" stroke="black" d="M1159,-1854C1159,-1854 1052.25,-1854 1052.25,-1854 1046.25,-1854 1040.25,-1848 1040.25,-1842 1040.25,-1842 1040.25,-1829.5 1040.25,-1829.5 1040.25,-1823.5 1046.25,-1817.5 1052.25,-1817.5 1052.25,-1817.5 1159,-1817.5 1159,-1817.5 1165,-1817.5 1171,-1823.5 1171,-1829.5 1171,-1829.5 1171,-1842 1171,-1842 1171,-1848 1165,-1854 1159,-1854"/>
<text text-anchor="middle" x="1105.62" y="-1840.5" font-family="sans" font-size="10.00">69: node_55</text>
<text text-anchor="middle" x="1105.62" y="-1826.25" font-family="sans" font-size="10.00">SILU | f32 | 128x16x1x1</text>
</g>
<!-- n68&#45;&gt;n69 -->
<g id="edge61" class="edge">
<title>n68&#45;&gt;n69</title>
<path fill="none" stroke="#94a3b8" d="M1387.94,-2070.32C1350.76,-2031.51 1257.27,-1937.09 1167.62,-1872 1161.97,-1867.89 1155.8,-1863.89 1149.6,-1860.13"/>
<polygon fill="#94a3b8" stroke="#94a3b8" points="1151.64,-1857.27 1141.24,-1855.23 1148.1,-1863.3 1151.64,-1857.27"/>
<text text-anchor="middle" x="1338.12" y="-1994.58" font-family="Times,serif" font-size="14.00">0</text>
</g>
<!-- n69&#45;&gt;n70 -->
<g id="edge63" class="edge">
<title>n69&#45;&gt;n70</title>
<path fill="none" stroke="#94a3b8" d="M1104.05,-1817.35C1102.27,-1796.19 1099.62,-1759.38 1099.62,-1727.75 1099.62,-1727.75 1099.62,-1727.75 1099.62,-1004.5 1099.62,-962.88 823.29,-934.36 684.81,-922.68"/>
<polygon fill="#94a3b8" stroke="#94a3b8" points="685.23,-919.2 674.98,-921.86 684.65,-926.18 685.23,-919.2"/>
<text text-anchor="middle" x="1104.12" y="-1359.83" font-family="Times,serif" font-size="14.00">1</text>
</g>
<!-- n71 -->
<g id="node56" class="node">
<title>n71</title>
<path fill="#f1f5f9" stroke="black" d="M639.12,-844.25C639.12,-844.25 512.12,-844.25 512.12,-844.25 506.12,-844.25 500.12,-838.25 500.12,-832.25 500.12,-832.25 500.12,-819.75 500.12,-819.75 500.12,-813.75 506.12,-807.75 512.12,-807.75 512.12,-807.75 639.12,-807.75 639.12,-807.75 645.12,-807.75 651.12,-813.75 651.12,-819.75 651.12,-819.75 651.12,-832.25 651.12,-832.25 651.12,-838.25 645.12,-844.25 639.12,-844.25"/>
<text text-anchor="middle" x="575.62" y="-830.75" font-family="sans" font-size="10.00">71: final_output&#45;0</text>
<text text-anchor="middle" x="575.62" y="-816.5" font-family="sans" font-size="10.00">RESHAPE | f32 | 2048x1x1x1</text>
</g>
<!-- n70&#45;&gt;n71 -->
<g id="edge64" class="edge">
<title>n70&#45;&gt;n71</title>
<path fill="none" stroke="#94a3b8" d="M601.3,-897.41C596.9,-885.35 590.94,-869.01 585.87,-855.1"/>
<polygon fill="#94a3b8" stroke="#94a3b8" points="589.28,-854.22 582.56,-846.02 582.7,-856.62 589.28,-854.22"/>
<text text-anchor="middle" x="599.12" y="-866.2" font-family="Times,serif" font-size="14.00">0</text>
</g>
<!-- n72 -->
<g id="node57" class="node">
<title>n72</title>
<path fill="#dbeafe" stroke="black" d="M436.38,-754.5C436.38,-754.5 304.88,-754.5 304.88,-754.5 298.88,-754.5 292.88,-748.5 292.88,-742.5 292.88,-742.5 292.88,-730 292.88,-730 292.88,-724 298.88,-718 304.88,-718 304.88,-718 436.38,-718 436.38,-718 442.38,-718 448.38,-724 448.38,-730 448.38,-730 448.38,-742.5 448.38,-742.5 448.38,-748.5 442.38,-754.5 436.38,-754.5"/>
<text text-anchor="middle" x="370.62" y="-741" font-family="sans" font-size="10.00">72: linear_attn_out&#45;0</text>
<text text-anchor="middle" x="370.62" y="-726.75" font-family="sans" font-size="10.00">MUL_MAT | f32 | 2048x1x1x1</text>
</g>
<!-- n71&#45;&gt;n72 -->
<g id="edge66" class="edge">
<title>n71&#45;&gt;n72</title>
<path fill="none" stroke="#94a3b8" d="M534.63,-807.45C502.34,-793.63 457.11,-774.27 422.33,-759.38"/>
<polygon fill="#94a3b8" stroke="#94a3b8" points="423.86,-756.23 413.29,-755.51 421.1,-762.66 423.86,-756.23"/>
<text text-anchor="middle" x="496.12" y="-776.45" font-family="Times,serif" font-size="14.00">1</text>
</g>
<!-- n74 -->
<g id="node59" class="node">
<title>n74</title>
<path fill="#f1f5f9" stroke="black" d="M366.5,-664.75C366.5,-664.75 226.75,-664.75 226.75,-664.75 220.75,-664.75 214.75,-658.75 214.75,-652.75 214.75,-652.75 214.75,-640.25 214.75,-640.25 214.75,-634.25 220.75,-628.25 226.75,-628.25 226.75,-628.25 366.5,-628.25 366.5,-628.25 372.5,-628.25 378.5,-634.25 378.5,-640.25 378.5,-640.25 378.5,-652.75 378.5,-652.75 378.5,-658.75 372.5,-664.75 366.5,-664.75"/>
<text text-anchor="middle" x="296.62" y="-651.25" font-family="sans" font-size="10.00">74: linear_attn_out&#45;0 (reshaped)</text>
<text text-anchor="middle" x="296.62" y="-637" font-family="sans" font-size="10.00">RESHAPE | f32 | 2048x1x1x1</text>
</g>
<!-- n72&#45;&gt;n74 -->
<g id="edge67" class="edge">
<title>n72&#45;&gt;n74</title>
<path fill="none" stroke="#94a3b8" d="M356,-717.91C345.33,-705.26 330.68,-687.88 318.6,-673.56"/>
<polygon fill="#94a3b8" stroke="#94a3b8" points="321.57,-671.65 312.44,-666.26 316.21,-676.16 321.57,-671.65"/>
<text text-anchor="middle" x="345.12" y="-686.7" font-family="Times,serif" font-size="14.00">0</text>
</g>
<!-- n73 -->
<g id="node58" class="node">
<title>n73</title>
<path fill="#f1f5f9" stroke="black" d="M439,-844.25C439,-844.25 302.25,-844.25 302.25,-844.25 296.25,-844.25 290.25,-838.25 290.25,-832.25 290.25,-832.25 290.25,-819.75 290.25,-819.75 290.25,-813.75 296.25,-807.75 302.25,-807.75 302.25,-807.75 439,-807.75 439,-807.75 445,-807.75 451,-813.75 451,-819.75 451,-819.75 451,-832.25 451,-832.25 451,-838.25 445,-844.25 439,-844.25"/>
<text text-anchor="middle" x="370.62" y="-830.75" font-family="sans" font-size="10.00">73: blk.0.ssm_out.weight</text>
<text text-anchor="middle" x="370.62" y="-816.5" font-family="sans" font-size="10.00">NONE | bf16 | 2048x2048x1x1</text>
</g>
<!-- n73&#45;&gt;n72 -->
<g id="edge65" class="edge">
<title>n73&#45;&gt;n72</title>
<path fill="none" stroke="#94a3b8" d="M370.62,-807.66C370.62,-795.84 370.62,-779.9 370.62,-766.18"/>
<polygon fill="#94a3b8" stroke="#94a3b8" points="374.13,-766.36 370.63,-756.36 367.13,-766.36 374.13,-766.36"/>
<text text-anchor="middle" x="375.12" y="-776.45" font-family="Times,serif" font-size="14.00">0</text>
</g>
<!-- n74&#45;&gt;n75 -->
<g id="edge68" class="edge">
<title>n74&#45;&gt;n75</title>
<path fill="none" stroke="#94a3b8" d="M252.97,-627.85C218.62,-613.95 170.56,-594.52 133.75,-579.64"/>
<polygon fill="#94a3b8" stroke="#94a3b8" points="135.19,-576.45 124.61,-575.94 132.57,-582.93 135.19,-576.45"/>
<text text-anchor="middle" x="212.12" y="-596.95" font-family="Times,serif" font-size="14.00">0</text>
</g>
<!-- n76 -->
<g id="node61" class="node">
<title>n76</title>
<path fill="#fef3c7" stroke="black" d="M451.5,-485.25C451.5,-485.25 311.75,-485.25 311.75,-485.25 305.75,-485.25 299.75,-479.25 299.75,-473.25 299.75,-473.25 299.75,-460.75 299.75,-460.75 299.75,-454.75 305.75,-448.75 311.75,-448.75 311.75,-448.75 451.5,-448.75 451.5,-448.75 457.5,-448.75 463.5,-454.75 463.5,-460.75 463.5,-460.75 463.5,-473.25 463.5,-473.25 463.5,-479.25 457.5,-485.25 451.5,-485.25"/>
<text text-anchor="middle" x="381.62" y="-471.75" font-family="sans" font-size="10.00">76: norm&#45;0</text>
<text text-anchor="middle" x="381.62" y="-457.5" font-family="sans" font-size="10.00">RMS_NORM | f32 | 2048x1x1x1</text>
</g>
<!-- n75&#45;&gt;n76 -->
<g id="edge70" class="edge">
<title>n75&#45;&gt;n76</title>
<path fill="none" stroke="#94a3b8" d="M140.38,-538.1C189.34,-523.87 258.31,-503.83 309.97,-488.82"/>
<polygon fill="#94a3b8" stroke="#94a3b8" points="310.63,-492.27 319.26,-486.12 308.68,-485.55 310.63,-492.27"/>
<text text-anchor="middle" x="263.12" y="-507.2" font-family="Times,serif" font-size="14.00">0</text>
</g>
<!-- n86 -->
<g id="node71" class="node">
<title>n86</title>
<path fill="#fef3c7" stroke="black" d="M133,-36.5C133,-36.5 26.25,-36.5 26.25,-36.5 20.25,-36.5 14.25,-30.5 14.25,-24.5 14.25,-24.5 14.25,-12 14.25,-12 14.25,-6 20.25,0 26.25,0 26.25,0 133,0 133,0 139,0 145,-6 145,-12 145,-12 145,-24.5 145,-24.5 145,-30.5 139,-36.5 133,-36.5"/>
<text text-anchor="middle" x="79.62" y="-23" font-family="sans" font-size="10.00">86: l_out&#45;0</text>
<text text-anchor="middle" x="79.62" y="-8.75" font-family="sans" font-size="10.00">ADD | f32 | 2048x1x1x1</text>
</g>
<!-- n75&#45;&gt;n86 -->
<g id="edge82" class="edge">
<title>n75&#45;&gt;n86</title>
<path fill="none" stroke="#94a3b8" d="M74.47,-538.11C69.8,-520.51 63.62,-492.62 63.62,-468 63.62,-468 63.62,-468 63.62,-107 63.62,-86.99 67.7,-64.83 71.74,-47.79"/>
<polygon fill="#94a3b8" stroke="#94a3b8" points="75.06,-48.91 74.11,-38.36 68.27,-47.21 75.06,-48.91"/>
<text text-anchor="middle" x="68.12" y="-282.82" font-family="Times,serif" font-size="14.00">1</text>
</g>
<!-- n77 -->
<g id="node62" class="node">
<title>n77</title>
<path fill="#fef3c7" stroke="black" d="M398,-395.5C398,-395.5 291.25,-395.5 291.25,-395.5 285.25,-395.5 279.25,-389.5 279.25,-383.5 279.25,-383.5 279.25,-371 279.25,-371 279.25,-365 285.25,-359 291.25,-359 291.25,-359 398,-359 398,-359 404,-359 410,-365 410,-371 410,-371 410,-383.5 410,-383.5 410,-389.5 404,-395.5 398,-395.5"/>
<text text-anchor="middle" x="344.62" y="-382" font-family="sans" font-size="10.00">77: attn_post_norm&#45;0</text>
<text text-anchor="middle" x="344.62" y="-367.75" font-family="sans" font-size="10.00">MUL | f32 | 2048x1x1x1</text>
</g>
<!-- n76&#45;&gt;n77 -->
<g id="edge71" class="edge">
<title>n76&#45;&gt;n77</title>
<path fill="none" stroke="#94a3b8" d="M374.31,-448.66C369.23,-436.6 362.34,-420.26 356.47,-406.35"/>
<polygon fill="#94a3b8" stroke="#94a3b8" points="359.74,-405.1 352.63,-397.25 353.29,-407.82 359.74,-405.1"/>
<text text-anchor="middle" x="371.12" y="-417.45" font-family="Times,serif" font-size="14.00">0</text>
</g>
<!-- n79 -->
<g id="node64" class="node">
<title>n79</title>
<path fill="#dbeafe" stroke="black" d="M359.38,-305.75C359.38,-305.75 227.88,-305.75 227.88,-305.75 221.88,-305.75 215.88,-299.75 215.88,-293.75 215.88,-293.75 215.88,-281.25 215.88,-281.25 215.88,-275.25 221.88,-269.25 227.88,-269.25 227.88,-269.25 359.38,-269.25 359.38,-269.25 365.38,-269.25 371.38,-275.25 371.38,-281.25 371.38,-281.25 371.38,-293.75 371.38,-293.75 371.38,-299.75 365.38,-305.75 359.38,-305.75"/>
<text text-anchor="middle" x="293.62" y="-292.25" font-family="sans" font-size="10.00">79: ffn_gate&#45;0</text>
<text text-anchor="middle" x="293.62" y="-278" font-family="sans" font-size="10.00">MUL_MAT | f32 | 6144x1x1x1</text>
</g>
<!-- n77&#45;&gt;n79 -->
<g id="edge74" class="edge">
<title>n77&#45;&gt;n79</title>
<path fill="none" stroke="#94a3b8" d="M334.55,-358.91C327.4,-346.61 317.66,-329.86 309.48,-315.78"/>
<polygon fill="#94a3b8" stroke="#94a3b8" points="312.67,-314.3 304.62,-307.41 306.61,-317.81 312.67,-314.3"/>
<text text-anchor="middle" x="329.12" y="-327.7" font-family="Times,serif" font-size="14.00">1</text>
</g>
<!-- n81 -->
<g id="node66" class="node">
<title>n81</title>
<path fill="#dbeafe" stroke="black" d="M533.38,-305.75C533.38,-305.75 401.88,-305.75 401.88,-305.75 395.88,-305.75 389.88,-299.75 389.88,-293.75 389.88,-293.75 389.88,-281.25 389.88,-281.25 389.88,-275.25 395.88,-269.25 401.88,-269.25 401.88,-269.25 533.38,-269.25 533.38,-269.25 539.38,-269.25 545.38,-275.25 545.38,-281.25 545.38,-281.25 545.38,-293.75 545.38,-293.75 545.38,-299.75 539.38,-305.75 533.38,-305.75"/>
<text text-anchor="middle" x="467.62" y="-292.25" font-family="sans" font-size="10.00">81: ffn_up&#45;0</text>
<text text-anchor="middle" x="467.62" y="-278" font-family="sans" font-size="10.00">MUL_MAT | f32 | 6144x1x1x1</text>
</g>
<!-- n77&#45;&gt;n81 -->
<g id="edge76" class="edge">
<title>n77&#45;&gt;n81</title>
<path fill="none" stroke="#94a3b8" d="M369.22,-358.7C387.74,-345.49 413.34,-327.22 433.79,-312.64"/>
<polygon fill="#94a3b8" stroke="#94a3b8" points="435.73,-315.55 441.84,-306.9 431.67,-309.85 435.73,-315.55"/>
<text text-anchor="middle" x="422.12" y="-327.7" font-family="Times,serif" font-size="14.00">1</text>
</g>
<!-- n78 -->
<g id="node63" class="node">
<title>n78</title>
<path fill="#f1f5f9" stroke="black" d="M270,-485.25C270,-485.25 103.25,-485.25 103.25,-485.25 97.25,-485.25 91.25,-479.25 91.25,-473.25 91.25,-473.25 91.25,-460.75 91.25,-460.75 91.25,-454.75 97.25,-448.75 103.25,-448.75 103.25,-448.75 270,-448.75 270,-448.75 276,-448.75 282,-454.75 282,-460.75 282,-460.75 282,-473.25 282,-473.25 282,-479.25 276,-485.25 270,-485.25"/>
<text text-anchor="middle" x="186.62" y="-471.75" font-family="sans" font-size="10.00">78: blk.0.post_attention_norm.weight</text>
<text text-anchor="middle" x="186.62" y="-457.5" font-family="sans" font-size="10.00">NONE | f32 | 2048x1x1x1</text>
</g>
<!-- n78&#45;&gt;n77 -->
<g id="edge72" class="edge">
<title>n78&#45;&gt;n77</title>
<path fill="none" stroke="#94a3b8" d="M218.22,-448.45C242.57,-434.93 276.47,-416.1 303.03,-401.35"/>
<polygon fill="#94a3b8" stroke="#94a3b8" points="304.45,-404.57 311.49,-396.65 301.05,-398.45 304.45,-404.57"/>
<text text-anchor="middle" x="285.12" y="-417.45" font-family="Times,serif" font-size="14.00">1</text>
</g>
<!-- n83 -->
<g id="node68" class="node">
<title>n83</title>
<path fill="#fef3c7" stroke="black" d="M405.25,-216C405.25,-216 282,-216 282,-216 276,-216 270,-210 270,-204 270,-204 270,-191.5 270,-191.5 270,-185.5 276,-179.5 282,-179.5 282,-179.5 405.25,-179.5 405.25,-179.5 411.25,-179.5 417.25,-185.5 417.25,-191.5 417.25,-191.5 417.25,-204 417.25,-204 417.25,-210 411.25,-216 405.25,-216"/>
<text text-anchor="middle" x="343.62" y="-202.5" font-family="sans" font-size="10.00">83: ffn_swiglu&#45;0</text>
<text text-anchor="middle" x="343.62" y="-188.25" font-family="sans" font-size="10.00">SWIGLU | f32 | 6144x1x1x1</text>
</g>
<!-- n79&#45;&gt;n83 -->
<g id="edge77" class="edge">
<title>n79&#45;&gt;n83</title>
<path fill="none" stroke="#94a3b8" d="M303.5,-269.16C310.51,-256.86 320.06,-240.11 328.08,-226.03"/>
<polygon fill="#94a3b8" stroke="#94a3b8" points="330.94,-228.09 332.85,-217.67 324.85,-224.62 330.94,-228.09"/>
<text text-anchor="middle" x="328.12" y="-237.95" font-family="Times,serif" font-size="14.00">0</text>
</g>
<!-- n80 -->
<g id="node65" class="node">
<title>n80</title>
<path fill="#f1f5f9" stroke="black" d="M249,-395.5C249,-395.5 112.25,-395.5 112.25,-395.5 106.25,-395.5 100.25,-389.5 100.25,-383.5 100.25,-383.5 100.25,-371 100.25,-371 100.25,-365 106.25,-359 112.25,-359 112.25,-359 249,-359 249,-359 255,-359 261,-365 261,-371 261,-371 261,-383.5 261,-383.5 261,-389.5 255,-395.5 249,-395.5"/>
<text text-anchor="middle" x="180.62" y="-382" font-family="sans" font-size="10.00">80: blk.0.ffn_gate.weight</text>
<text text-anchor="middle" x="180.62" y="-367.75" font-family="sans" font-size="10.00">NONE | bf16 | 2048x6144x1x1</text>
</g>
<!-- n80&#45;&gt;n79 -->
<g id="edge73" class="edge">
<title>n80&#45;&gt;n79</title>
<path fill="none" stroke="#94a3b8" d="M203.22,-358.7C220.08,-345.61 243.33,-327.55 262.03,-313.03"/>
<polygon fill="#94a3b8" stroke="#94a3b8" points="264.12,-315.84 269.87,-306.94 259.83,-310.31 264.12,-315.84"/>
<text text-anchor="middle" x="252.12" y="-327.7" font-family="Times,serif" font-size="14.00">0</text>
</g>
<!-- n81&#45;&gt;n83 -->
<g id="edge78" class="edge">
<title>n81&#45;&gt;n83</title>
<path fill="none" stroke="#94a3b8" d="M442.83,-268.95C424.16,-255.74 398.35,-237.47 377.73,-222.89"/>
<polygon fill="#94a3b8" stroke="#94a3b8" points="379.8,-220.06 369.61,-217.14 375.75,-225.77 379.8,-220.06"/>
<text text-anchor="middle" x="422.12" y="-237.95" font-family="Times,serif" font-size="14.00">1</text>
</g>
<!-- n82 -->
<g id="node67" class="node">
<title>n82</title>
<path fill="#f1f5f9" stroke="black" d="M577,-395.5C577,-395.5 440.25,-395.5 440.25,-395.5 434.25,-395.5 428.25,-389.5 428.25,-383.5 428.25,-383.5 428.25,-371 428.25,-371 428.25,-365 434.25,-359 440.25,-359 440.25,-359 577,-359 577,-359 583,-359 589,-365 589,-371 589,-371 589,-383.5 589,-383.5 589,-389.5 583,-395.5 577,-395.5"/>
<text text-anchor="middle" x="508.62" y="-382" font-family="sans" font-size="10.00">82: blk.0.ffn_up.weight</text>
<text text-anchor="middle" x="508.62" y="-367.75" font-family="sans" font-size="10.00">NONE | bf16 | 2048x6144x1x1</text>
</g>
<!-- n82&#45;&gt;n81 -->
<g id="edge75" class="edge">
<title>n82&#45;&gt;n81</title>
<path fill="none" stroke="#94a3b8" d="M500.52,-358.91C494.83,-346.73 487.1,-330.18 480.56,-316.19"/>
<polygon fill="#94a3b8" stroke="#94a3b8" points="483.89,-315.05 476.49,-307.47 477.55,-318.01 483.89,-315.05"/>
<text text-anchor="middle" x="497.12" y="-327.7" font-family="Times,serif" font-size="14.00">0</text>
</g>
<!-- n84 -->
<g id="node69" class="node">
<title>n84</title>
<path fill="#dbeafe" stroke="black" d="M237.38,-126.25C237.38,-126.25 105.88,-126.25 105.88,-126.25 99.88,-126.25 93.88,-120.25 93.88,-114.25 93.88,-114.25 93.88,-101.75 93.88,-101.75 93.88,-95.75 99.88,-89.75 105.88,-89.75 105.88,-89.75 237.38,-89.75 237.38,-89.75 243.38,-89.75 249.38,-95.75 249.38,-101.75 249.38,-101.75 249.38,-114.25 249.38,-114.25 249.38,-120.25 243.38,-126.25 237.38,-126.25"/>
<text text-anchor="middle" x="171.62" y="-112.75" font-family="sans" font-size="10.00">84: ffn_out&#45;0</text>
<text text-anchor="middle" x="171.62" y="-98.5" font-family="sans" font-size="10.00">MUL_MAT | f32 | 2048x1x1x1</text>
</g>
<!-- n83&#45;&gt;n84 -->
<g id="edge80" class="edge">
<title>n83&#45;&gt;n84</title>
<path fill="none" stroke="#94a3b8" d="M309.23,-179.2C282.48,-165.56 245.17,-146.52 216.14,-131.71"/>
<polygon fill="#94a3b8" stroke="#94a3b8" points="218.1,-128.78 207.6,-127.35 214.92,-135.02 218.1,-128.78"/>
<text text-anchor="middle" x="278.12" y="-148.2" font-family="Times,serif" font-size="14.00">1</text>
</g>
<!-- n84&#45;&gt;n86 -->
<g id="edge81" class="edge">
<title>n84&#45;&gt;n86</title>
<path fill="none" stroke="#94a3b8" d="M153.45,-89.66C139.93,-76.77 121.27,-58.97 106.1,-44.5"/>
<polygon fill="#94a3b8" stroke="#94a3b8" points="108.83,-42.26 99.17,-37.9 103.99,-47.33 108.83,-42.26"/>
<text text-anchor="middle" x="139.12" y="-58.45" font-family="Times,serif" font-size="14.00">0</text>
</g>
<!-- n85 -->
<g id="node70" class="node">
<title>n85</title>
<path fill="#f1f5f9" stroke="black" d="M240,-216C240,-216 103.25,-216 103.25,-216 97.25,-216 91.25,-210 91.25,-204 91.25,-204 91.25,-191.5 91.25,-191.5 91.25,-185.5 97.25,-179.5 103.25,-179.5 103.25,-179.5 240,-179.5 240,-179.5 246,-179.5 252,-185.5 252,-191.5 252,-191.5 252,-204 252,-204 252,-210 246,-216 240,-216"/>
<text text-anchor="middle" x="171.62" y="-202.5" font-family="sans" font-size="10.00">85: blk.0.ffn_down.weight</text>
<text text-anchor="middle" x="171.62" y="-188.25" font-family="sans" font-size="10.00">NONE | bf16 | 6144x2048x1x1</text>
</g>
<!-- n85&#45;&gt;n84 -->
<g id="edge79" class="edge">
<title>n85&#45;&gt;n84</title>
<path fill="none" stroke="#94a3b8" d="M171.62,-179.41C171.62,-167.59 171.62,-151.65 171.62,-137.93"/>
<polygon fill="#94a3b8" stroke="#94a3b8" points="175.13,-138.11 171.63,-128.11 168.13,-138.11 175.13,-138.11"/>
<text text-anchor="middle" x="176.12" y="-148.2" font-family="Times,serif" font-size="14.00">0</text>
</g>
</g>
</svg>
