<?xml version="1.0" encoding="UTF-8" standalone="no"?>
<!DOCTYPE svg PUBLIC "-//W3C//DTD SVG 1.1//EN"
 "http://www.w3.org/Graphics/SVG/1.1/DTD/svg11.dtd">
<!-- Generated by graphviz version 16.1.0 (20260904.0139)
 -->
<!-- Title: G Pages: 1 -->
<svg width="1487pt" height="2124pt"
 viewBox="0.00 0.00 1487.00 2124.00" xmlns="http://www.w3.org/2000/svg" xmlns:xlink="http://www.w3.org/1999/xlink">
<g id="graph0" class="graph" transform="scale(1 1) rotate(0) translate(4 2120.25)">
<title>G</title>
<polygon fill="white" stroke="none" points="-4,4 -4,-2120.25 1482.5,-2120.25 1482.5,4 -4,4"/>
<text xml:space="preserve" text-anchor="middle" x="739.25" y="-2098.95" font-family="sans" font-size="14.00">prompt&#45;multilingual&#45;fa&#45;off prefill: layer 3 (plus direct boundary inputs)</text>
<!-- n248 -->
<g id="node1" class="node">
<title>n248</title>
<path fill="#fef3c7" stroke="black" d="M119.5,-2091C119.5,-2091 12,-2091 12,-2091 6,-2091 0,-2085 0,-2079 0,-2079 0,-2067 0,-2067 0,-2061 6,-2055 12,-2055 12,-2055 119.5,-2055 119.5,-2055 125.5,-2055 131.5,-2061 131.5,-2067 131.5,-2067 131.5,-2079 131.5,-2079 131.5,-2085 125.5,-2091 119.5,-2091"/>
<text xml:space="preserve" text-anchor="middle" x="65.75" y="-2076.25" font-family="sans" font-size="10.00">248: l_out&#45;2</text>
<text xml:space="preserve" text-anchor="middle" x="65.75" y="-2063.5" font-family="sans" font-size="10.00">ADD | f32 | 2048x152x1x1</text>
</g>
<!-- n249 -->
<g id="node2" class="node">
<title>n249</title>
<path fill="#fef3c7" stroke="black" d="M586.25,-2002.5C586.25,-2002.5 447.25,-2002.5 447.25,-2002.5 441.25,-2002.5 435.25,-1996.5 435.25,-1990.5 435.25,-1990.5 435.25,-1978.5 435.25,-1978.5 435.25,-1972.5 441.25,-1966.5 447.25,-1966.5 447.25,-1966.5 586.25,-1966.5 586.25,-1966.5 592.25,-1966.5 598.25,-1972.5 598.25,-1978.5 598.25,-1978.5 598.25,-1990.5 598.25,-1990.5 598.25,-1996.5 592.25,-2002.5 586.25,-2002.5"/>
<text xml:space="preserve" text-anchor="middle" x="516.75" y="-1987.75" font-family="sans" font-size="10.00">249: norm&#45;3</text>
<text xml:space="preserve" text-anchor="middle" x="516.75" y="-1975" font-family="sans" font-size="10.00">RMS_NORM | f32 | 2048x152x1x1</text>
</g>
<!-- n248&#45;&gt;n249 -->
<g id="edge1" class="edge">
<title>n248&#45;&gt;n249</title>
<path fill="none" stroke="#94a3b8" d="M131.81,-2059.33C208.81,-2044.56 336.59,-2020.05 423.63,-2003.36"/>
<polygon fill="#94a3b8" stroke="#94a3b8" points="424.18,-2006.82 433.34,-2001.5 422.86,-1999.94 424.18,-2006.82"/>
<text xml:space="preserve" text-anchor="middle" x="335.02" y="-2023.7" font-family="Times New Roman,serif" font-size="14.00">0</text>
</g>
<!-- n298 -->
<g id="node48" class="node">
<title>n298</title>
<path fill="#fef3c7" stroke="black" d="M119.5,-567C119.5,-567 12,-567 12,-567 6,-567 0,-561 0,-555 0,-555 0,-543 0,-543 0,-537 6,-531 12,-531 12,-531 119.5,-531 119.5,-531 125.5,-531 131.5,-537 131.5,-543 131.5,-543 131.5,-555 131.5,-555 131.5,-561 125.5,-567 119.5,-567"/>
<text xml:space="preserve" text-anchor="middle" x="65.75" y="-552.25" font-family="sans" font-size="10.00">298: attn_residual&#45;3</text>
<text xml:space="preserve" text-anchor="middle" x="65.75" y="-539.5" font-family="sans" font-size="10.00">ADD | f32 | 2048x152x1x1</text>
</g>
<!-- n248&#45;&gt;n298 -->
<g id="edge54" class="edge">
<title>n248&#45;&gt;n298</title>
<path fill="none" stroke="#94a3b8" d="M60.6,-2054.61C55.92,-2037.27 49.75,-2009.78 49.75,-1985.5 49.75,-1985.5 49.75,-1985.5 49.75,-636.5 49.75,-616.77 53.82,-594.93 57.86,-578.12"/>
<polygon fill="#94a3b8" stroke="#94a3b8" points="61.15,-579.41 60.23,-568.85 54.36,-577.68 61.15,-579.41"/>
<text xml:space="preserve" text-anchor="middle" x="53.12" y="-1296.2" font-family="Times New Roman,serif" font-size="14.00">1</text>
</g>
<!-- n250 -->
<g id="node3" class="node">
<title>n250</title>
<path fill="#fef3c7" stroke="black" d="M570.5,-1914C570.5,-1914 463,-1914 463,-1914 457,-1914 451,-1908 451,-1902 451,-1902 451,-1890 451,-1890 451,-1884 457,-1878 463,-1878 463,-1878 570.5,-1878 570.5,-1878 576.5,-1878 582.5,-1884 582.5,-1890 582.5,-1890 582.5,-1902 582.5,-1902 582.5,-1908 576.5,-1914 570.5,-1914"/>
<text xml:space="preserve" text-anchor="middle" x="516.75" y="-1899.25" font-family="sans" font-size="10.00">250: attn_norm&#45;3</text>
<text xml:space="preserve" text-anchor="middle" x="516.75" y="-1886.5" font-family="sans" font-size="10.00">MUL | f32 | 2048x152x1x1</text>
</g>
<!-- n249&#45;&gt;n250 -->
<g id="edge2" class="edge">
<title>n249&#45;&gt;n250</title>
<path fill="none" stroke="#94a3b8" d="M516.75,-1966.41C516.75,-1954.76 516.75,-1939.05 516.75,-1925.52"/>
<polygon fill="#94a3b8" stroke="#94a3b8" points="520.25,-1925.86 516.75,-1915.86 513.25,-1925.86 520.25,-1925.86"/>
<text xml:space="preserve" text-anchor="middle" x="520.12" y="-1935.2" font-family="Times New Roman,serif" font-size="14.00">0</text>
</g>
<!-- n252 -->
<g id="node5" class="node">
<title>n252</title>
<path fill="#dbeafe" stroke="black" d="M490.5,-1825.5C490.5,-1825.5 359,-1825.5 359,-1825.5 353,-1825.5 347,-1819.5 347,-1813.5 347,-1813.5 347,-1801.5 347,-1801.5 347,-1795.5 353,-1789.5 359,-1789.5 359,-1789.5 490.5,-1789.5 490.5,-1789.5 496.5,-1789.5 502.5,-1795.5 502.5,-1801.5 502.5,-1801.5 502.5,-1813.5 502.5,-1813.5 502.5,-1819.5 496.5,-1825.5 490.5,-1825.5"/>
<text xml:space="preserve" text-anchor="middle" x="424.75" y="-1810.75" font-family="sans" font-size="10.00">252: Qcur_full&#45;3</text>
<text xml:space="preserve" text-anchor="middle" x="424.75" y="-1798" font-family="sans" font-size="10.00">MUL_MAT | f32 | 4096x152x1x1</text>
</g>
<!-- n250&#45;&gt;n252 -->
<g id="edge5" class="edge">
<title>n250&#45;&gt;n252</title>
<path fill="none" stroke="#94a3b8" d="M498.57,-1877.91C485.05,-1865.2 466.4,-1847.66 451.22,-1833.39"/>
<polygon fill="#94a3b8" stroke="#94a3b8" points="453.99,-1831.19 444.31,-1826.89 449.19,-1836.29 453.99,-1831.19"/>
<text xml:space="preserve" text-anchor="middle" x="482.37" y="-1846.7" font-family="Times New Roman,serif" font-size="14.00">1</text>
</g>
<!-- n260 -->
<g id="node13" class="node">
<title>n260</title>
<path fill="#dbeafe" stroke="black" d="M1058.88,-1825.5C1058.88,-1825.5 932.62,-1825.5 932.62,-1825.5 926.62,-1825.5 920.62,-1819.5 920.62,-1813.5 920.62,-1813.5 920.62,-1801.5 920.62,-1801.5 920.62,-1795.5 926.62,-1789.5 932.62,-1789.5 932.62,-1789.5 1058.88,-1789.5 1058.88,-1789.5 1064.88,-1789.5 1070.88,-1795.5 1070.88,-1801.5 1070.88,-1801.5 1070.88,-1813.5 1070.88,-1813.5 1070.88,-1819.5 1064.88,-1825.5 1058.88,-1825.5"/>
<text xml:space="preserve" text-anchor="middle" x="995.75" y="-1810.75" font-family="sans" font-size="10.00">260: Vcur&#45;3</text>
<text xml:space="preserve" text-anchor="middle" x="995.75" y="-1798" font-family="sans" font-size="10.00">MUL_MAT | f32 | 512x152x1x1</text>
</g>
<!-- n250&#45;&gt;n260 -->
<g id="edge13" class="edge">
<title>n250&#45;&gt;n260</title>
<path fill="none" stroke="#94a3b8" d="M556.73,-1877.55C584.82,-1866.04 623.54,-1851.63 659,-1843.5 742.71,-1824.3 840.57,-1815.62 909.15,-1811.7"/>
<polygon fill="#94a3b8" stroke="#94a3b8" points="909.02,-1815.21 918.81,-1811.17 908.64,-1808.22 909.02,-1815.21"/>
<text xml:space="preserve" text-anchor="middle" x="662.38" y="-1846.7" font-family="Times New Roman,serif" font-size="14.00">1</text>
</g>
<!-- n263 -->
<g id="node16" class="node">
<title>n263</title>
<path fill="#dbeafe" stroke="black" d="M730.88,-1825.5C730.88,-1825.5 604.62,-1825.5 604.62,-1825.5 598.62,-1825.5 592.62,-1819.5 592.62,-1813.5 592.62,-1813.5 592.62,-1801.5 592.62,-1801.5 592.62,-1795.5 598.62,-1789.5 604.62,-1789.5 604.62,-1789.5 730.88,-1789.5 730.88,-1789.5 736.88,-1789.5 742.88,-1795.5 742.88,-1801.5 742.88,-1801.5 742.88,-1813.5 742.88,-1813.5 742.88,-1819.5 736.88,-1825.5 730.88,-1825.5"/>
<text xml:space="preserve" text-anchor="middle" x="667.75" y="-1810.75" font-family="sans" font-size="10.00">263: Kcur&#45;3</text>
<text xml:space="preserve" text-anchor="middle" x="667.75" y="-1798" font-family="sans" font-size="10.00">MUL_MAT | f32 | 512x152x1x1</text>
</g>
<!-- n250&#45;&gt;n263 -->
<g id="edge16" class="edge">
<title>n250&#45;&gt;n263</title>
<path fill="none" stroke="#94a3b8" d="M539.82,-1877.72C554.39,-1867.19 573.83,-1853.82 592,-1843.5 599.71,-1839.12 608.05,-1834.84 616.3,-1830.86"/>
<polygon fill="#94a3b8" stroke="#94a3b8" points="617.71,-1834.06 625.26,-1826.63 614.72,-1827.73 617.71,-1834.06"/>
<text xml:space="preserve" text-anchor="middle" x="595.38" y="-1846.7" font-family="Times New Roman,serif" font-size="14.00">1</text>
</g>
<!-- n251 -->
<g id="node4" class="node">
<title>n251</title>
<path fill="#f1f5f9" stroke="black" d="M404.88,-2002.5C404.88,-2002.5 290.62,-2002.5 290.62,-2002.5 284.62,-2002.5 278.62,-1996.5 278.62,-1990.5 278.62,-1990.5 278.62,-1978.5 278.62,-1978.5 278.62,-1972.5 284.62,-1966.5 290.62,-1966.5 290.62,-1966.5 404.88,-1966.5 404.88,-1966.5 410.88,-1966.5 416.88,-1972.5 416.88,-1978.5 416.88,-1978.5 416.88,-1990.5 416.88,-1990.5 416.88,-1996.5 410.88,-2002.5 404.88,-2002.5"/>
<text xml:space="preserve" text-anchor="middle" x="347.75" y="-1987.75" font-family="sans" font-size="10.00">251: blk.3.attn_norm.weight</text>
<text xml:space="preserve" text-anchor="middle" x="347.75" y="-1975" font-family="sans" font-size="10.00">NONE | f32 | 2048x1x1x1</text>
</g>
<!-- n251&#45;&gt;n250 -->
<g id="edge3" class="edge">
<title>n251&#45;&gt;n250</title>
<path fill="none" stroke="#94a3b8" d="M381.54,-1966.2C407.71,-1952.81 444.17,-1934.15 472.63,-1919.58"/>
<polygon fill="#94a3b8" stroke="#94a3b8" points="474.07,-1922.78 481.38,-1915.1 470.88,-1916.54 474.07,-1922.78"/>
<text xml:space="preserve" text-anchor="middle" x="450.76" y="-1935.2" font-family="Times New Roman,serif" font-size="14.00">1</text>
</g>
<!-- n254 -->
<g id="node7" class="node">
<title>n254</title>
<path fill="#f1f5f9" stroke="black" d="M508.12,-1737C508.12,-1737 401.38,-1737 401.38,-1737 395.38,-1737 389.38,-1731 389.38,-1725 389.38,-1725 389.38,-1713 389.38,-1713 389.38,-1707 395.38,-1701 401.38,-1701 401.38,-1701 508.12,-1701 508.12,-1701 514.12,-1701 520.12,-1707 520.12,-1713 520.12,-1713 520.12,-1725 520.12,-1725 520.12,-1731 514.12,-1737 508.12,-1737"/>
<text xml:space="preserve" text-anchor="middle" x="454.75" y="-1722.25" font-family="sans" font-size="10.00">254: Qcur_reshaped&#45;3</text>
<text xml:space="preserve" text-anchor="middle" x="454.75" y="-1709.5" font-family="sans" font-size="10.00">VIEW | f32 | 256x8x152x1</text>
</g>
<!-- n252&#45;&gt;n254 -->
<g id="edge6" class="edge">
<title>n252&#45;&gt;n254</title>
<path fill="none" stroke="#94a3b8" d="M430.68,-1789.41C434.76,-1777.64 440.28,-1761.73 445,-1748.11"/>
<polygon fill="#94a3b8" stroke="#94a3b8" points="448.27,-1749.37 448.24,-1738.78 441.65,-1747.08 448.27,-1749.37"/>
<text xml:space="preserve" text-anchor="middle" x="445.81" y="-1758.2" font-family="Times New Roman,serif" font-size="14.00">0</text>
</g>
<!-- n292 -->
<g id="node42" class="node">
<title>n292</title>
<path fill="#f1f5f9" stroke="black" d="M337.12,-1737C337.12,-1737 230.38,-1737 230.38,-1737 224.38,-1737 218.38,-1731 218.38,-1725 218.38,-1725 218.38,-1713 218.38,-1713 218.38,-1707 224.38,-1701 230.38,-1701 230.38,-1701 337.12,-1701 337.12,-1701 343.12,-1701 349.12,-1707 349.12,-1713 349.12,-1713 349.12,-1725 349.12,-1725 349.12,-1731 343.12,-1737 337.12,-1737"/>
<text xml:space="preserve" text-anchor="middle" x="283.75" y="-1722.25" font-family="sans" font-size="10.00">292: Qcur_full&#45;3 (view)</text>
<text xml:space="preserve" text-anchor="middle" x="283.75" y="-1709.5" font-family="sans" font-size="10.00">VIEW | f32 | 256x8x152x1</text>
</g>
<!-- n252&#45;&gt;n292 -->
<g id="edge46" class="edge">
<title>n252&#45;&gt;n292</title>
<path fill="none" stroke="#94a3b8" d="M396.56,-1789.2C375.04,-1776 345.18,-1757.68 321.58,-1743.21"/>
<polygon fill="#94a3b8" stroke="#94a3b8" points="323.54,-1740.3 313.19,-1738.06 319.88,-1746.27 323.54,-1740.3"/>
<text xml:space="preserve" text-anchor="middle" x="370.25" y="-1758.2" font-family="Times New Roman,serif" font-size="14.00">0</text>
</g>
<!-- n253 -->
<g id="node6" class="node">
<title>n253</title>
<path fill="#f1f5f9" stroke="black" d="M421.25,-1914C421.25,-1914 294.25,-1914 294.25,-1914 288.25,-1914 282.25,-1908 282.25,-1902 282.25,-1902 282.25,-1890 282.25,-1890 282.25,-1884 288.25,-1878 294.25,-1878 294.25,-1878 421.25,-1878 421.25,-1878 427.25,-1878 433.25,-1884 433.25,-1890 433.25,-1890 433.25,-1902 433.25,-1902 433.25,-1908 427.25,-1914 421.25,-1914"/>
<text xml:space="preserve" text-anchor="middle" x="357.75" y="-1899.25" font-family="sans" font-size="10.00">253: blk.3.attn_q.weight</text>
<text xml:space="preserve" text-anchor="middle" x="357.75" y="-1886.5" font-family="sans" font-size="10.00">NONE | q4_K | 2048x4096x1x1</text>
</g>
<!-- n253&#45;&gt;n252 -->
<g id="edge4" class="edge">
<title>n253&#45;&gt;n252</title>
<path fill="none" stroke="#94a3b8" d="M370.99,-1877.91C380.56,-1865.55 393.67,-1848.63 404.55,-1834.58"/>
<polygon fill="#94a3b8" stroke="#94a3b8" points="407.03,-1837.1 410.38,-1827.05 401.49,-1832.81 407.03,-1837.1"/>
<text xml:space="preserve" text-anchor="middle" x="400.63" y="-1846.7" font-family="Times New Roman,serif" font-size="14.00">0</text>
</g>
<!-- n255 -->
<g id="node8" class="node">
<title>n255</title>
<path fill="#fef3c7" stroke="black" d="M558.62,-1648.5C558.62,-1648.5 424.88,-1648.5 424.88,-1648.5 418.88,-1648.5 412.88,-1642.5 412.88,-1636.5 412.88,-1636.5 412.88,-1624.5 412.88,-1624.5 412.88,-1618.5 418.88,-1612.5 424.88,-1612.5 424.88,-1612.5 558.62,-1612.5 558.62,-1612.5 564.62,-1612.5 570.62,-1618.5 570.62,-1624.5 570.62,-1624.5 570.62,-1636.5 570.62,-1636.5 570.62,-1642.5 564.62,-1648.5 558.62,-1648.5"/>
<text xml:space="preserve" text-anchor="middle" x="491.75" y="-1633.75" font-family="sans" font-size="10.00">255: norm&#45;3</text>
<text xml:space="preserve" text-anchor="middle" x="491.75" y="-1621" font-family="sans" font-size="10.00">RMS_NORM | f32 | 256x8x152x1</text>
</g>
<!-- n254&#45;&gt;n255 -->
<g id="edge7" class="edge">
<title>n254&#45;&gt;n255</title>
<path fill="none" stroke="#94a3b8" d="M462.06,-1700.91C467.15,-1689.02 474.04,-1672.91 479.9,-1659.2"/>
<polygon fill="#94a3b8" stroke="#94a3b8" points="483.02,-1660.81 483.73,-1650.24 476.58,-1658.06 483.02,-1660.81"/>
<text xml:space="preserve" text-anchor="middle" x="479.94" y="-1669.7" font-family="Times New Roman,serif" font-size="14.00">0</text>
</g>
<!-- n256 -->
<g id="node9" class="node">
<title>n256</title>
<path fill="#fef3c7" stroke="black" d="M508.88,-1560C508.88,-1560 406.62,-1560 406.62,-1560 400.62,-1560 394.62,-1554 394.62,-1548 394.62,-1548 394.62,-1536 394.62,-1536 394.62,-1530 400.62,-1524 406.62,-1524 406.62,-1524 508.88,-1524 508.88,-1524 514.88,-1524 520.88,-1530 520.88,-1536 520.88,-1536 520.88,-1548 520.88,-1548 520.88,-1554 514.88,-1560 508.88,-1560"/>
<text xml:space="preserve" text-anchor="middle" x="457.75" y="-1545.25" font-family="sans" font-size="10.00">256: Qcur_normed&#45;3</text>
<text xml:space="preserve" text-anchor="middle" x="457.75" y="-1532.5" font-family="sans" font-size="10.00">MUL | f32 | 256x8x152x1</text>
</g>
<!-- n255&#45;&gt;n256 -->
<g id="edge8" class="edge">
<title>n255&#45;&gt;n256</title>
<path fill="none" stroke="#94a3b8" d="M485.03,-1612.41C480.36,-1600.52 474.03,-1584.41 468.64,-1570.7"/>
<polygon fill="#94a3b8" stroke="#94a3b8" points="472.04,-1569.79 465.12,-1561.76 465.52,-1572.35 472.04,-1569.79"/>
<text xml:space="preserve" text-anchor="middle" x="481.17" y="-1581.2" font-family="Times New Roman,serif" font-size="14.00">0</text>
</g>
<!-- n258 -->
<g id="node11" class="node">
<title>n258</title>
<path fill="#fef3c7" stroke="black" d="M510.75,-1452C510.75,-1452 404.75,-1452 404.75,-1452 398.75,-1452 392.75,-1446 392.75,-1440 392.75,-1440 392.75,-1428 392.75,-1428 392.75,-1422 398.75,-1416 404.75,-1416 404.75,-1416 510.75,-1416 510.75,-1416 516.75,-1416 522.75,-1422 522.75,-1428 522.75,-1428 522.75,-1440 522.75,-1440 522.75,-1446 516.75,-1452 510.75,-1452"/>
<text xml:space="preserve" text-anchor="middle" x="457.75" y="-1437.25" font-family="sans" font-size="10.00">258: Qcur&#45;3</text>
<text xml:space="preserve" text-anchor="middle" x="457.75" y="-1424.5" font-family="sans" font-size="10.00">ROPE | f32 | 256x8x152x1</text>
</g>
<!-- n256&#45;&gt;n258 -->
<g id="edge10" class="edge">
<title>n256&#45;&gt;n258</title>
<path fill="none" stroke="#94a3b8" d="M457.75,-1523.97C457.75,-1507.76 457.75,-1483.06 457.75,-1463.79"/>
<polygon fill="#94a3b8" stroke="#94a3b8" points="461.25,-1463.85 457.75,-1453.85 454.25,-1463.85 461.25,-1463.85"/>
<text xml:space="preserve" text-anchor="middle" x="461.12" y="-1482.95" font-family="Times New Roman,serif" font-size="14.00">0</text>
</g>
<!-- n257 -->
<g id="node10" class="node">
<title>n257</title>
<path fill="#f1f5f9" stroke="black" d="M383.12,-1648.5C383.12,-1648.5 258.38,-1648.5 258.38,-1648.5 252.38,-1648.5 246.38,-1642.5 246.38,-1636.5 246.38,-1636.5 246.38,-1624.5 246.38,-1624.5 246.38,-1618.5 252.38,-1612.5 258.38,-1612.5 258.38,-1612.5 383.12,-1612.5 383.12,-1612.5 389.12,-1612.5 395.12,-1618.5 395.12,-1624.5 395.12,-1624.5 395.12,-1636.5 395.12,-1636.5 395.12,-1642.5 389.12,-1648.5 383.12,-1648.5"/>
<text xml:space="preserve" text-anchor="middle" x="320.75" y="-1633.75" font-family="sans" font-size="10.00">257: blk.3.attn_q_norm.weight</text>
<text xml:space="preserve" text-anchor="middle" x="320.75" y="-1621" font-family="sans" font-size="10.00">NONE | f32 | 256x1x1x1</text>
</g>
<!-- n257&#45;&gt;n256 -->
<g id="edge9" class="edge">
<title>n257&#45;&gt;n256</title>
<path fill="none" stroke="#94a3b8" d="M348.14,-1612.2C368.96,-1599.06 397.81,-1580.85 420.68,-1566.4"/>
<polygon fill="#94a3b8" stroke="#94a3b8" points="422.54,-1569.37 429.12,-1561.07 418.8,-1563.45 422.54,-1569.37"/>
<text xml:space="preserve" text-anchor="middle" x="404.9" y="-1581.2" font-family="Times New Roman,serif" font-size="14.00">1</text>
</g>
<!-- n284 -->
<g id="node34" class="node">
<title>n284</title>
<path fill="#f1f5f9" stroke="black" d="M410.12,-1363.5C410.12,-1363.5 303.38,-1363.5 303.38,-1363.5 297.38,-1363.5 291.38,-1357.5 291.38,-1351.5 291.38,-1351.5 291.38,-1339.5 291.38,-1339.5 291.38,-1333.5 297.38,-1327.5 303.38,-1327.5 303.38,-1327.5 410.12,-1327.5 410.12,-1327.5 416.12,-1327.5 422.12,-1333.5 422.12,-1339.5 422.12,-1339.5 422.12,-1351.5 422.12,-1351.5 422.12,-1357.5 416.12,-1363.5 410.12,-1363.5"/>
<text xml:space="preserve" text-anchor="middle" x="356.75" y="-1348.75" font-family="sans" font-size="10.00">284: Qcur&#45;3 (view)</text>
<text xml:space="preserve" text-anchor="middle" x="356.75" y="-1336" font-family="sans" font-size="10.00">VIEW | f32 | 256x8x152x1</text>
</g>
<!-- n258&#45;&gt;n284 -->
<g id="edge35" class="edge">
<title>n258&#45;&gt;n284</title>
<path fill="none" stroke="#94a3b8" d="M437.8,-1415.91C422.82,-1403.08 402.09,-1385.33 385.35,-1370.99"/>
<polygon fill="#94a3b8" stroke="#94a3b8" points="388.03,-1368.68 378.16,-1364.83 383.48,-1374 388.03,-1368.68"/>
<text xml:space="preserve" text-anchor="middle" x="419.67" y="-1384.7" font-family="Times New Roman,serif" font-size="14.00">0</text>
</g>
<!-- n285 -->
<g id="node35" class="node">
<title>n285</title>
<path fill="#f1f5f9" stroke="black" d="M441.88,-1275C441.88,-1275 315.62,-1275 315.62,-1275 309.62,-1275 303.62,-1269 303.62,-1263 303.62,-1263 303.62,-1251 303.62,-1251 303.62,-1245 309.62,-1239 315.62,-1239 315.62,-1239 441.88,-1239 441.88,-1239 447.88,-1239 453.88,-1245 453.88,-1251 453.88,-1251 453.88,-1263 453.88,-1263 453.88,-1269 447.88,-1275 441.88,-1275"/>
<text xml:space="preserve" text-anchor="middle" x="378.75" y="-1260.25" font-family="sans" font-size="10.00">285: Qcur&#45;3 (view) (permuted)</text>
<text xml:space="preserve" text-anchor="middle" x="378.75" y="-1247.5" font-family="sans" font-size="10.00">PERMUTE | f32 | 256x152x8x1</text>
</g>
<!-- n258&#45;&gt;n285 -->
<g id="edge37" class="edge">
<title>n258&#45;&gt;n285</title>
<path fill="none" stroke="#94a3b8" stroke-dasharray="5,2" d="M455.47,-1415.85C452.15,-1394.37 444.79,-1356.83 430.75,-1327.5 423.26,-1311.86 412,-1296.24 401.87,-1283.78"/>
<polygon fill="#94a3b8" stroke="#94a3b8" points="404.84,-1281.88 395.74,-1276.47 399.48,-1286.38 404.84,-1281.88"/>
<text xml:space="preserve" text-anchor="middle" x="456.39" y="-1340.45" font-family="Times New Roman,serif" font-size="14.00">alias</text>
</g>
<!-- n259 -->
<g id="node12" class="node">
<title>n259</title>
<path fill="#f1f5f9" stroke="black" d="M674.25,-1560C674.25,-1560 577.25,-1560 577.25,-1560 571.25,-1560 565.25,-1554 565.25,-1548 565.25,-1548 565.25,-1536 565.25,-1536 565.25,-1530 571.25,-1524 577.25,-1524 577.25,-1524 674.25,-1524 674.25,-1524 680.25,-1524 686.25,-1530 686.25,-1536 686.25,-1536 686.25,-1548 686.25,-1548 686.25,-1554 680.25,-1560 674.25,-1560"/>
<text xml:space="preserve" text-anchor="middle" x="625.75" y="-1545.25" font-family="sans" font-size="10.00">259: inp_pos</text>
<text xml:space="preserve" text-anchor="middle" x="625.75" y="-1532.5" font-family="sans" font-size="10.00">NONE | i32 | 608x1x1x1</text>
</g>
<!-- n259&#45;&gt;n258 -->
<g id="edge11" class="edge">
<title>n259&#45;&gt;n258</title>
<path fill="none" stroke="#94a3b8" d="M598.38,-1523.73C570.28,-1506 526.34,-1478.28 495.06,-1458.54"/>
<polygon fill="#94a3b8" stroke="#94a3b8" points="496.99,-1455.62 486.66,-1453.24 493.25,-1461.54 496.99,-1455.62"/>
<text xml:space="preserve" text-anchor="middle" x="569.99" y="-1482.95" font-family="Times New Roman,serif" font-size="14.00">1</text>
</g>
<!-- n269 -->
<g id="node22" class="node">
<title>n269</title>
<path fill="#fef3c7" stroke="black" d="M872.75,-1452C872.75,-1452 766.75,-1452 766.75,-1452 760.75,-1452 754.75,-1446 754.75,-1440 754.75,-1440 754.75,-1428 754.75,-1428 754.75,-1422 760.75,-1416 766.75,-1416 766.75,-1416 872.75,-1416 872.75,-1416 878.75,-1416 884.75,-1422 884.75,-1428 884.75,-1428 884.75,-1440 884.75,-1440 884.75,-1446 878.75,-1452 872.75,-1452"/>
<text xml:space="preserve" text-anchor="middle" x="819.75" y="-1437.25" font-family="sans" font-size="10.00">269: Kcur&#45;3</text>
<text xml:space="preserve" text-anchor="middle" x="819.75" y="-1424.5" font-family="sans" font-size="10.00">ROPE | f32 | 256x2x152x1</text>
</g>
<!-- n259&#45;&gt;n269 -->
<g id="edge22" class="edge">
<title>n259&#45;&gt;n269</title>
<path fill="none" stroke="#94a3b8" d="M657.35,-1523.73C690.23,-1505.77 741.87,-1477.55 778.07,-1457.78"/>
<polygon fill="#94a3b8" stroke="#94a3b8" points="779.41,-1461.03 786.51,-1453.16 776.06,-1454.88 779.41,-1461.03"/>
<text xml:space="preserve" text-anchor="middle" x="754.84" y="-1482.95" font-family="Times New Roman,serif" font-size="14.00">1</text>
</g>
<!-- n262 -->
<g id="node15" class="node">
<title>n262</title>
<path fill="#f1f5f9" stroke="black" d="M981,-1737C981,-1737 858.5,-1737 858.5,-1737 852.5,-1737 846.5,-1731 846.5,-1725 846.5,-1725 846.5,-1713 846.5,-1713 846.5,-1707 852.5,-1701 858.5,-1701 858.5,-1701 981,-1701 981,-1701 987,-1701 993,-1707 993,-1713 993,-1713 993,-1725 993,-1725 993,-1731 987,-1737 981,-1737"/>
<text xml:space="preserve" text-anchor="middle" x="919.75" y="-1722.25" font-family="sans" font-size="10.00">262: Vcur&#45;3</text>
<text xml:space="preserve" text-anchor="middle" x="919.75" y="-1709.5" font-family="sans" font-size="10.00">RESHAPE | f32 | 256x2x152x1</text>
</g>
<!-- n260&#45;&gt;n262 -->
<g id="edge14" class="edge">
<title>n260&#45;&gt;n262</title>
<path fill="none" stroke="#94a3b8" d="M980.73,-1789.41C969.77,-1776.93 954.72,-1759.8 942.32,-1745.68"/>
<polygon fill="#94a3b8" stroke="#94a3b8" points="945.22,-1743.69 935.99,-1738.49 939.96,-1748.31 945.22,-1743.69"/>
<text xml:space="preserve" text-anchor="middle" x="967.93" y="-1758.2" font-family="Times New Roman,serif" font-size="14.00">0</text>
</g>
<!-- n274 -->
<g id="node27" class="node">
<title>n274</title>
<path fill="#f1f5f9" stroke="black" d="M1066,-1648.5C1066,-1648.5 943.5,-1648.5 943.5,-1648.5 937.5,-1648.5 931.5,-1642.5 931.5,-1636.5 931.5,-1636.5 931.5,-1624.5 931.5,-1624.5 931.5,-1618.5 937.5,-1612.5 943.5,-1612.5 943.5,-1612.5 1066,-1612.5 1066,-1612.5 1072,-1612.5 1078,-1618.5 1078,-1624.5 1078,-1624.5 1078,-1636.5 1078,-1636.5 1078,-1642.5 1072,-1648.5 1066,-1648.5"/>
<text xml:space="preserve" text-anchor="middle" x="1004.75" y="-1633.75" font-family="sans" font-size="10.00">274: Vcur&#45;3 (reshaped)</text>
<text xml:space="preserve" text-anchor="middle" x="1004.75" y="-1621" font-family="sans" font-size="10.00">RESHAPE | f32 | 512x152x1x1</text>
</g>
<!-- n260&#45;&gt;n274 -->
<g id="edge28" class="edge">
<title>n260&#45;&gt;n274</title>
<path fill="none" stroke="#94a3b8" stroke-dasharray="5,2" d="M997.53,-1789.1C998.9,-1775.05 1000.73,-1754.77 1001.75,-1737 1003.24,-1711 1004,-1681.36 1004.38,-1660.13"/>
<polygon fill="#94a3b8" stroke="#94a3b8" points="1007.88,-1660.26 1004.54,-1650.2 1000.88,-1660.15 1007.88,-1660.26"/>
<text xml:space="preserve" text-anchor="middle" x="1015.7" y="-1713.95" font-family="Times New Roman,serif" font-size="14.00">alias</text>
</g>
<!-- n275 -->
<g id="node28" class="node">
<title>n275</title>
<path fill="#f1f5f9" stroke="black" d="M1146.5,-1560C1146.5,-1560 1003,-1560 1003,-1560 997,-1560 991,-1554 991,-1548 991,-1548 991,-1536 991,-1536 991,-1530 997,-1524 1003,-1524 1003,-1524 1146.5,-1524 1146.5,-1524 1152.5,-1524 1158.5,-1530 1158.5,-1536 1158.5,-1536 1158.5,-1548 1158.5,-1548 1158.5,-1554 1152.5,-1560 1146.5,-1560"/>
<text xml:space="preserve" text-anchor="middle" x="1074.75" y="-1545.25" font-family="sans" font-size="10.00">275: Vcur&#45;3 (reshaped) (reshaped)</text>
<text xml:space="preserve" text-anchor="middle" x="1074.75" y="-1532.5" font-family="sans" font-size="10.00">RESHAPE | f32 | 1x77824x1x1</text>
</g>
<!-- n260&#45;&gt;n275 -->
<g id="edge30" class="edge">
<title>n260&#45;&gt;n275</title>
<path fill="none" stroke="#94a3b8" stroke-dasharray="5,2" d="M1009.73,-1789.39C1031.28,-1761.77 1071.7,-1704.77 1086.75,-1648.5 1093.58,-1622.96 1088.99,-1592.92 1083.63,-1571.44"/>
<polygon fill="#94a3b8" stroke="#94a3b8" points="1087.05,-1570.66 1081.04,-1561.93 1080.29,-1572.5 1087.05,-1570.66"/>
<text xml:space="preserve" text-anchor="middle" x="1093.48" y="-1669.7" font-family="Times New Roman,serif" font-size="14.00">alias</text>
</g>
<!-- n261 -->
<g id="node14" class="node">
<title>n261</title>
<path fill="#f1f5f9" stroke="black" d="M1056.62,-1914C1056.62,-1914 934.88,-1914 934.88,-1914 928.88,-1914 922.88,-1908 922.88,-1902 922.88,-1902 922.88,-1890 922.88,-1890 922.88,-1884 928.88,-1878 934.88,-1878 934.88,-1878 1056.62,-1878 1056.62,-1878 1062.62,-1878 1068.62,-1884 1068.62,-1890 1068.62,-1890 1068.62,-1902 1068.62,-1902 1068.62,-1908 1062.62,-1914 1056.62,-1914"/>
<text xml:space="preserve" text-anchor="middle" x="995.75" y="-1899.25" font-family="sans" font-size="10.00">261: blk.3.attn_v.weight</text>
<text xml:space="preserve" text-anchor="middle" x="995.75" y="-1886.5" font-family="sans" font-size="10.00">NONE | q6_K | 2048x512x1x1</text>
</g>
<!-- n261&#45;&gt;n260 -->
<g id="edge12" class="edge">
<title>n261&#45;&gt;n260</title>
<path fill="none" stroke="#94a3b8" d="M995.75,-1877.91C995.75,-1866.26 995.75,-1850.55 995.75,-1837.02"/>
<polygon fill="#94a3b8" stroke="#94a3b8" points="999.25,-1837.36 995.75,-1827.36 992.25,-1837.36 999.25,-1837.36"/>
<text xml:space="preserve" text-anchor="middle" x="999.12" y="-1846.7" font-family="Times New Roman,serif" font-size="14.00">0</text>
</g>
<!-- n262&#45;&gt;n274 -->
<g id="edge27" class="edge">
<title>n262&#45;&gt;n274</title>
<path fill="none" stroke="#94a3b8" d="M936.54,-1700.91C948.92,-1688.32 965.95,-1670.98 979.9,-1656.79"/>
<polygon fill="#94a3b8" stroke="#94a3b8" points="982.13,-1659.52 986.64,-1649.93 977.13,-1654.61 982.13,-1659.52"/>
<text xml:space="preserve" text-anchor="middle" x="973.24" y="-1669.7" font-family="Times New Roman,serif" font-size="14.00">0</text>
</g>
<!-- n265 -->
<g id="node18" class="node">
<title>n265</title>
<path fill="#f1f5f9" stroke="black" d="M729,-1737C729,-1737 606.5,-1737 606.5,-1737 600.5,-1737 594.5,-1731 594.5,-1725 594.5,-1725 594.5,-1713 594.5,-1713 594.5,-1707 600.5,-1701 606.5,-1701 606.5,-1701 729,-1701 729,-1701 735,-1701 741,-1707 741,-1713 741,-1713 741,-1725 741,-1725 741,-1731 735,-1737 729,-1737"/>
<text xml:space="preserve" text-anchor="middle" x="667.75" y="-1722.25" font-family="sans" font-size="10.00">265: Kcur&#45;3 (reshaped)</text>
<text xml:space="preserve" text-anchor="middle" x="667.75" y="-1709.5" font-family="sans" font-size="10.00">RESHAPE | f32 | 256x2x152x1</text>
</g>
<!-- n263&#45;&gt;n265 -->
<g id="edge17" class="edge">
<title>n263&#45;&gt;n265</title>
<path fill="none" stroke="#94a3b8" d="M667.75,-1789.41C667.75,-1777.76 667.75,-1762.05 667.75,-1748.52"/>
<polygon fill="#94a3b8" stroke="#94a3b8" points="671.25,-1748.86 667.75,-1738.86 664.25,-1748.86 671.25,-1748.86"/>
<text xml:space="preserve" text-anchor="middle" x="671.12" y="-1758.2" font-family="Times New Roman,serif" font-size="14.00">0</text>
</g>
<!-- n264 -->
<g id="node17" class="node">
<title>n264</title>
<path fill="#f1f5f9" stroke="black" d="M734.62,-1914C734.62,-1914 612.88,-1914 612.88,-1914 606.88,-1914 600.88,-1908 600.88,-1902 600.88,-1902 600.88,-1890 600.88,-1890 600.88,-1884 606.88,-1878 612.88,-1878 612.88,-1878 734.62,-1878 734.62,-1878 740.62,-1878 746.62,-1884 746.62,-1890 746.62,-1890 746.62,-1902 746.62,-1902 746.62,-1908 740.62,-1914 734.62,-1914"/>
<text xml:space="preserve" text-anchor="middle" x="673.75" y="-1899.25" font-family="sans" font-size="10.00">264: blk.3.attn_k.weight</text>
<text xml:space="preserve" text-anchor="middle" x="673.75" y="-1886.5" font-family="sans" font-size="10.00">NONE | q4_K | 2048x512x1x1</text>
</g>
<!-- n264&#45;&gt;n263 -->
<g id="edge15" class="edge">
<title>n264&#45;&gt;n263</title>
<path fill="none" stroke="#94a3b8" d="M672.56,-1877.91C671.76,-1866.26 670.67,-1850.55 669.73,-1837.02"/>
<polygon fill="#94a3b8" stroke="#94a3b8" points="673.24,-1837.09 669.06,-1827.36 666.26,-1837.58 673.24,-1837.09"/>
<text xml:space="preserve" text-anchor="middle" x="674.66" y="-1846.7" font-family="Times New Roman,serif" font-size="14.00">0</text>
</g>
<!-- n266 -->
<g id="node19" class="node">
<title>n266</title>
<path fill="#fef3c7" stroke="black" d="M734.62,-1648.5C734.62,-1648.5 600.88,-1648.5 600.88,-1648.5 594.88,-1648.5 588.88,-1642.5 588.88,-1636.5 588.88,-1636.5 588.88,-1624.5 588.88,-1624.5 588.88,-1618.5 594.88,-1612.5 600.88,-1612.5 600.88,-1612.5 734.62,-1612.5 734.62,-1612.5 740.62,-1612.5 746.62,-1618.5 746.62,-1624.5 746.62,-1624.5 746.62,-1636.5 746.62,-1636.5 746.62,-1642.5 740.62,-1648.5 734.62,-1648.5"/>
<text xml:space="preserve" text-anchor="middle" x="667.75" y="-1633.75" font-family="sans" font-size="10.00">266: norm&#45;3</text>
<text xml:space="preserve" text-anchor="middle" x="667.75" y="-1621" font-family="sans" font-size="10.00">RMS_NORM | f32 | 256x2x152x1</text>
</g>
<!-- n265&#45;&gt;n266 -->
<g id="edge18" class="edge">
<title>n265&#45;&gt;n266</title>
<path fill="none" stroke="#94a3b8" d="M667.75,-1700.91C667.75,-1689.26 667.75,-1673.55 667.75,-1660.02"/>
<polygon fill="#94a3b8" stroke="#94a3b8" points="671.25,-1660.36 667.75,-1650.36 664.25,-1660.36 671.25,-1660.36"/>
<text xml:space="preserve" text-anchor="middle" x="671.12" y="-1669.7" font-family="Times New Roman,serif" font-size="14.00">0</text>
</g>
<!-- n267 -->
<g id="node20" class="node">
<title>n267</title>
<path fill="#fef3c7" stroke="black" d="M870.88,-1560C870.88,-1560 768.62,-1560 768.62,-1560 762.62,-1560 756.62,-1554 756.62,-1548 756.62,-1548 756.62,-1536 756.62,-1536 756.62,-1530 762.62,-1524 768.62,-1524 768.62,-1524 870.88,-1524 870.88,-1524 876.88,-1524 882.88,-1530 882.88,-1536 882.88,-1536 882.88,-1548 882.88,-1548 882.88,-1554 876.88,-1560 870.88,-1560"/>
<text xml:space="preserve" text-anchor="middle" x="819.75" y="-1545.25" font-family="sans" font-size="10.00">267: Kcur_normed&#45;3</text>
<text xml:space="preserve" text-anchor="middle" x="819.75" y="-1532.5" font-family="sans" font-size="10.00">MUL | f32 | 256x2x152x1</text>
</g>
<!-- n266&#45;&gt;n267 -->
<g id="edge19" class="edge">
<title>n266&#45;&gt;n267</title>
<path fill="none" stroke="#94a3b8" d="M698.14,-1612.2C721.47,-1598.93 753.9,-1580.48 779.4,-1565.96"/>
<polygon fill="#94a3b8" stroke="#94a3b8" points="780.87,-1569.15 787.83,-1561.16 777.41,-1563.07 780.87,-1569.15"/>
<text xml:space="preserve" text-anchor="middle" x="760.74" y="-1581.2" font-family="Times New Roman,serif" font-size="14.00">0</text>
</g>
<!-- n267&#45;&gt;n269 -->
<g id="edge21" class="edge">
<title>n267&#45;&gt;n269</title>
<path fill="none" stroke="#94a3b8" d="M819.75,-1523.97C819.75,-1507.76 819.75,-1483.06 819.75,-1463.79"/>
<polygon fill="#94a3b8" stroke="#94a3b8" points="823.25,-1463.85 819.75,-1453.85 816.25,-1463.85 823.25,-1463.85"/>
<text xml:space="preserve" text-anchor="middle" x="823.12" y="-1482.95" font-family="Times New Roman,serif" font-size="14.00">0</text>
</g>
<!-- n268 -->
<g id="node21" class="node">
<title>n268</title>
<path fill="#f1f5f9" stroke="black" d="M901.12,-1648.5C901.12,-1648.5 776.38,-1648.5 776.38,-1648.5 770.38,-1648.5 764.38,-1642.5 764.38,-1636.5 764.38,-1636.5 764.38,-1624.5 764.38,-1624.5 764.38,-1618.5 770.38,-1612.5 776.38,-1612.5 776.38,-1612.5 901.12,-1612.5 901.12,-1612.5 907.12,-1612.5 913.12,-1618.5 913.12,-1624.5 913.12,-1624.5 913.12,-1636.5 913.12,-1636.5 913.12,-1642.5 907.12,-1648.5 901.12,-1648.5"/>
<text xml:space="preserve" text-anchor="middle" x="838.75" y="-1633.75" font-family="sans" font-size="10.00">268: blk.3.attn_k_norm.weight</text>
<text xml:space="preserve" text-anchor="middle" x="838.75" y="-1621" font-family="sans" font-size="10.00">NONE | f32 | 256x1x1x1</text>
</g>
<!-- n268&#45;&gt;n267 -->
<g id="edge20" class="edge">
<title>n268&#45;&gt;n267</title>
<path fill="none" stroke="#94a3b8" d="M835,-1612.41C832.44,-1600.76 828.99,-1585.05 826.01,-1571.52"/>
<polygon fill="#94a3b8" stroke="#94a3b8" points="829.45,-1570.84 823.89,-1561.83 822.61,-1572.35 829.45,-1570.84"/>
<text xml:space="preserve" text-anchor="middle" x="834.33" y="-1581.2" font-family="Times New Roman,serif" font-size="14.00">1</text>
</g>
<!-- n270 -->
<g id="node23" class="node">
<title>n270</title>
<path fill="#f1f5f9" stroke="black" d="M909.12,-1363.5C909.12,-1363.5 802.38,-1363.5 802.38,-1363.5 796.38,-1363.5 790.38,-1357.5 790.38,-1351.5 790.38,-1351.5 790.38,-1339.5 790.38,-1339.5 790.38,-1333.5 796.38,-1327.5 802.38,-1327.5 802.38,-1327.5 909.12,-1327.5 909.12,-1327.5 915.12,-1327.5 921.12,-1333.5 921.12,-1339.5 921.12,-1339.5 921.12,-1351.5 921.12,-1351.5 921.12,-1357.5 915.12,-1363.5 909.12,-1363.5"/>
<text xml:space="preserve" text-anchor="middle" x="855.75" y="-1348.75" font-family="sans" font-size="10.00">270: Kcur&#45;3 (view)</text>
<text xml:space="preserve" text-anchor="middle" x="855.75" y="-1336" font-family="sans" font-size="10.00">VIEW | f32 | 512x152x1x1</text>
</g>
<!-- n269&#45;&gt;n270 -->
<g id="edge23" class="edge">
<title>n269&#45;&gt;n270</title>
<path fill="none" stroke="#94a3b8" d="M826.86,-1415.91C831.81,-1404.02 838.52,-1387.91 844.22,-1374.2"/>
<polygon fill="#94a3b8" stroke="#94a3b8" points="847.34,-1375.82 847.95,-1365.25 840.87,-1373.14 847.34,-1375.82"/>
<text xml:space="preserve" text-anchor="middle" x="844.35" y="-1384.7" font-family="Times New Roman,serif" font-size="14.00">0</text>
</g>
<!-- n271 -->
<g id="node24" class="node">
<title>n271</title>
<path fill="#e2e8f0" stroke="black" d="M802.5,-1275C802.5,-1275 671,-1275 671,-1275 665,-1275 659,-1269 659,-1263 659,-1263 659,-1251 659,-1251 659,-1245 665,-1239 671,-1239 671,-1239 802.5,-1239 802.5,-1239 808.5,-1239 814.5,-1245 814.5,-1251 814.5,-1251 814.5,-1263 814.5,-1263 814.5,-1269 808.5,-1275 802.5,-1275"/>
<text xml:space="preserve" text-anchor="middle" x="736.75" y="-1260.25" font-family="sans" font-size="10.00">271: cache_k_l3 (view)</text>
<text xml:space="preserve" text-anchor="middle" x="736.75" y="-1247.5" font-family="sans" font-size="10.00">SET_ROWS | f16 | 512x768x1x1</text>
</g>
<!-- n270&#45;&gt;n271 -->
<g id="edge24" class="edge">
<title>n270&#45;&gt;n271</title>
<path fill="none" stroke="#94a3b8" d="M831.95,-1327.2C814.12,-1314.24 789.49,-1296.34 769.75,-1281.99"/>
<polygon fill="#94a3b8" stroke="#94a3b8" points="771.88,-1279.21 761.73,-1276.16 767.76,-1284.87 771.88,-1279.21"/>
<text xml:space="preserve" text-anchor="middle" x="810.28" y="-1296.2" font-family="Times New Roman,serif" font-size="14.00">0</text>
</g>
<!-- n272 -->
<g id="node25" class="node">
<title>n272</title>
<path fill="#f1f5f9" stroke="black" d="M760.25,-1363.5C760.25,-1363.5 663.25,-1363.5 663.25,-1363.5 657.25,-1363.5 651.25,-1357.5 651.25,-1351.5 651.25,-1351.5 651.25,-1339.5 651.25,-1339.5 651.25,-1333.5 657.25,-1327.5 663.25,-1327.5 663.25,-1327.5 760.25,-1327.5 760.25,-1327.5 766.25,-1327.5 772.25,-1333.5 772.25,-1339.5 772.25,-1339.5 772.25,-1351.5 772.25,-1351.5 772.25,-1357.5 766.25,-1363.5 760.25,-1363.5"/>
<text xml:space="preserve" text-anchor="middle" x="711.75" y="-1348.75" font-family="sans" font-size="10.00">272: attn_inp_k_idxs</text>
<text xml:space="preserve" text-anchor="middle" x="711.75" y="-1336" font-family="sans" font-size="10.00">NONE | i64 | 152x1x1x1</text>
</g>
<!-- n272&#45;&gt;n271 -->
<g id="edge25" class="edge">
<title>n272&#45;&gt;n271</title>
<path fill="none" stroke="#94a3b8" d="M710.76,-1327.42C710.67,-1317.2 711.45,-1304.09 715,-1293 715.83,-1290.41 716.89,-1287.82 718.09,-1285.29"/>
<polygon fill="#94a3b8" stroke="#94a3b8" points="721.1,-1287.09 722.91,-1276.65 714.98,-1283.68 721.1,-1287.09"/>
<text xml:space="preserve" text-anchor="middle" x="718.38" y="-1296.2" font-family="Times New Roman,serif" font-size="14.00">1</text>
</g>
<!-- n273 -->
<g id="node26" class="node">
<title>n273</title>
<path fill="#f1f5f9" stroke="black" d="M620.88,-1363.5C620.88,-1363.5 512.62,-1363.5 512.62,-1363.5 506.62,-1363.5 500.62,-1357.5 500.62,-1351.5 500.62,-1351.5 500.62,-1339.5 500.62,-1339.5 500.62,-1333.5 506.62,-1327.5 512.62,-1327.5 512.62,-1327.5 620.88,-1327.5 620.88,-1327.5 626.88,-1327.5 632.88,-1333.5 632.88,-1339.5 632.88,-1339.5 632.88,-1351.5 632.88,-1351.5 632.88,-1357.5 626.88,-1363.5 620.88,-1363.5"/>
<text xml:space="preserve" text-anchor="middle" x="566.75" y="-1348.75" font-family="sans" font-size="10.00">273: cache_k_l3</text>
<text xml:space="preserve" text-anchor="middle" x="566.75" y="-1336" font-family="sans" font-size="10.00">NONE | f16 | 512x768x1x1</text>
</g>
<!-- n273&#45;&gt;n271 -->
<g id="edge26" class="edge">
<title>n273&#45;&gt;n271</title>
<path fill="none" stroke="#94a3b8" d="M600.74,-1327.2C627.06,-1313.81 663.74,-1295.15 692.37,-1280.58"/>
<polygon fill="#94a3b8" stroke="#94a3b8" points="693.85,-1283.76 701.18,-1276.1 690.68,-1277.52 693.85,-1283.76"/>
<text xml:space="preserve" text-anchor="middle" x="670.35" y="-1296.2" font-family="Times New Roman,serif" font-size="14.00">2</text>
</g>
<!-- n283 -->
<g id="node33" class="node">
<title>n283</title>
<path fill="#f1f5f9" stroke="black" d="M629.25,-1275C629.25,-1275 484.25,-1275 484.25,-1275 478.25,-1275 472.25,-1269 472.25,-1263 472.25,-1263 472.25,-1251 472.25,-1251 472.25,-1245 478.25,-1239 484.25,-1239 484.25,-1239 629.25,-1239 629.25,-1239 635.25,-1239 641.25,-1245 641.25,-1251 641.25,-1251 641.25,-1263 641.25,-1263 641.25,-1269 635.25,-1275 629.25,-1275"/>
<text xml:space="preserve" text-anchor="middle" x="556.75" y="-1260.25" font-family="sans" font-size="10.00">283: cache_k_l3 (view) (permuted)</text>
<text xml:space="preserve" text-anchor="middle" x="556.75" y="-1247.5" font-family="sans" font-size="10.00">PERMUTE | f16 | 256x256x2x1</text>
</g>
<!-- n273&#45;&gt;n283 -->
<g id="edge34" class="edge">
<title>n273&#45;&gt;n283</title>
<path fill="none" stroke="#94a3b8" stroke-dasharray="5,2" d="M564.77,-1327.41C563.43,-1315.76 561.61,-1300.05 560.05,-1286.52"/>
<polygon fill="#94a3b8" stroke="#94a3b8" points="563.55,-1286.39 558.93,-1276.85 556.6,-1287.19 563.55,-1286.39"/>
<text xml:space="preserve" text-anchor="middle" x="575.02" y="-1296.2" font-family="Times New Roman,serif" font-size="14.00">alias</text>
</g>
<!-- n274&#45;&gt;n275 -->
<g id="edge29" class="edge">
<title>n274&#45;&gt;n275</title>
<path fill="none" stroke="#94a3b8" d="M1018.58,-1612.41C1028.58,-1600.05 1042.28,-1583.13 1053.64,-1569.08"/>
<polygon fill="#94a3b8" stroke="#94a3b8" points="1056.19,-1571.5 1059.76,-1561.53 1050.75,-1567.1 1056.19,-1571.5"/>
<text xml:space="preserve" text-anchor="middle" x="1049.39" y="-1581.2" font-family="Times New Roman,serif" font-size="14.00">0</text>
</g>
<!-- n278 -->
<g id="node30" class="node">
<title>n278</title>
<path fill="#e2e8f0" stroke="black" d="M1324.5,-1452C1324.5,-1452 1181,-1452 1181,-1452 1175,-1452 1169,-1446 1169,-1440 1169,-1440 1169,-1428 1169,-1428 1169,-1422 1175,-1416 1181,-1416 1181,-1416 1324.5,-1416 1324.5,-1416 1330.5,-1416 1336.5,-1422 1336.5,-1428 1336.5,-1428 1336.5,-1440 1336.5,-1440 1336.5,-1446 1330.5,-1452 1324.5,-1452"/>
<text xml:space="preserve" text-anchor="middle" x="1252.75" y="-1437.25" font-family="sans" font-size="10.00">278: cache_v_l3 (reshaped) (view)</text>
<text xml:space="preserve" text-anchor="middle" x="1252.75" y="-1424.5" font-family="sans" font-size="10.00">SET_ROWS | f16 | 1x393216x1x1</text>
</g>
<!-- n275&#45;&gt;n278 -->
<g id="edge31" class="edge">
<title>n275&#45;&gt;n278</title>
<path fill="none" stroke="#94a3b8" d="M1103.74,-1523.73C1133.65,-1505.92 1180.48,-1478.04 1213.65,-1458.28"/>
<polygon fill="#94a3b8" stroke="#94a3b8" points="1215.37,-1461.33 1222.17,-1453.21 1211.79,-1455.32 1215.37,-1461.33"/>
<text xml:space="preserve" text-anchor="middle" x="1193.47" y="-1482.95" font-family="Times New Roman,serif" font-size="14.00">0</text>
</g>
<!-- n276 -->
<g id="node29" class="node">
<title>n276</title>
<path fill="#f1f5f9" stroke="black" d="M1316.62,-1560C1316.62,-1560 1188.88,-1560 1188.88,-1560 1182.88,-1560 1176.88,-1554 1176.88,-1548 1176.88,-1548 1176.88,-1536 1176.88,-1536 1176.88,-1530 1182.88,-1524 1188.88,-1524 1188.88,-1524 1316.62,-1524 1316.62,-1524 1322.62,-1524 1328.62,-1530 1328.62,-1536 1328.62,-1536 1328.62,-1548 1328.62,-1548 1328.62,-1554 1322.62,-1560 1316.62,-1560"/>
<text xml:space="preserve" text-anchor="middle" x="1252.75" y="-1545.25" font-family="sans" font-size="10.00">276: cache_v_l3 (reshaped)</text>
<text xml:space="preserve" text-anchor="middle" x="1252.75" y="-1532.5" font-family="sans" font-size="10.00">RESHAPE | f16 | 1x393216x1x1</text>
</g>
<!-- n276&#45;&gt;n278 -->
<g id="edge33" class="edge">
<title>n276&#45;&gt;n278</title>
<path fill="none" stroke="#94a3b8" d="M1252.75,-1523.97C1252.75,-1507.76 1252.75,-1483.06 1252.75,-1463.79"/>
<polygon fill="#94a3b8" stroke="#94a3b8" points="1256.25,-1463.85 1252.75,-1453.85 1249.25,-1463.85 1256.25,-1463.85"/>
<text xml:space="preserve" text-anchor="middle" x="1256.12" y="-1482.95" font-family="Times New Roman,serif" font-size="14.00">2</text>
</g>
<!-- n279 -->
<g id="node31" class="node">
<title>n279</title>
<path fill="#f1f5f9" stroke="black" d="M1466.5,-1560C1466.5,-1560 1359,-1560 1359,-1560 1353,-1560 1347,-1554 1347,-1548 1347,-1548 1347,-1536 1347,-1536 1347,-1530 1353,-1524 1359,-1524 1359,-1524 1466.5,-1524 1466.5,-1524 1472.5,-1524 1478.5,-1530 1478.5,-1536 1478.5,-1536 1478.5,-1548 1478.5,-1548 1478.5,-1554 1472.5,-1560 1466.5,-1560"/>
<text xml:space="preserve" text-anchor="middle" x="1412.75" y="-1545.25" font-family="sans" font-size="10.00">279: attn_inp_v_idxs</text>
<text xml:space="preserve" text-anchor="middle" x="1412.75" y="-1532.5" font-family="sans" font-size="10.00">NONE | i64 | 77824x1x1x1</text>
</g>
<!-- n279&#45;&gt;n278 -->
<g id="edge32" class="edge">
<title>n279&#45;&gt;n278</title>
<path fill="none" stroke="#94a3b8" d="M1386.69,-1523.73C1359.92,-1506 1318.07,-1478.28 1288.28,-1458.54"/>
<polygon fill="#94a3b8" stroke="#94a3b8" points="1290.6,-1455.88 1280.33,-1453.27 1286.73,-1461.71 1290.6,-1455.88"/>
<text xml:space="preserve" text-anchor="middle" x="1359.81" y="-1482.95" font-family="Times New Roman,serif" font-size="14.00">1</text>
</g>
<!-- n281 -->
<g id="node32" class="node">
<title>n281</title>
<path fill="#f1f5f9" stroke="black" d="M560.25,-1098C560.25,-1098 415.25,-1098 415.25,-1098 409.25,-1098 403.25,-1092 403.25,-1086 403.25,-1086 403.25,-1074 403.25,-1074 403.25,-1068 409.25,-1062 415.25,-1062 415.25,-1062 560.25,-1062 560.25,-1062 566.25,-1062 572.25,-1068 572.25,-1074 572.25,-1074 572.25,-1086 572.25,-1086 572.25,-1092 566.25,-1098 560.25,-1098"/>
<text xml:space="preserve" text-anchor="middle" x="487.75" y="-1083.25" font-family="sans" font-size="10.00">281: cache_v_l3 (view) (permuted)</text>
<text xml:space="preserve" text-anchor="middle" x="487.75" y="-1070.5" font-family="sans" font-size="10.00">PERMUTE | f16 | 256x256x2x1</text>
</g>
<!-- n289 -->
<g id="node39" class="node">
<title>n289</title>
<path fill="#dbeafe" stroke="black" d="M375.88,-1009.5C375.88,-1009.5 249.62,-1009.5 249.62,-1009.5 243.62,-1009.5 237.62,-1003.5 237.62,-997.5 237.62,-997.5 237.62,-985.5 237.62,-985.5 237.62,-979.5 243.62,-973.5 249.62,-973.5 249.62,-973.5 375.88,-973.5 375.88,-973.5 381.88,-973.5 387.88,-979.5 387.88,-985.5 387.88,-985.5 387.88,-997.5 387.88,-997.5 387.88,-1003.5 381.88,-1009.5 375.88,-1009.5"/>
<text xml:space="preserve" text-anchor="middle" x="312.75" y="-994.75" font-family="sans" font-size="10.00">289: kqv&#45;3</text>
<text xml:space="preserve" text-anchor="middle" x="312.75" y="-982" font-family="sans" font-size="10.00">MUL_MAT | f32 | 256x152x8x1</text>
</g>
<!-- n281&#45;&gt;n289 -->
<g id="edge42" class="edge">
<title>n281&#45;&gt;n289</title>
<path fill="none" stroke="#94a3b8" d="M452.76,-1061.7C425.54,-1048.25 387.58,-1029.49 358.04,-1014.89"/>
<polygon fill="#94a3b8" stroke="#94a3b8" points="359.85,-1011.88 349.34,-1010.59 356.75,-1018.15 359.85,-1011.88"/>
<text xml:space="preserve" text-anchor="middle" x="419.3" y="-1030.7" font-family="Times New Roman,serif" font-size="14.00">0</text>
</g>
<!-- n286 -->
<g id="node36" class="node">
<title>n286</title>
<path fill="#dbeafe" stroke="black" d="M519.88,-1186.5C519.88,-1186.5 393.62,-1186.5 393.62,-1186.5 387.62,-1186.5 381.62,-1180.5 381.62,-1174.5 381.62,-1174.5 381.62,-1162.5 381.62,-1162.5 381.62,-1156.5 387.62,-1150.5 393.62,-1150.5 393.62,-1150.5 519.88,-1150.5 519.88,-1150.5 525.88,-1150.5 531.88,-1156.5 531.88,-1162.5 531.88,-1162.5 531.88,-1174.5 531.88,-1174.5 531.88,-1180.5 525.88,-1186.5 519.88,-1186.5"/>
<text xml:space="preserve" text-anchor="middle" x="456.75" y="-1171.75" font-family="sans" font-size="10.00">286: kq&#45;3</text>
<text xml:space="preserve" text-anchor="middle" x="456.75" y="-1159" font-family="sans" font-size="10.00">MUL_MAT | f32 | 256x152x8x1</text>
</g>
<!-- n283&#45;&gt;n286 -->
<g id="edge38" class="edge">
<title>n283&#45;&gt;n286</title>
<path fill="none" stroke="#94a3b8" d="M536.99,-1238.91C522.16,-1226.08 501.64,-1208.33 485.07,-1193.99"/>
<polygon fill="#94a3b8" stroke="#94a3b8" points="487.81,-1191.74 477.95,-1187.84 483.23,-1197.03 487.81,-1191.74"/>
<text xml:space="preserve" text-anchor="middle" x="519.08" y="-1207.7" font-family="Times New Roman,serif" font-size="14.00">0</text>
</g>
<!-- n284&#45;&gt;n285 -->
<g id="edge36" class="edge">
<title>n284&#45;&gt;n285</title>
<path fill="none" stroke="#94a3b8" d="M361.1,-1327.41C364.09,-1315.64 368.14,-1299.73 371.6,-1286.11"/>
<polygon fill="#94a3b8" stroke="#94a3b8" points="374.89,-1287.37 373.96,-1276.82 368.11,-1285.65 374.89,-1287.37"/>
<text xml:space="preserve" text-anchor="middle" x="373.1" y="-1296.2" font-family="Times New Roman,serif" font-size="14.00">0</text>
</g>
<!-- n285&#45;&gt;n286 -->
<g id="edge39" class="edge">
<title>n285&#45;&gt;n286</title>
<path fill="none" stroke="#94a3b8" d="M394.16,-1238.91C405.41,-1226.43 420.86,-1209.3 433.59,-1195.18"/>
<polygon fill="#94a3b8" stroke="#94a3b8" points="435.99,-1197.74 440.09,-1187.97 430.8,-1193.06 435.99,-1197.74"/>
<text xml:space="preserve" text-anchor="middle" x="428.11" y="-1207.7" font-family="Times New Roman,serif" font-size="14.00">1</text>
</g>
<!-- n287 -->
<g id="node37" class="node">
<title>n287</title>
<path fill="#fef3c7" stroke="black" d="M373.12,-1098C373.12,-1098 242.38,-1098 242.38,-1098 236.38,-1098 230.38,-1092 230.38,-1086 230.38,-1086 230.38,-1074 230.38,-1074 230.38,-1068 236.38,-1062 242.38,-1062 242.38,-1062 373.12,-1062 373.12,-1062 379.12,-1062 385.12,-1068 385.12,-1074 385.12,-1074 385.12,-1086 385.12,-1086 385.12,-1092 379.12,-1098 373.12,-1098"/>
<text xml:space="preserve" text-anchor="middle" x="307.75" y="-1083.25" font-family="sans" font-size="10.00">287: kq_soft_max&#45;3</text>
<text xml:space="preserve" text-anchor="middle" x="307.75" y="-1070.5" font-family="sans" font-size="10.00">SOFT_MAX | f32 | 256x152x8x1</text>
</g>
<!-- n286&#45;&gt;n287 -->
<g id="edge40" class="edge">
<title>n286&#45;&gt;n287</title>
<path fill="none" stroke="#94a3b8" d="M426.96,-1150.2C404.19,-1136.99 372.59,-1118.64 347.64,-1104.16"/>
<polygon fill="#94a3b8" stroke="#94a3b8" points="349.46,-1101.17 339.06,-1099.17 345.95,-1107.22 349.46,-1101.17"/>
<text xml:space="preserve" text-anchor="middle" x="398.97" y="-1119.2" font-family="Times New Roman,serif" font-size="14.00">0</text>
</g>
<!-- n287&#45;&gt;n289 -->
<g id="edge43" class="edge">
<title>n287&#45;&gt;n289</title>
<path fill="none" stroke="#94a3b8" d="M308.74,-1061.91C309.41,-1050.26 310.32,-1034.55 311.1,-1021.02"/>
<polygon fill="#94a3b8" stroke="#94a3b8" points="314.58,-1021.55 311.66,-1011.36 307.59,-1021.14 314.58,-1021.55"/>
<text xml:space="preserve" text-anchor="middle" x="314.07" y="-1030.7" font-family="Times New Roman,serif" font-size="14.00">1</text>
</g>
<!-- n288 -->
<g id="node38" class="node">
<title>n288</title>
<path fill="#f1f5f9" stroke="black" d="M351.88,-1186.5C351.88,-1186.5 243.62,-1186.5 243.62,-1186.5 237.62,-1186.5 231.62,-1180.5 231.62,-1174.5 231.62,-1174.5 231.62,-1162.5 231.62,-1162.5 231.62,-1156.5 237.62,-1150.5 243.62,-1150.5 243.62,-1150.5 351.88,-1150.5 351.88,-1150.5 357.88,-1150.5 363.88,-1156.5 363.88,-1162.5 363.88,-1162.5 363.88,-1174.5 363.88,-1174.5 363.88,-1180.5 357.88,-1186.5 351.88,-1186.5"/>
<text xml:space="preserve" text-anchor="middle" x="297.75" y="-1171.75" font-family="sans" font-size="10.00">288: attn_inp_kq_mask</text>
<text xml:space="preserve" text-anchor="middle" x="297.75" y="-1159" font-family="sans" font-size="10.00">NONE | f32 | 256x152x1x1</text>
</g>
<!-- n288&#45;&gt;n287 -->
<g id="edge41" class="edge">
<title>n288&#45;&gt;n287</title>
<path fill="none" stroke="#94a3b8" d="M299.73,-1150.41C301.07,-1138.76 302.89,-1123.05 304.45,-1109.52"/>
<polygon fill="#94a3b8" stroke="#94a3b8" points="307.9,-1110.19 305.57,-1099.85 300.95,-1109.39 307.9,-1110.19"/>
<text xml:space="preserve" text-anchor="middle" x="307.02" y="-1119.2" font-family="Times New Roman,serif" font-size="14.00">1</text>
</g>
<!-- n290 -->
<g id="node40" class="node">
<title>n290</title>
<path fill="#f1f5f9" stroke="black" d="M375.12,-921C375.12,-921 250.38,-921 250.38,-921 244.38,-921 238.38,-915 238.38,-909 238.38,-909 238.38,-897 238.38,-897 238.38,-891 244.38,-885 250.38,-885 250.38,-885 375.12,-885 375.12,-885 381.12,-885 387.12,-891 387.12,-897 387.12,-897 387.12,-909 387.12,-909 387.12,-915 381.12,-921 375.12,-921"/>
<text xml:space="preserve" text-anchor="middle" x="312.75" y="-906.25" font-family="sans" font-size="10.00">290: kqv&#45;3 (permuted)</text>
<text xml:space="preserve" text-anchor="middle" x="312.75" y="-893.5" font-family="sans" font-size="10.00">PERMUTE | f32 | 256x8x152x1</text>
</g>
<!-- n289&#45;&gt;n290 -->
<g id="edge44" class="edge">
<title>n289&#45;&gt;n290</title>
<path fill="none" stroke="#94a3b8" d="M312.75,-973.41C312.75,-961.76 312.75,-946.05 312.75,-932.52"/>
<polygon fill="#94a3b8" stroke="#94a3b8" points="316.25,-932.86 312.75,-922.86 309.25,-932.86 316.25,-932.86"/>
<text xml:space="preserve" text-anchor="middle" x="316.12" y="-942.2" font-family="Times New Roman,serif" font-size="14.00">0</text>
</g>
<!-- n291 -->
<g id="node41" class="node">
<title>n291</title>
<path fill="#e2e8f0" stroke="black" d="M369.5,-832.5C369.5,-832.5 256,-832.5 256,-832.5 250,-832.5 244,-826.5 244,-820.5 244,-820.5 244,-808.5 244,-808.5 244,-802.5 250,-796.5 256,-796.5 256,-796.5 369.5,-796.5 369.5,-796.5 375.5,-796.5 381.5,-802.5 381.5,-808.5 381.5,-808.5 381.5,-820.5 381.5,-820.5 381.5,-826.5 375.5,-832.5 369.5,-832.5"/>
<text xml:space="preserve" text-anchor="middle" x="312.75" y="-817.75" font-family="sans" font-size="10.00">291: attn_pregate&#45;3</text>
<text xml:space="preserve" text-anchor="middle" x="312.75" y="-805" font-family="sans" font-size="10.00">CONT | f32 | 2048x152x1x1</text>
</g>
<!-- n290&#45;&gt;n291 -->
<g id="edge45" class="edge">
<title>n290&#45;&gt;n291</title>
<path fill="none" stroke="#94a3b8" d="M312.75,-884.91C312.75,-873.26 312.75,-857.55 312.75,-844.02"/>
<polygon fill="#94a3b8" stroke="#94a3b8" points="316.25,-844.36 312.75,-834.36 309.25,-844.36 316.25,-844.36"/>
<text xml:space="preserve" text-anchor="middle" x="316.12" y="-853.7" font-family="Times New Roman,serif" font-size="14.00">0</text>
</g>
<!-- n295 -->
<g id="node45" class="node">
<title>n295</title>
<path fill="#fef3c7" stroke="black" d="M366.5,-744C366.5,-744 259,-744 259,-744 253,-744 247,-738 247,-732 247,-732 247,-720 247,-720 247,-714 253,-708 259,-708 259,-708 366.5,-708 366.5,-708 372.5,-708 378.5,-714 378.5,-720 378.5,-720 378.5,-732 378.5,-732 378.5,-738 372.5,-744 366.5,-744"/>
<text xml:space="preserve" text-anchor="middle" x="312.75" y="-729.25" font-family="sans" font-size="10.00">295: attn_gated&#45;3</text>
<text xml:space="preserve" text-anchor="middle" x="312.75" y="-716.5" font-family="sans" font-size="10.00">MUL | f32 | 2048x152x1x1</text>
</g>
<!-- n291&#45;&gt;n295 -->
<g id="edge49" class="edge">
<title>n291&#45;&gt;n295</title>
<path fill="none" stroke="#94a3b8" d="M312.75,-796.41C312.75,-784.76 312.75,-769.05 312.75,-755.52"/>
<polygon fill="#94a3b8" stroke="#94a3b8" points="316.25,-755.86 312.75,-745.86 309.25,-755.86 316.25,-755.86"/>
<text xml:space="preserve" text-anchor="middle" x="316.12" y="-765.2" font-family="Times New Roman,serif" font-size="14.00">0</text>
</g>
<!-- n293 -->
<g id="node43" class="node">
<title>n293</title>
<path fill="#e2e8f0" stroke="black" d="M216.5,-1648.5C216.5,-1648.5 103,-1648.5 103,-1648.5 97,-1648.5 91,-1642.5 91,-1636.5 91,-1636.5 91,-1624.5 91,-1624.5 91,-1618.5 97,-1612.5 103,-1612.5 103,-1612.5 216.5,-1612.5 216.5,-1612.5 222.5,-1612.5 228.5,-1618.5 228.5,-1624.5 228.5,-1624.5 228.5,-1636.5 228.5,-1636.5 228.5,-1642.5 222.5,-1648.5 216.5,-1648.5"/>
<text xml:space="preserve" text-anchor="middle" x="159.75" y="-1633.75" font-family="sans" font-size="10.00">293: gate_reshaped&#45;3</text>
<text xml:space="preserve" text-anchor="middle" x="159.75" y="-1621" font-family="sans" font-size="10.00">CONT | f32 | 2048x152x1x1</text>
</g>
<!-- n292&#45;&gt;n293 -->
<g id="edge47" class="edge">
<title>n292&#45;&gt;n293</title>
<path fill="none" stroke="#94a3b8" d="M258.95,-1700.7C240.28,-1687.68 214.47,-1669.67 193.86,-1655.29"/>
<polygon fill="#94a3b8" stroke="#94a3b8" points="195.95,-1652.48 185.74,-1649.63 191.94,-1658.22 195.95,-1652.48"/>
<text xml:space="preserve" text-anchor="middle" x="236.23" y="-1669.7" font-family="Times New Roman,serif" font-size="14.00">0</text>
</g>
<!-- n294 -->
<g id="node44" class="node">
<title>n294</title>
<path fill="#fef3c7" stroke="black" d="M232,-1506C232,-1506 103.5,-1506 103.5,-1506 97.5,-1506 91.5,-1500 91.5,-1494 91.5,-1494 91.5,-1482 91.5,-1482 91.5,-1476 97.5,-1470 103.5,-1470 103.5,-1470 232,-1470 232,-1470 238,-1470 244,-1476 244,-1482 244,-1482 244,-1494 244,-1494 244,-1500 238,-1506 232,-1506"/>
<text xml:space="preserve" text-anchor="middle" x="167.75" y="-1491.25" font-family="sans" font-size="10.00">294: gate_sigmoid&#45;3</text>
<text xml:space="preserve" text-anchor="middle" x="167.75" y="-1478.5" font-family="sans" font-size="10.00">SIGMOID | f32 | 2048x152x1x1</text>
</g>
<!-- n293&#45;&gt;n294 -->
<g id="edge48" class="edge">
<title>n293&#45;&gt;n294</title>
<path fill="none" stroke="#94a3b8" d="M160.73,-1612.27C162.07,-1588.68 164.5,-1546 166.12,-1517.58"/>
<polygon fill="#94a3b8" stroke="#94a3b8" points="169.6,-1518.06 166.67,-1507.88 162.61,-1517.66 169.6,-1518.06"/>
<text xml:space="preserve" text-anchor="middle" x="165.94" y="-1581.2" font-family="Times New Roman,serif" font-size="14.00">0</text>
</g>
<!-- n294&#45;&gt;n295 -->
<g id="edge50" class="edge">
<title>n294&#45;&gt;n295</title>
<path fill="none" stroke="#94a3b8" d="M175.41,-1469.64C183.08,-1450.65 193.75,-1419.14 193.75,-1390.75 193.75,-1390.75 193.75,-1390.75 193.75,-813.5 193.75,-783.6 218.63,-762.96 245.63,-749.37"/>
<polygon fill="#94a3b8" stroke="#94a3b8" points="247.09,-752.54 254.67,-745.14 244.13,-746.21 247.09,-752.54"/>
<text xml:space="preserve" text-anchor="middle" x="197.12" y="-1119.2" font-family="Times New Roman,serif" font-size="14.00">1</text>
</g>
<!-- n296 -->
<g id="node46" class="node">
<title>n296</title>
<path fill="#dbeafe" stroke="black" d="M221.5,-655.5C221.5,-655.5 90,-655.5 90,-655.5 84,-655.5 78,-649.5 78,-643.5 78,-643.5 78,-631.5 78,-631.5 78,-625.5 84,-619.5 90,-619.5 90,-619.5 221.5,-619.5 221.5,-619.5 227.5,-619.5 233.5,-625.5 233.5,-631.5 233.5,-631.5 233.5,-643.5 233.5,-643.5 233.5,-649.5 227.5,-655.5 221.5,-655.5"/>
<text xml:space="preserve" text-anchor="middle" x="155.75" y="-640.75" font-family="sans" font-size="10.00">296: attn_output&#45;3</text>
<text xml:space="preserve" text-anchor="middle" x="155.75" y="-628" font-family="sans" font-size="10.00">MUL_MAT | f32 | 2048x152x1x1</text>
</g>
<!-- n295&#45;&gt;n296 -->
<g id="edge52" class="edge">
<title>n295&#45;&gt;n296</title>
<path fill="none" stroke="#94a3b8" d="M281.36,-707.7C257.26,-694.43 223.77,-675.98 197.43,-661.46"/>
<polygon fill="#94a3b8" stroke="#94a3b8" points="199.13,-658.41 188.68,-656.65 195.75,-664.54 199.13,-658.41"/>
<text xml:space="preserve" text-anchor="middle" x="251.69" y="-676.7" font-family="Times New Roman,serif" font-size="14.00">1</text>
</g>
<!-- n296&#45;&gt;n298 -->
<g id="edge53" class="edge">
<title>n296&#45;&gt;n298</title>
<path fill="none" stroke="#94a3b8" d="M137.97,-619.41C124.86,-606.82 106.83,-589.48 92.06,-575.29"/>
<polygon fill="#94a3b8" stroke="#94a3b8" points="94.53,-572.81 84.89,-568.4 89.68,-577.85 94.53,-572.81"/>
<text xml:space="preserve" text-anchor="middle" x="122.19" y="-588.2" font-family="Times New Roman,serif" font-size="14.00">0</text>
</g>
<!-- n297 -->
<g id="node47" class="node">
<title>n297</title>
<path fill="#f1f5f9" stroke="black" d="M217.25,-744C217.25,-744 90.25,-744 90.25,-744 84.25,-744 78.25,-738 78.25,-732 78.25,-732 78.25,-720 78.25,-720 78.25,-714 84.25,-708 90.25,-708 90.25,-708 217.25,-708 217.25,-708 223.25,-708 229.25,-714 229.25,-720 229.25,-720 229.25,-732 229.25,-732 229.25,-738 223.25,-744 217.25,-744"/>
<text xml:space="preserve" text-anchor="middle" x="153.75" y="-729.25" font-family="sans" font-size="10.00">297: blk.3.attn_output.weight</text>
<text xml:space="preserve" text-anchor="middle" x="153.75" y="-716.5" font-family="sans" font-size="10.00">NONE | q4_K | 2048x2048x1x1</text>
</g>
<!-- n297&#45;&gt;n296 -->
<g id="edge51" class="edge">
<title>n297&#45;&gt;n296</title>
<path fill="none" stroke="#94a3b8" d="M154.15,-707.91C154.41,-696.26 154.78,-680.55 155.09,-667.02"/>
<polygon fill="#94a3b8" stroke="#94a3b8" points="158.58,-667.44 155.31,-657.36 151.58,-667.28 158.58,-667.44"/>
<text xml:space="preserve" text-anchor="middle" x="158.3" y="-676.7" font-family="Times New Roman,serif" font-size="14.00">0</text>
</g>
<!-- n299 -->
<g id="node49" class="node">
<title>n299</title>
<path fill="#fef3c7" stroke="black" d="M429.25,-478.5C429.25,-478.5 290.25,-478.5 290.25,-478.5 284.25,-478.5 278.25,-472.5 278.25,-466.5 278.25,-466.5 278.25,-454.5 278.25,-454.5 278.25,-448.5 284.25,-442.5 290.25,-442.5 290.25,-442.5 429.25,-442.5 429.25,-442.5 435.25,-442.5 441.25,-448.5 441.25,-454.5 441.25,-454.5 441.25,-466.5 441.25,-466.5 441.25,-472.5 435.25,-478.5 429.25,-478.5"/>
<text xml:space="preserve" text-anchor="middle" x="359.75" y="-463.75" font-family="sans" font-size="10.00">299: norm&#45;3</text>
<text xml:space="preserve" text-anchor="middle" x="359.75" y="-451" font-family="sans" font-size="10.00">RMS_NORM | f32 | 2048x152x1x1</text>
</g>
<!-- n298&#45;&gt;n299 -->
<g id="edge55" class="edge">
<title>n298&#45;&gt;n299</title>
<path fill="none" stroke="#94a3b8" d="M124.89,-530.6C172.46,-516.6 239.42,-496.9 289.67,-482.12"/>
<polygon fill="#94a3b8" stroke="#94a3b8" points="290.39,-485.55 299,-479.37 288.42,-478.84 290.39,-485.55"/>
<text xml:space="preserve" text-anchor="middle" x="242.46" y="-499.7" font-family="Times New Roman,serif" font-size="14.00">0</text>
</g>
<!-- n309 -->
<g id="node59" class="node">
<title>n309</title>
<path fill="#fef3c7" stroke="black" d="M119.5,-36C119.5,-36 12,-36 12,-36 6,-36 0,-30 0,-24 0,-24 0,-12 0,-12 0,-6 6,0 12,0 12,0 119.5,0 119.5,0 125.5,0 131.5,-6 131.5,-12 131.5,-12 131.5,-24 131.5,-24 131.5,-30 125.5,-36 119.5,-36"/>
<text xml:space="preserve" text-anchor="middle" x="65.75" y="-21.25" font-family="sans" font-size="10.00">309: l_out&#45;3</text>
<text xml:space="preserve" text-anchor="middle" x="65.75" y="-8.5" font-family="sans" font-size="10.00">ADD | f32 | 2048x152x1x1</text>
</g>
<!-- n298&#45;&gt;n309 -->
<g id="edge67" class="edge">
<title>n298&#45;&gt;n309</title>
<path fill="none" stroke="#94a3b8" d="M60.6,-530.61C55.92,-513.27 49.75,-485.78 49.75,-461.5 49.75,-461.5 49.75,-461.5 49.75,-105.5 49.75,-85.77 53.82,-63.93 57.86,-47.12"/>
<polygon fill="#94a3b8" stroke="#94a3b8" points="61.15,-48.41 60.23,-37.85 54.36,-46.68 61.15,-48.41"/>
<text xml:space="preserve" text-anchor="middle" x="53.12" y="-278.45" font-family="Times New Roman,serif" font-size="14.00">1</text>
</g>
<!-- n300 -->
<g id="node50" class="node">
<title>n300</title>
<path fill="#fef3c7" stroke="black" d="M378.5,-390C378.5,-390 271,-390 271,-390 265,-390 259,-384 259,-378 259,-378 259,-366 259,-366 259,-360 265,-354 271,-354 271,-354 378.5,-354 378.5,-354 384.5,-354 390.5,-360 390.5,-366 390.5,-366 390.5,-378 390.5,-378 390.5,-384 384.5,-390 378.5,-390"/>
<text xml:space="preserve" text-anchor="middle" x="324.75" y="-375.25" font-family="sans" font-size="10.00">300: attn_post_norm&#45;3</text>
<text xml:space="preserve" text-anchor="middle" x="324.75" y="-362.5" font-family="sans" font-size="10.00">MUL | f32 | 2048x152x1x1</text>
</g>
<!-- n299&#45;&gt;n300 -->
<g id="edge56" class="edge">
<title>n299&#45;&gt;n300</title>
<path fill="none" stroke="#94a3b8" d="M352.84,-442.41C348.02,-430.52 341.51,-414.41 335.96,-400.7"/>
<polygon fill="#94a3b8" stroke="#94a3b8" points="339.33,-399.71 332.34,-391.75 332.84,-402.34 339.33,-399.71"/>
<text xml:space="preserve" text-anchor="middle" x="348.76" y="-411.2" font-family="Times New Roman,serif" font-size="14.00">0</text>
</g>
<!-- n302 -->
<g id="node52" class="node">
<title>n302</title>
<path fill="#dbeafe" stroke="black" d="M510.5,-301.5C510.5,-301.5 379,-301.5 379,-301.5 373,-301.5 367,-295.5 367,-289.5 367,-289.5 367,-277.5 367,-277.5 367,-271.5 373,-265.5 379,-265.5 379,-265.5 510.5,-265.5 510.5,-265.5 516.5,-265.5 522.5,-271.5 522.5,-277.5 522.5,-277.5 522.5,-289.5 522.5,-289.5 522.5,-295.5 516.5,-301.5 510.5,-301.5"/>
<text xml:space="preserve" text-anchor="middle" x="444.75" y="-286.75" font-family="sans" font-size="10.00">302: ffn_gate&#45;3</text>
<text xml:space="preserve" text-anchor="middle" x="444.75" y="-274" font-family="sans" font-size="10.00">MUL_MAT | f32 | 6144x152x1x1</text>
</g>
<!-- n300&#45;&gt;n302 -->
<g id="edge59" class="edge">
<title>n300&#45;&gt;n302</title>
<path fill="none" stroke="#94a3b8" d="M348.75,-353.7C366.73,-340.74 391.57,-322.84 411.47,-308.49"/>
<polygon fill="#94a3b8" stroke="#94a3b8" points="413.5,-311.34 419.57,-302.65 409.41,-305.66 413.5,-311.34"/>
<text xml:space="preserve" text-anchor="middle" x="398.87" y="-322.7" font-family="Times New Roman,serif" font-size="14.00">1</text>
</g>
<!-- n304 -->
<g id="node54" class="node">
<title>n304</title>
<path fill="#dbeafe" stroke="black" d="M336.5,-301.5C336.5,-301.5 205,-301.5 205,-301.5 199,-301.5 193,-295.5 193,-289.5 193,-289.5 193,-277.5 193,-277.5 193,-271.5 199,-265.5 205,-265.5 205,-265.5 336.5,-265.5 336.5,-265.5 342.5,-265.5 348.5,-271.5 348.5,-277.5 348.5,-277.5 348.5,-289.5 348.5,-289.5 348.5,-295.5 342.5,-301.5 336.5,-301.5"/>
<text xml:space="preserve" text-anchor="middle" x="270.75" y="-286.75" font-family="sans" font-size="10.00">304: ffn_up&#45;3</text>
<text xml:space="preserve" text-anchor="middle" x="270.75" y="-274" font-family="sans" font-size="10.00">MUL_MAT | f32 | 6144x152x1x1</text>
</g>
<!-- n300&#45;&gt;n304 -->
<g id="edge61" class="edge">
<title>n300&#45;&gt;n304</title>
<path fill="none" stroke="#94a3b8" d="M314.08,-353.91C306.51,-341.79 296.2,-325.27 287.54,-311.39"/>
<polygon fill="#94a3b8" stroke="#94a3b8" points="290.65,-309.76 282.38,-303.13 284.71,-313.47 290.65,-309.76"/>
<text xml:space="preserve" text-anchor="middle" x="305.96" y="-322.7" font-family="Times New Roman,serif" font-size="14.00">1</text>
</g>
<!-- n301 -->
<g id="node51" class="node">
<title>n301</title>
<path fill="#f1f5f9" stroke="black" d="M248,-478.5C248,-478.5 89.5,-478.5 89.5,-478.5 83.5,-478.5 77.5,-472.5 77.5,-466.5 77.5,-466.5 77.5,-454.5 77.5,-454.5 77.5,-448.5 83.5,-442.5 89.5,-442.5 89.5,-442.5 248,-442.5 248,-442.5 254,-442.5 260,-448.5 260,-454.5 260,-454.5 260,-466.5 260,-466.5 260,-472.5 254,-478.5 248,-478.5"/>
<text xml:space="preserve" text-anchor="middle" x="168.75" y="-463.75" font-family="sans" font-size="10.00">301: blk.3.post_attention_norm.weight</text>
<text xml:space="preserve" text-anchor="middle" x="168.75" y="-451" font-family="sans" font-size="10.00">NONE | f32 | 2048x1x1x1</text>
</g>
<!-- n301&#45;&gt;n300 -->
<g id="edge57" class="edge">
<title>n301&#45;&gt;n300</title>
<path fill="none" stroke="#94a3b8" d="M199.94,-442.2C223.89,-428.93 257.16,-410.48 283.33,-395.96"/>
<polygon fill="#94a3b8" stroke="#94a3b8" points="284.97,-399.06 292.02,-391.15 281.58,-392.94 284.97,-399.06"/>
<text xml:space="preserve" text-anchor="middle" x="264.1" y="-411.2" font-family="Times New Roman,serif" font-size="14.00">1</text>
</g>
<!-- n306 -->
<g id="node56" class="node">
<title>n306</title>
<path fill="#fef3c7" stroke="black" d="M385.12,-213C385.12,-213 260.38,-213 260.38,-213 254.38,-213 248.38,-207 248.38,-201 248.38,-201 248.38,-189 248.38,-189 248.38,-183 254.38,-177 260.38,-177 260.38,-177 385.12,-177 385.12,-177 391.12,-177 397.12,-183 397.12,-189 397.12,-189 397.12,-201 397.12,-201 397.12,-207 391.12,-213 385.12,-213"/>
<text xml:space="preserve" text-anchor="middle" x="322.75" y="-198.25" font-family="sans" font-size="10.00">306: ffn_swiglu&#45;3</text>
<text xml:space="preserve" text-anchor="middle" x="322.75" y="-185.5" font-family="sans" font-size="10.00">SWIGLU | f32 | 6144x152x1x1</text>
</g>
<!-- n302&#45;&gt;n306 -->
<g id="edge62" class="edge">
<title>n302&#45;&gt;n306</title>
<path fill="none" stroke="#94a3b8" d="M420.35,-265.2C401.99,-252.18 376.59,-234.17 356.31,-219.79"/>
<polygon fill="#94a3b8" stroke="#94a3b8" points="358.52,-217.07 348.34,-214.14 354.47,-222.78 358.52,-217.07"/>
<text xml:space="preserve" text-anchor="middle" x="398.05" y="-234.2" font-family="Times New Roman,serif" font-size="14.00">0</text>
</g>
<!-- n303 -->
<g id="node53" class="node">
<title>n303</title>
<path fill="#f1f5f9" stroke="black" d="M547.25,-390C547.25,-390 420.25,-390 420.25,-390 414.25,-390 408.25,-384 408.25,-378 408.25,-378 408.25,-366 408.25,-366 408.25,-360 414.25,-354 420.25,-354 420.25,-354 547.25,-354 547.25,-354 553.25,-354 559.25,-360 559.25,-366 559.25,-366 559.25,-378 559.25,-378 559.25,-384 553.25,-390 547.25,-390"/>
<text xml:space="preserve" text-anchor="middle" x="483.75" y="-375.25" font-family="sans" font-size="10.00">303: blk.3.ffn_gate.weight</text>
<text xml:space="preserve" text-anchor="middle" x="483.75" y="-362.5" font-family="sans" font-size="10.00">NONE | q4_K | 2048x6144x1x1</text>
</g>
<!-- n303&#45;&gt;n302 -->
<g id="edge58" class="edge">
<title>n303&#45;&gt;n302</title>
<path fill="none" stroke="#94a3b8" d="M476.04,-353.91C470.68,-342.02 463.42,-325.91 457.24,-312.2"/>
<polygon fill="#94a3b8" stroke="#94a3b8" points="460.5,-310.91 453.19,-303.23 454.11,-313.78 460.5,-310.91"/>
<text xml:space="preserve" text-anchor="middle" x="471.12" y="-322.7" font-family="Times New Roman,serif" font-size="14.00">0</text>
</g>
<!-- n304&#45;&gt;n306 -->
<g id="edge63" class="edge">
<title>n304&#45;&gt;n306</title>
<path fill="none" stroke="#94a3b8" d="M281.02,-265.41C288.31,-253.29 298.24,-236.77 306.58,-222.89"/>
<polygon fill="#94a3b8" stroke="#94a3b8" points="309.39,-225.02 311.54,-214.65 303.39,-221.41 309.39,-225.02"/>
<text xml:space="preserve" text-anchor="middle" x="304.78" y="-234.2" font-family="Times New Roman,serif" font-size="14.00">1</text>
</g>
<!-- n305 -->
<g id="node55" class="node">
<title>n305</title>
<path fill="#f1f5f9" stroke="black" d="M229.25,-390C229.25,-390 102.25,-390 102.25,-390 96.25,-390 90.25,-384 90.25,-378 90.25,-378 90.25,-366 90.25,-366 90.25,-360 96.25,-354 102.25,-354 102.25,-354 229.25,-354 229.25,-354 235.25,-354 241.25,-360 241.25,-366 241.25,-366 241.25,-378 241.25,-378 241.25,-384 235.25,-390 229.25,-390"/>
<text xml:space="preserve" text-anchor="middle" x="165.75" y="-375.25" font-family="sans" font-size="10.00">305: blk.3.ffn_up.weight</text>
<text xml:space="preserve" text-anchor="middle" x="165.75" y="-362.5" font-family="sans" font-size="10.00">NONE | q4_K | 2048x6144x1x1</text>
</g>
<!-- n305&#45;&gt;n304 -->
<g id="edge60" class="edge">
<title>n305&#45;&gt;n304</title>
<path fill="none" stroke="#94a3b8" d="M186.75,-353.7C202.34,-340.86 223.82,-323.16 241.16,-308.88"/>
<polygon fill="#94a3b8" stroke="#94a3b8" points="243.13,-311.79 248.62,-302.73 238.68,-306.39 243.13,-311.79"/>
<text xml:space="preserve" text-anchor="middle" x="231.03" y="-322.7" font-family="Times New Roman,serif" font-size="14.00">0</text>
</g>
<!-- n307 -->
<g id="node57" class="node">
<title>n307</title>
<path fill="#dbeafe" stroke="black" d="M221.5,-124.5C221.5,-124.5 90,-124.5 90,-124.5 84,-124.5 78,-118.5 78,-112.5 78,-112.5 78,-100.5 78,-100.5 78,-94.5 84,-88.5 90,-88.5 90,-88.5 221.5,-88.5 221.5,-88.5 227.5,-88.5 233.5,-94.5 233.5,-100.5 233.5,-100.5 233.5,-112.5 233.5,-112.5 233.5,-118.5 227.5,-124.5 221.5,-124.5"/>
<text xml:space="preserve" text-anchor="middle" x="155.75" y="-109.75" font-family="sans" font-size="10.00">307: ffn_out&#45;3</text>
<text xml:space="preserve" text-anchor="middle" x="155.75" y="-97" font-family="sans" font-size="10.00">MUL_MAT | f32 | 2048x152x1x1</text>
</g>
<!-- n306&#45;&gt;n307 -->
<g id="edge65" class="edge">
<title>n306&#45;&gt;n307</title>
<path fill="none" stroke="#94a3b8" d="M289.36,-176.7C263.5,-163.31 227.47,-144.65 199.34,-130.08"/>
<polygon fill="#94a3b8" stroke="#94a3b8" points="201.2,-127.1 190.72,-125.61 197.99,-133.32 201.2,-127.1"/>
<text xml:space="preserve" text-anchor="middle" x="257.58" y="-145.7" font-family="Times New Roman,serif" font-size="14.00">1</text>
</g>
<!-- n307&#45;&gt;n309 -->
<g id="edge66" class="edge">
<title>n307&#45;&gt;n309</title>
<path fill="none" stroke="#94a3b8" d="M137.97,-88.41C124.86,-75.82 106.83,-58.48 92.06,-44.29"/>
<polygon fill="#94a3b8" stroke="#94a3b8" points="94.53,-41.81 84.89,-37.4 89.68,-46.85 94.53,-41.81"/>
<text xml:space="preserve" text-anchor="middle" x="122.19" y="-57.2" font-family="Times New Roman,serif" font-size="14.00">0</text>
</g>
<!-- n308 -->
<g id="node58" class="node">
<title>n308</title>
<path fill="#f1f5f9" stroke="black" d="M218.25,-213C218.25,-213 91.25,-213 91.25,-213 85.25,-213 79.25,-207 79.25,-201 79.25,-201 79.25,-189 79.25,-189 79.25,-183 85.25,-177 91.25,-177 91.25,-177 218.25,-177 218.25,-177 224.25,-177 230.25,-183 230.25,-189 230.25,-189 230.25,-201 230.25,-201 230.25,-207 224.25,-213 218.25,-213"/>
<text xml:space="preserve" text-anchor="middle" x="154.75" y="-198.25" font-family="sans" font-size="10.00">308: blk.3.ffn_down.weight</text>
<text xml:space="preserve" text-anchor="middle" x="154.75" y="-185.5" font-family="sans" font-size="10.00">NONE | q4_K | 6144x2048x1x1</text>
</g>
<!-- n308&#45;&gt;n307 -->
<g id="edge64" class="edge">
<title>n308&#45;&gt;n307</title>
<path fill="none" stroke="#94a3b8" d="M154.95,-176.91C155.08,-165.26 155.26,-149.55 155.42,-136.02"/>
<polygon fill="#94a3b8" stroke="#94a3b8" points="158.92,-136.4 155.53,-126.36 151.92,-136.32 158.92,-136.4"/>
<text xml:space="preserve" text-anchor="middle" x="158.71" y="-145.7" font-family="Times New Roman,serif" font-size="14.00">0</text>
</g>
</g>
</svg>
